<ttFont>
    <TTGlyph name=".notdef" xMin="80" yMin="0" xMax="928" yMax="1004">
      <contour>
        <pt x="80" y="0" on="1"/>
        <pt x="80" y="1004" on="1"/>
        <pt x="928" y="1004" on="1"/>
        <pt x="928" y="0" on="1"/>
      </contour>
      <contour>
        <pt x="160" y="20" on="1"/>
        <pt x="848" y="20" on="1"/>
        <pt x="848" y="984" on="1"/>
        <pt x="160" y="984" on="1"/>
      </contour>
    </TTGlyph>
    <TTGlyph name="A" xMin="-6" yMin="0" xMax="1254" yMax="1468">
      <contour>
        <pt x="-6" y="0" on="1"/>
        <pt x="-6" y="45" on="1"/>
        <pt x="115" y="55" on="1"/>
        <pt x="588" y="1468" on="1"/>
        <pt x="633" y="1468" on="1"/>
        <pt x="1122" y="55" on="1"/>
        <pt x="1254" y="45" on="1"/>
        <pt x="1254" y="0" on="1"/>
        <pt x="719" y="0" on="1"/>
        <pt x="719" y="45" on="1"/>
        <pt x="854" y="55" on="1"/>
        <pt x="736" y="414" on="1"/>
        <pt x="288" y="414" on="1"/>
        <pt x="172" y="55" on="1"/>
        <pt x="307" y="45" on="1"/>
        <pt x="307" y="0" on="1"/>
      </contour>
      <contour>
        <pt x="306" y="474" on="1"/>
        <pt x="714" y="482" on="1"/>
        <pt x="514" y="1096" on="1"/>
        <pt x="510" y="1096" on="1"/>
      </contour>
    </TTGlyph>
    <TTGlyph name="AE" xMin="-34" yMin="0" xMax="1745" yMax="1427">
      <contour>
        <pt x="-34" y="0" on="1"/>
        <pt x="-34" y="45" on="1"/>
        <pt x="87" y="55" on="1"/>
        <pt x="636" y="1020" on="1"/>
        <pt x="738" y="1200" on="0"/>
        <pt x="738" y="1277" on="1"/>
        <pt x="738" y="1330" on="0"/>
        <pt x="657" y="1382" on="0"/>
        <pt x="564" y="1382" on="1"/>
        <pt x="564" y="1427" on="1"/>
        <pt x="1714" y="1427" on="1"/>
        <pt x="1714" y="1020" on="1"/>
        <pt x="1659" y="1020" on="1"/>
        <pt x="1652" y="1086" on="0"/>
        <pt x="1629" y="1184" on="0"/>
        <pt x="1583" y="1278" on="0"/>
        <pt x="1516" y="1337" on="0"/>
        <pt x="1411" y="1372" on="0"/>
        <pt x="1342" y="1372" on="1"/>
        <pt x="1257" y="1372" on="0"/>
        <pt x="1129" y="1362" on="1"/>
        <pt x="1129" y="768" on="1"/>
        <pt x="1159" y="765" on="0"/>
        <pt x="1238" y="765" on="1"/>
        <pt x="1343" y="765" on="0"/>
        <pt x="1433" y="868" on="0"/>
        <pt x="1433" y="1004" on="1"/>
        <pt x="1488" y="1004" on="1"/>
        <pt x="1488" y="467" on="1"/>
        <pt x="1433" y="467" on="1"/>
        <pt x="1433" y="603" on="0"/>
        <pt x="1342" y="710" on="0"/>
        <pt x="1238" y="710" on="1"/>
        <pt x="1161" y="710" on="0"/>
        <pt x="1129" y="707" on="1"/>
        <pt x="1129" y="65" on="1"/>
        <pt x="1257" y="55" on="0"/>
        <pt x="1383" y="55" on="1"/>
        <pt x="1469" y="55" on="0"/>
        <pt x="1592" y="106" on="0"/>
        <pt x="1665" y="206" on="0"/>
        <pt x="1704" y="326" on="0"/>
        <pt x="1713" y="408" on="1"/>
        <pt x="1745" y="408" on="1"/>
        <pt x="1745" y="0" on="1"/>
        <pt x="719" y="0" on="1"/>
        <pt x="719" y="45" on="1"/>
        <pt x="873" y="55" on="1"/>
        <pt x="873" y="414" on="1"/>
        <pt x="354" y="414" on="1"/>
        <pt x="150" y="55" on="1"/>
        <pt x="285" y="45" on="1"/>
        <pt x="285" y="0" on="1"/>
      </contour>
      <contour>
        <pt x="379" y="468" on="1"/>
        <pt x="873" y="468" on="1"/>
        <pt x="873" y="1328" on="1"/>
      </contour>
    </TTGlyph>
    <TTGlyph name="Aacute" xMin="-6" yMin="0" xMax="1254" yMax="1800">
      <component glyphName="A" x="0" y="0" flags="0x204"/>
      <component glyphName="acute.case" x="422" y="-43" flags="0x4"/>
    </TTGlyph>
    <TTGlyph name="Acircumflex" xMin="-6" yMin="0" xMax="1254" yMax="1855">
      <component glyphName="A" x="0" y="0" flags="0x204"/>
      <component glyphName="circumflex.case" x="200" y="-43" flags="0x4"/>
    </TTGlyph>
    <TTGlyph name="Adieresis" xMin="-6" yMin="0" xMax="1254" yMax="1842">
      <component glyphName="A" x="0" y="0" flags="0x204"/>
      <component glyphName="dieresis.case" x="225" y="-43" flags="0x4"/>
    </TTGlyph>
    <TTGlyph name="Agrave" xMin="-6" yMin="0" xMax="1254" yMax="1805">
      <component glyphName="A" x="0" y="0" flags="0x204"/>
      <component glyphName="grave.case" x="215" y="-43" flags="0x4"/>
    </TTGlyph>
    <TTGlyph name="Aring" xMin="-6" yMin="0" xMax="1254" yMax="1875">
      <component glyphName="A" x="0" y="0" flags="0x204"/>
      <component glyphName="ring.case" x="282" y="-52" flags="0x4"/>
    </TTGlyph>
    <TTGlyph name="Atilde" xMin="-6" yMin="0" xMax="1254" yMax="1834">
      <component glyphName="A" x="0" y="0" flags="0x204"/>
      <component glyphName="tilde.case" x="199" y="-43" flags="0x4"/>
    </TTGlyph>
    <TTGlyph name="B" xMin="73" yMin="0" xMax="1193" yMax="1427">
      <contour>
        <pt x="73" y="0" on="1"/>
        <pt x="73" y="45" on="1"/>
        <pt x="227" y="55" on="1"/>
        <pt x="227" y="1372" on="1"/>
        <pt x="73" y="1382" on="1"/>
        <pt x="73" y="1427" on="1"/>
        <pt x="608" y="1427" on="1"/>
        <pt x="694" y="1427" on="0"/>
        <pt x="835" y="1411" on="0"/>
        <pt x="973" y="1368" on="0"/>
        <pt x="1066" y="1298" on="0"/>
        <pt x="1123" y="1183" on="0"/>
        <pt x="1123" y="1106" on="1"/>
        <pt x="1123" y="1045" on="0"/>
        <pt x="1069" y="942" on="0"/>
        <pt x="986" y="874" on="0"/>
        <pt x="876" y="821" on="0"/>
        <pt x="774" y="793" on="0"/>
        <pt x="723" y="786" on="1"/>
        <pt x="723" y="782" on="1"/>
        <pt x="824" y="782" on="0"/>
        <pt x="994" y="735" on="0"/>
        <pt x="1121" y="643" on="0"/>
        <pt x="1193" y="494" on="0"/>
        <pt x="1193" y="399" on="1"/>
        <pt x="1193" y="313" on="0"/>
        <pt x="1131" y="176" on="0"/>
        <pt x="1027" y="86" on="0"/>
        <pt x="886" y="26" on="0"/>
        <pt x="734" y="0" on="0"/>
        <pt x="651" y="0" on="1"/>
      </contour>
      <contour>
        <pt x="483" y="65" on="1"/>
        <pt x="537" y="55" on="0"/>
        <pt x="587" y="55" on="1"/>
        <pt x="746" y="55" on="0"/>
        <pt x="927" y="239" on="0"/>
        <pt x="927" y="397" on="1"/>
        <pt x="927" y="566" on="0"/>
        <pt x="740" y="745" on="0"/>
        <pt x="575" y="745" on="1"/>
        <pt x="528" y="745" on="0"/>
        <pt x="483" y="738" on="1"/>
      </contour>
      <contour>
        <pt x="483" y="806" on="1"/>
        <pt x="525" y="800" on="0"/>
        <pt x="560" y="800" on="1"/>
        <pt x="863" y="800" on="0"/>
        <pt x="863" y="1100" on="1"/>
        <pt x="863" y="1228" on="0"/>
        <pt x="727" y="1372" on="0"/>
        <pt x="587" y="1372" on="1"/>
        <pt x="537" y="1372" on="0"/>
        <pt x="483" y="1362" on="1"/>
      </contour>
    </TTGlyph>
    <TTGlyph name="C" xMin="98" yMin="-35" xMax="1212" yMax="1462">
      <contour>
        <pt x="98" y="688" on="1"/>
        <pt x="98" y="799" on="0"/>
        <pt x="146" y="1015" on="0"/>
        <pt x="251" y="1217" on="0"/>
        <pt x="403" y="1370" on="0"/>
        <pt x="627" y="1462" on="0"/>
        <pt x="761" y="1462" on="1"/>
        <pt x="917" y="1462" on="0"/>
        <pt x="1155" y="1291" on="0"/>
        <pt x="1155" y="1174" on="1"/>
        <pt x="1155" y="1115" on="0"/>
        <pt x="1080" y="1031" on="0"/>
        <pt x="1015" y="1031" on="1"/>
        <pt x="953" y="1031" on="0"/>
        <pt x="875" y="1108" on="0"/>
        <pt x="875" y="1167" on="1"/>
        <pt x="875" y="1225" on="0"/>
        <pt x="949" y="1304" on="0"/>
        <pt x="1004" y="1304" on="1"/>
        <pt x="1015" y="1304" on="0"/>
        <pt x="1020" y="1303" on="1"/>
        <pt x="1020" y="1307" on="1"/>
        <pt x="1005" y="1335" on="0"/>
        <pt x="873" y="1405" on="0"/>
        <pt x="780" y="1405" on="1"/>
        <pt x="598" y="1405" on="0"/>
        <pt x="364" y="1027" on="0"/>
        <pt x="364" y="717" on="1"/>
        <pt x="364" y="584" on="0"/>
        <pt x="410" y="347" on="0"/>
        <pt x="501" y="153" on="0"/>
        <pt x="655" y="38" on="0"/>
        <pt x="754" y="38" on="1"/>
        <pt x="896" y="38" on="0"/>
        <pt x="1107" y="207" on="0"/>
        <pt x="1165" y="339" on="1"/>
        <pt x="1212" y="317" on="1"/>
        <pt x="1069" y="-35" on="0"/>
        <pt x="731" y="-35" on="1"/>
        <pt x="584" y="-35" on="0"/>
        <pt x="358" y="47" on="0"/>
        <pt x="219" y="182" on="0"/>
        <pt x="131" y="374" on="0"/>
        <pt x="98" y="572" on="0"/>
      </contour>
    </TTGlyph>
    <TTGlyph name="Ccedilla" xMin="98" yMin="-560" xMax="1212" yMax="1462">
      <contour>
        <pt x="98" y="688" on="1"/>
        <pt x="98" y="799" on="0"/>
        <pt x="146" y="1015" on="0"/>
        <pt x="251" y="1217" on="0"/>
        <pt x="403" y="1370" on="0"/>
        <pt x="627" y="1462" on="0"/>
        <pt x="761" y="1462" on="1"/>
        <pt x="917" y="1462" on="0"/>
        <pt x="1155" y="1291" on="0"/>
        <pt x="1155" y="1174" on="1"/>
        <pt x="1155" y="1115" on="0"/>
        <pt x="1080" y="1031" on="0"/>
        <pt x="1015" y="1031" on="1"/>
        <pt x="953" y="1031" on="0"/>
        <pt x="875" y="1108" on="0"/>
        <pt x="875" y="1167" on="1"/>
        <pt x="875" y="1225" on="0"/>
        <pt x="949" y="1304" on="0"/>
        <pt x="1004" y="1304" on="1"/>
        <pt x="1015" y="1304" on="0"/>
        <pt x="1020" y="1303" on="1"/>
        <pt x="1020" y="1307" on="1"/>
        <pt x="1005" y="1335" on="0"/>
        <pt x="873" y="1405" on="0"/>
        <pt x="780" y="1405" on="1"/>
        <pt x="598" y="1405" on="0"/>
        <pt x="364" y="1027" on="0"/>
        <pt x="364" y="717" on="1"/>
        <pt x="364" y="584" on="0"/>
        <pt x="410" y="347" on="0"/>
        <pt x="501" y="153" on="0"/>
        <pt x="655" y="38" on="0"/>
        <pt x="754" y="38" on="1"/>
        <pt x="896" y="38" on="0"/>
        <pt x="1107" y="207" on="0"/>
        <pt x="1165" y="339" on="1"/>
        <pt x="1212" y="317" on="1"/>
        <pt x="1069" y="-35" on="0"/>
        <pt x="731" y="-35" on="1"/>
        <pt x="654" y="-35" on="0"/>
        <pt x="586" y="-23" on="1"/>
        <pt x="538" y="-171" on="1"/>
        <pt x="603" y="-136" on="0"/>
        <pt x="694" y="-136" on="1"/>
        <pt x="758" y="-136" on="0"/>
        <pt x="839" y="-209" on="0"/>
        <pt x="839" y="-271" on="1"/>
        <pt x="839" y="-318" on="0"/>
        <pt x="782" y="-407" on="0"/>
        <pt x="694" y="-471" on="0"/>
        <pt x="585" y="-523" on="0"/>
        <pt x="482" y="-554" on="0"/>
        <pt x="438" y="-560" on="1"/>
        <pt x="430" y="-510" on="1"/>
        <pt x="535" y="-495" on="0"/>
        <pt x="663" y="-356" on="0"/>
        <pt x="663" y="-289" on="1"/>
        <pt x="663" y="-216" on="0"/>
        <pt x="598" y="-216" on="1"/>
        <pt x="548" y="-216" on="0"/>
        <pt x="505" y="-246" on="1"/>
        <pt x="471" y="-218" on="1"/>
        <pt x="523" y="-10" on="1"/>
        <pt x="496" y="-3" on="0"/>
        <pt x="471" y="6" on="1"/>
        <pt x="358" y="47" on="0"/>
        <pt x="219" y="182" on="0"/>
        <pt x="131" y="374" on="0"/>
        <pt x="98" y="572" on="0"/>
      </contour>
    </TTGlyph>
    <TTGlyph name="D" xMin="73" yMin="0" xMax="1316" yMax="1427">
      <contour>
        <pt x="73" y="0" on="1"/>
        <pt x="73" y="45" on="1"/>
        <pt x="227" y="55" on="1"/>
        <pt x="227" y="1372" on="1"/>
        <pt x="73" y="1382" on="1"/>
        <pt x="73" y="1427" on="1"/>
        <pt x="577" y="1427" on="1"/>
        <pt x="780" y="1427" on="0"/>
        <pt x="1070" y="1325" on="0"/>
        <pt x="1239" y="1131" on="0"/>
        <pt x="1316" y="875" on="0"/>
        <pt x="1316" y="707" on="1"/>
        <pt x="1316" y="586" on="0"/>
        <pt x="1266" y="377" on="0"/>
        <pt x="1157" y="198" on="0"/>
        <pt x="994" y="71" on="0"/>
        <pt x="757" y="0" on="0"/>
        <pt x="610" y="0" on="1"/>
      </contour>
      <contour>
        <pt x="483" y="65" on="1"/>
        <pt x="537" y="55" on="0"/>
        <pt x="581" y="55" on="1"/>
        <pt x="683" y="55" on="0"/>
        <pt x="842" y="121" on="0"/>
        <pt x="949" y="238" on="0"/>
        <pt x="1019" y="407" on="0"/>
        <pt x="1050" y="605" on="0"/>
        <pt x="1050" y="723" on="1"/>
        <pt x="1050" y="839" on="0"/>
        <pt x="1028" y="1021" on="0"/>
        <pt x="967" y="1193" on="0"/>
        <pt x="867" y="1305" on="0"/>
        <pt x="703" y="1372" on="0"/>
        <pt x="593" y="1372" on="1"/>
        <pt x="537" y="1372" on="0"/>
        <pt x="483" y="1362" on="1"/>
      </contour>
    </TTGlyph>
    <TTGlyph name="E" xMin="73" yMin="0" xMax="1110" yMax="1427">
      <contour>
        <pt x="73" y="0" on="1"/>
        <pt x="73" y="45" on="1"/>
        <pt x="227" y="55" on="1"/>
        <pt x="227" y="1372" on="1"/>
        <pt x="73" y="1382" on="1"/>
        <pt x="73" y="1427" on="1"/>
        <pt x="1058" y="1427" on="1"/>
        <pt x="1068" y="1020" on="1"/>
        <pt x="1026" y="1020" on="1"/>
        <pt x="1014" y="1088" on="0"/>
        <pt x="987" y="1183" on="0"/>
        <pt x="937" y="1279" on="0"/>
        <pt x="870" y="1336" on="0"/>
        <pt x="765" y="1372" on="0"/>
        <pt x="696" y="1372" on="1"/>
        <pt x="611" y="1372" on="0"/>
        <pt x="483" y="1362" on="1"/>
        <pt x="483" y="768" on="1"/>
        <pt x="513" y="765" on="0"/>
        <pt x="592" y="765" on="1"/>
        <pt x="697" y="765" on="0"/>
        <pt x="787" y="868" on="0"/>
        <pt x="787" y="1004" on="1"/>
        <pt x="842" y="1004" on="1"/>
        <pt x="842" y="467" on="1"/>
        <pt x="787" y="467" on="1"/>
        <pt x="787" y="603" on="0"/>
        <pt x="696" y="710" on="0"/>
        <pt x="592" y="710" on="1"/>
        <pt x="515" y="710" on="0"/>
        <pt x="483" y="707" on="1"/>
        <pt x="483" y="65" on="1"/>
        <pt x="611" y="55" on="0"/>
        <pt x="737" y="55" on="1"/>
        <pt x="796" y="55" on="0"/>
        <pt x="886" y="74" on="0"/>
        <pt x="952" y="118" on="0"/>
        <pt x="998" y="173" on="0"/>
        <pt x="1033" y="259" on="0"/>
        <pt x="1055" y="345" on="0"/>
        <pt x="1067" y="408" on="1"/>
        <pt x="1110" y="408" on="1"/>
        <pt x="1099" y="0" on="1"/>
      </contour>
    </TTGlyph>
    <TTGlyph name="Eacute" xMin="73" yMin="0" xMax="1110" yMax="1800">
      <component glyphName="E" x="0" y="0" flags="0x204"/>
      <component glyphName="acute.case" x="483" y="-43" flags="0x4"/>
    </TTGlyph>
    <TTGlyph name="Ecircumflex" xMin="73" yMin="0" xMax="1110" yMax="1855">
      <component glyphName="E" x="0" y="0" flags="0x204"/>
      <component glyphName="circumflex.case" x="241" y="-43" flags="0x4"/>
    </TTGlyph>
    <TTGlyph name="Edieresis" xMin="73" yMin="0" xMax="1110" yMax="1842">
      <component glyphName="E" x="0" y="0" flags="0x204"/>
      <component glyphName="dieresis.case" x="246" y="-43" flags="0x4"/>
    </TTGlyph>
    <TTGlyph name="Egrave" xMin="73" yMin="0" xMax="1110" yMax="1805">
      <component glyphName="E" x="0" y="0" flags="0x204"/>
      <component glyphName="grave.case" x="316" y="-43" flags="0x4"/>
    </TTGlyph>
    <TTGlyph name="Eth" xMin="48" yMin="0" xMax="1316" yMax="1427">
      <contour>
        <pt x="48" y="692" on="1"/>
        <pt x="48" y="755" on="1"/>
        <pt x="227" y="755" on="1"/>
        <pt x="227" y="1372" on="1"/>
        <pt x="73" y="1382" on="1"/>
        <pt x="73" y="1427" on="1"/>
        <pt x="577" y="1427" on="1"/>
        <pt x="780" y="1427" on="0"/>
        <pt x="1070" y="1325" on="0"/>
        <pt x="1239" y="1131" on="0"/>
        <pt x="1316" y="875" on="0"/>
        <pt x="1316" y="707" on="1"/>
        <pt x="1316" y="586" on="0"/>
        <pt x="1266" y="377" on="0"/>
        <pt x="1157" y="198" on="0"/>
        <pt x="994" y="71" on="0"/>
        <pt x="757" y="0" on="0"/>
        <pt x="610" y="0" on="1"/>
        <pt x="73" y="0" on="1"/>
        <pt x="73" y="45" on="1"/>
        <pt x="227" y="55" on="1"/>
        <pt x="227" y="692" on="1"/>
      </contour>
      <contour>
        <pt x="483" y="65" on="1"/>
        <pt x="537" y="55" on="0"/>
        <pt x="581" y="55" on="1"/>
        <pt x="683" y="55" on="0"/>
        <pt x="842" y="121" on="0"/>
        <pt x="949" y="238" on="0"/>
        <pt x="1019" y="407" on="0"/>
        <pt x="1050" y="605" on="0"/>
        <pt x="1050" y="723" on="1"/>
        <pt x="1050" y="839" on="0"/>
        <pt x="1028" y="1021" on="0"/>
        <pt x="967" y="1193" on="0"/>
        <pt x="867" y="1305" on="0"/>
        <pt x="703" y="1372" on="0"/>
        <pt x="593" y="1372" on="1"/>
        <pt x="537" y="1372" on="0"/>
        <pt x="483" y="1362" on="1"/>
        <pt x="483" y="762" on="1"/>
        <pt x="690" y="762" on="1"/>
        <pt x="690" y="692" on="1"/>
        <pt x="483" y="692" on="1"/>
      </contour>
    </TTGlyph>
    <TTGlyph name="Euro" xMin="32" yMin="-35" xMax="1295" yMax="1462">
      <contour>
        <pt x="32" y="548" on="1"/>
        <pt x="66" y="658" on="1"/>
        <pt x="176" y="658" on="1"/>
        <pt x="176" y="688" on="1"/>
        <pt x="176" y="758" on="0"/>
        <pt x="185" y="828" on="1"/>
        <pt x="32" y="828" on="1"/>
        <pt x="66" y="938" on="1"/>
        <pt x="205" y="938" on="1"/>
        <pt x="232" y="1047" on="0"/>
        <pt x="326" y="1229" on="0"/>
        <pt x="469" y="1378" on="0"/>
        <pt x="679" y="1462" on="0"/>
        <pt x="809" y="1462" on="1"/>
        <pt x="961" y="1462" on="0"/>
        <pt x="1190" y="1308" on="0"/>
        <pt x="1244" y="1159" on="1"/>
        <pt x="1194" y="1140" on="1"/>
        <pt x="1134" y="1278" on="0"/>
        <pt x="954" y="1398" on="0"/>
        <pt x="828" y="1398" on="1"/>
        <pt x="689" y="1398" on="0"/>
        <pt x="498" y="1147" on="0"/>
        <pt x="461" y="938" on="1"/>
        <pt x="982" y="938" on="1"/>
        <pt x="948" y="828" on="1"/>
        <pt x="446" y="828" on="1"/>
        <pt x="442" y="780" on="0"/>
        <pt x="442" y="717" on="1"/>
        <pt x="442" y="678" on="0"/>
        <pt x="443" y="658" on="1"/>
        <pt x="904" y="658" on="1"/>
        <pt x="870" y="548" on="1"/>
        <pt x="453" y="548" on="1"/>
        <pt x="466" y="445" on="0"/>
        <pt x="524" y="269" on="0"/>
        <pt x="615" y="122" on="0"/>
        <pt x="752" y="38" on="0"/>
        <pt x="837" y="38" on="1"/>
        <pt x="979" y="38" on="0"/>
        <pt x="1190" y="207" on="0"/>
        <pt x="1248" y="339" on="1"/>
        <pt x="1295" y="317" on="1"/>
        <pt x="1152" y="-35" on="0"/>
        <pt x="810" y="-35" on="1"/>
        <pt x="659" y="-35" on="0"/>
        <pt x="428" y="51" on="0"/>
        <pt x="281" y="211" on="0"/>
        <pt x="197" y="417" on="0"/>
        <pt x="183" y="548" on="1"/>
      </contour>
    </TTGlyph>
    <TTGlyph name="F" xMin="73" yMin="0" xMax="1028" yMax="1427">
      <contour>
        <pt x="73" y="0" on="1"/>
        <pt x="73" y="45" on="1"/>
        <pt x="227" y="55" on="1"/>
        <pt x="227" y="1372" on="1"/>
        <pt x="73" y="1382" on="1"/>
        <pt x="73" y="1427" on="1"/>
        <pt x="1018" y="1427" on="1"/>
        <pt x="1028" y="1020" on="1"/>
        <pt x="972" y="1020" on="1"/>
        <pt x="965" y="1104" on="0"/>
        <pt x="931" y="1223" on="0"/>
        <pt x="862" y="1322" on="0"/>
        <pt x="742" y="1372" on="0"/>
        <pt x="656" y="1372" on="1"/>
        <pt x="541" y="1372" on="0"/>
        <pt x="483" y="1362" on="1"/>
        <pt x="483" y="746" on="1"/>
        <pt x="508" y="745" on="0"/>
        <pt x="512" y="745" on="1"/>
        <pt x="583" y="745" on="0"/>
        <pt x="665" y="760" on="0"/>
        <pt x="731" y="809" on="0"/>
        <pt x="757" y="905" on="0"/>
        <pt x="757" y="985" on="1"/>
        <pt x="812" y="985" on="1"/>
        <pt x="812" y="448" on="1"/>
        <pt x="757" y="448" on="1"/>
        <pt x="757" y="585" on="0"/>
        <pt x="667" y="691" on="0"/>
        <pt x="562" y="691" on="1"/>
        <pt x="483" y="690" on="1"/>
        <pt x="483" y="55" on="1"/>
        <pt x="677" y="45" on="1"/>
        <pt x="677" y="0" on="1"/>
      </contour>
    </TTGlyph>
    <TTGlyph name="G" xMin="98" yMin="-35" xMax="1365" yMax="1462">
      <contour>
        <pt x="98" y="684" on="1"/>
        <pt x="98" y="789" on="0"/>
        <pt x="145" y="1002" on="0"/>
        <pt x="250" y="1207" on="0"/>
        <pt x="399" y="1365" on="0"/>
        <pt x="623" y="1462" on="0"/>
        <pt x="757" y="1462" on="1"/>
        <pt x="959" y="1462" on="0"/>
        <pt x="1224" y="1290" on="0"/>
        <pt x="1224" y="1173" on="1"/>
        <pt x="1224" y="1110" on="0"/>
        <pt x="1144" y="1022" on="0"/>
        <pt x="1074" y="1022" on="1"/>
        <pt x="1009" y="1022" on="0"/>
        <pt x="927" y="1103" on="0"/>
        <pt x="927" y="1165" on="1"/>
        <pt x="927" y="1233" on="0"/>
        <pt x="1013" y="1310" on="0"/>
        <pt x="1080" y="1310" on="1"/>
        <pt x="1080" y="1314" on="1"/>
        <pt x="1058" y="1340" on="0"/>
        <pt x="915" y="1402" on="0"/>
        <pt x="817" y="1402" on="1"/>
        <pt x="676" y="1402" on="0"/>
        <pt x="470" y="1227" on="0"/>
        <pt x="364" y="919" on="0"/>
        <pt x="364" y="717" on="1"/>
        <pt x="364" y="648" on="0"/>
        <pt x="373" y="520" on="0"/>
        <pt x="399" y="378" on="0"/>
        <pt x="440" y="258" on="0"/>
        <pt x="508" y="147" on="0"/>
        <pt x="598" y="69" on="0"/>
        <pt x="726" y="23" on="0"/>
        <pt x="803" y="23" on="1"/>
        <pt x="890" y="23" on="0"/>
        <pt x="989" y="53" on="1"/>
        <pt x="989" y="598" on="1"/>
        <pt x="841" y="609" on="1"/>
        <pt x="841" y="654" on="1"/>
        <pt x="1365" y="654" on="1"/>
        <pt x="1365" y="609" on="1"/>
        <pt x="1218" y="598" on="1"/>
        <pt x="1218" y="68" on="1"/>
        <pt x="1134" y="19" on="0"/>
        <pt x="880" y="-35" on="0"/>
        <pt x="748" y="-35" on="1"/>
        <pt x="98" y="-35" on="0"/>
      </contour>
    </TTGlyph>
    <TTGlyph name="H" xMin="73" yMin="0" xMax="1431" yMax="1427">
      <contour>
        <pt x="73" y="0" on="1"/>
        <pt x="73" y="45" on="1"/>
        <pt x="227" y="55" on="1"/>
        <pt x="227" y="1372" on="1"/>
        <pt x="73" y="1382" on="1"/>
        <pt x="73" y="1427" on="1"/>
        <pt x="637" y="1427" on="1"/>
        <pt x="637" y="1382" on="1"/>
        <pt x="483" y="1372" on="1"/>
        <pt x="483" y="762" on="1"/>
        <pt x="1021" y="770" on="1"/>
        <pt x="1021" y="1372" on="1"/>
        <pt x="867" y="1382" on="1"/>
        <pt x="867" y="1427" on="1"/>
        <pt x="1431" y="1427" on="1"/>
        <pt x="1431" y="1382" on="1"/>
        <pt x="1277" y="1372" on="1"/>
        <pt x="1277" y="55" on="1"/>
        <pt x="1431" y="45" on="1"/>
        <pt x="1431" y="0" on="1"/>
        <pt x="867" y="0" on="1"/>
        <pt x="867" y="45" on="1"/>
        <pt x="1021" y="55" on="1"/>
        <pt x="1021" y="702" on="1"/>
        <pt x="483" y="702" on="1"/>
        <pt x="483" y="55" on="1"/>
        <pt x="637" y="45" on="1"/>
        <pt x="637" y="0" on="1"/>
      </contour>
    </TTGlyph>
    <TTGlyph name="I" xMin="73" yMin="0" xMax="637" yMax="1427">
      <contour>
        <pt x="73" y="0" on="1"/>
        <pt x="73" y="45" on="1"/>
        <pt x="227" y="55" on="1"/>
        <pt x="227" y="1372" on="1"/>
        <pt x="73" y="1382" on="1"/>
        <pt x="73" y="1427" on="1"/>
        <pt x="637" y="1427" on="1"/>
        <pt x="637" y="1382" on="1"/>
        <pt x="483" y="1372" on="1"/>
        <pt x="483" y="55" on="1"/>
        <pt x="637" y="45" on="1"/>
        <pt x="637" y="0" on="1"/>
      </contour>
    </TTGlyph>
    <TTGlyph name="Iacute" xMin="73" yMin="0" xMax="637" yMax="1800">
      <component glyphName="I" x="0" y="0" flags="0x204"/>
      <component glyphName="acute.case" x="152" y="-43" flags="0x4"/>
    </TTGlyph>
    <TTGlyph name="Icircumflex" xMin="61" yMin="0" xMax="657" yMax="1855">
      <component glyphName="I" x="0" y="0" flags="0x204"/>
      <component glyphName="circumflex.case" x="-59" y="-43" flags="0x4"/>
    </TTGlyph>
    <TTGlyph name="Idieresis" xMin="46" yMin="0" xMax="651" yMax="1842">
      <component glyphName="I" x="0" y="0" flags="0x204"/>
      <component glyphName="dieresis.case" x="-34" y="-43" flags="0x4"/>
    </TTGlyph>
    <TTGlyph name="Igrave" xMin="57" yMin="0" xMax="637" yMax="1805">
      <component glyphName="I" x="0" y="0" flags="0x204"/>
      <component glyphName="grave.case" x="-14" y="-43" flags="0x4"/>
    </TTGlyph>
    <TTGlyph name="J" xMin="-59" yMin="-307" xMax="758" yMax="1427">
      <contour>
        <pt x="-59" y="-113" on="1"/>
        <pt x="-59" y="-53" on="0"/>
        <pt x="21" y="35" on="0"/>
        <pt x="84" y="35" on="1"/>
        <pt x="151" y="35" on="0"/>
        <pt x="225" y="-45" on="0"/>
        <pt x="225" y="-102" on="1"/>
        <pt x="225" y="-135" on="0"/>
        <pt x="184" y="-211" on="0"/>
        <pt x="149" y="-229" on="1"/>
        <pt x="152" y="-233" on="1"/>
        <pt x="165" y="-252" on="0"/>
        <pt x="211" y="-252" on="1"/>
        <pt x="227" y="-252" on="0"/>
        <pt x="250" y="-248" on="0"/>
        <pt x="286" y="-234" on="0"/>
        <pt x="311" y="-200" on="0"/>
        <pt x="335" y="-145" on="0"/>
        <pt x="348" y="-53" on="0"/>
        <pt x="348" y="8" on="1"/>
        <pt x="348" y="1372" on="1"/>
        <pt x="154" y="1382" on="1"/>
        <pt x="154" y="1427" on="1"/>
        <pt x="758" y="1427" on="1"/>
        <pt x="758" y="1382" on="1"/>
        <pt x="604" y="1372" on="1"/>
        <pt x="604" y="221" on="1"/>
        <pt x="604" y="87" on="0"/>
        <pt x="543" y="-114" on="0"/>
        <pt x="455" y="-222" on="0"/>
        <pt x="336" y="-289" on="0"/>
        <pt x="243" y="-307" on="0"/>
        <pt x="195" y="-307" on="1"/>
        <pt x="88" y="-307" on="0"/>
        <pt x="-59" y="-205" on="0"/>
      </contour>
    </TTGlyph>
    <TTGlyph name="K" xMin="73" yMin="0" xMax="1408" yMax="1427">
      <contour>
        <pt x="73" y="0" on="1"/>
        <pt x="73" y="45" on="1"/>
        <pt x="227" y="55" on="1"/>
        <pt x="227" y="1372" on="1"/>
        <pt x="73" y="1382" on="1"/>
        <pt x="73" y="1427" on="1"/>
        <pt x="637" y="1427" on="1"/>
        <pt x="637" y="1382" on="1"/>
        <pt x="483" y="1372" on="1"/>
        <pt x="483" y="764" on="1"/>
        <pt x="485" y="764" on="1"/>
        <pt x="1052" y="1372" on="1"/>
        <pt x="923" y="1382" on="1"/>
        <pt x="923" y="1427" on="1"/>
        <pt x="1247" y="1427" on="1"/>
        <pt x="1247" y="1382" on="1"/>
        <pt x="1130" y="1372" on="1"/>
        <pt x="665" y="881" on="1"/>
        <pt x="1300" y="55" on="1"/>
        <pt x="1408" y="45" on="1"/>
        <pt x="1408" y="0" on="1"/>
        <pt x="837" y="0" on="1"/>
        <pt x="837" y="45" on="1"/>
        <pt x="966" y="55" on="1"/>
        <pt x="485" y="712" on="1"/>
        <pt x="483" y="712" on="1"/>
        <pt x="483" y="55" on="1"/>
        <pt x="637" y="45" on="1"/>
        <pt x="637" y="0" on="1"/>
      </contour>
    </TTGlyph>
    <TTGlyph name="L" xMin="73" yMin="0" xMax="1120" yMax="1427">
      <contour>
        <pt x="73" y="0" on="1"/>
        <pt x="73" y="45" on="1"/>
        <pt x="227" y="55" on="1"/>
        <pt x="227" y="1372" on="1"/>
        <pt x="73" y="1382" on="1"/>
        <pt x="73" y="1427" on="1"/>
        <pt x="637" y="1427" on="1"/>
        <pt x="637" y="1382" on="1"/>
        <pt x="483" y="1372" on="1"/>
        <pt x="483" y="65" on="1"/>
        <pt x="646" y="54" on="0"/>
        <pt x="706" y="54" on="1"/>
        <pt x="761" y="54" on="0"/>
        <pt x="844" y="60" on="0"/>
        <pt x="913" y="80" on="0"/>
        <pt x="960" y="102" on="0"/>
        <pt x="1002" y="149" on="0"/>
        <pt x="1028" y="194" on="0"/>
        <pt x="1070" y="325" on="0"/>
        <pt x="1086" y="408" on="1"/>
        <pt x="1120" y="408" on="1"/>
        <pt x="1120" y="0" on="1"/>
      </contour>
    </TTGlyph>
    <TTGlyph name="M" xMin="73" yMin="-20" xMax="1722" yMax="1427">
      <contour>
        <pt x="73" y="0" on="1"/>
        <pt x="73" y="45" on="1"/>
        <pt x="227" y="55" on="1"/>
        <pt x="227" y="1372" on="1"/>
        <pt x="73" y="1382" on="1"/>
        <pt x="73" y="1427" on="1"/>
        <pt x="501" y="1427" on="1"/>
        <pt x="918" y="363" on="1"/>
        <pt x="920" y="363" on="1"/>
        <pt x="1312" y="1427" on="1"/>
        <pt x="1722" y="1427" on="1"/>
        <pt x="1722" y="1382" on="1"/>
        <pt x="1568" y="1372" on="1"/>
        <pt x="1568" y="55" on="1"/>
        <pt x="1722" y="45" on="1"/>
        <pt x="1722" y="0" on="1"/>
        <pt x="1158" y="0" on="1"/>
        <pt x="1158" y="45" on="1"/>
        <pt x="1312" y="55" on="1"/>
        <pt x="1314" y="1278" on="1"/>
        <pt x="1312" y="1278" on="1"/>
        <pt x="837" y="-20" on="1"/>
        <pt x="800" y="-20" on="1"/>
        <pt x="272" y="1325" on="1"/>
        <pt x="270" y="1325" on="1"/>
        <pt x="285" y="55" on="1"/>
        <pt x="436" y="45" on="1"/>
        <pt x="436" y="0" on="1"/>
      </contour>
    </TTGlyph>
    <TTGlyph name="N" xMin="69" yMin="-20" xMax="1346" yMax="1427">
      <contour>
        <pt x="69" y="1382" on="1"/>
        <pt x="69" y="1427" on="1"/>
        <pt x="283" y="1427" on="1"/>
        <pt x="1141" y="387" on="1"/>
        <pt x="1143" y="387" on="1"/>
        <pt x="1129" y="1372" on="1"/>
        <pt x="976" y="1382" on="1"/>
        <pt x="976" y="1427" on="1"/>
        <pt x="1346" y="1427" on="1"/>
        <pt x="1346" y="1382" on="1"/>
        <pt x="1192" y="1372" on="1"/>
        <pt x="1203" y="-20" on="1"/>
        <pt x="1142" y="-20" on="1"/>
        <pt x="284" y="1023" on="1"/>
        <pt x="282" y="1023" on="1"/>
        <pt x="296" y="55" on="1"/>
        <pt x="449" y="45" on="1"/>
        <pt x="449" y="0" on="1"/>
        <pt x="79" y="0" on="1"/>
        <pt x="79" y="45" on="1"/>
        <pt x="233" y="55" on="1"/>
        <pt x="222" y="1372" on="1"/>
      </contour>
    </TTGlyph>
    <TTGlyph name="Ntilde" xMin="69" yMin="-20" xMax="1346" yMax="1834">
      <component glyphName="N" x="0" y="0" flags="0x204"/>
      <component glyphName="tilde.case" x="291" y="-43" flags="0x4"/>
    </TTGlyph>
    <TTGlyph name="O" xMin="96" yMin="-35" xMax="1345" yMax="1462">
      <contour>
        <pt x="96" y="709" on="1"/>
        <pt x="96" y="915" on="0"/>
        <pt x="244" y="1255" on="0"/>
        <pt x="531" y="1462" on="0"/>
        <pt x="718" y="1462" on="1"/>
        <pt x="1000" y="1462" on="0"/>
        <pt x="1345" y="1064" on="0"/>
        <pt x="1345" y="741" on="1"/>
        <pt x="1345" y="623" on="0"/>
        <pt x="1298" y="401" on="0"/>
        <pt x="1198" y="202" on="0"/>
        <pt x="1055" y="53" on="0"/>
        <pt x="847" y="-35" on="0"/>
        <pt x="724" y="-35" on="1"/>
        <pt x="431" y="-35" on="0"/>
        <pt x="96" y="373" on="0"/>
      </contour>
      <contour>
        <pt x="364" y="731" on="1"/>
        <pt x="364" y="534" on="0"/>
        <pt x="442" y="217" on="0"/>
        <pt x="605" y="20" on="0"/>
        <pt x="718" y="20" on="1"/>
        <pt x="886" y="20" on="0"/>
        <pt x="1077" y="410" on="0"/>
        <pt x="1077" y="733" on="1"/>
        <pt x="1077" y="1069" on="0"/>
        <pt x="890" y="1407" on="0"/>
        <pt x="724" y="1407" on="1"/>
        <pt x="666" y="1407" on="0"/>
        <pt x="561" y="1359" on="0"/>
        <pt x="469" y="1253" on="0"/>
        <pt x="403" y="1098" on="0"/>
        <pt x="364" y="870" on="0"/>
      </contour>
    </TTGlyph>
    <TTGlyph name="OE" xMin="97" yMin="-35" xMax="1904" yMax="1462">
      <contour>
        <pt x="97" y="689" on="1"/>
        <pt x="97" y="795" on="0"/>
        <pt x="141" y="1006" on="0"/>
        <pt x="241" y="1211" on="0"/>
        <pt x="386" y="1366" on="0"/>
        <pt x="606" y="1462" on="0"/>
        <pt x="740" y="1462" on="1"/>
        <pt x="838" y="1462" on="0"/>
        <pt x="1029" y="1427" on="1"/>
        <pt x="1873" y="1427" on="1"/>
        <pt x="1873" y="1020" on="1"/>
        <pt x="1818" y="1020" on="1"/>
        <pt x="1811" y="1086" on="0"/>
        <pt x="1788" y="1184" on="0"/>
        <pt x="1742" y="1278" on="0"/>
        <pt x="1675" y="1337" on="0"/>
        <pt x="1570" y="1372" on="0"/>
        <pt x="1501" y="1372" on="1"/>
        <pt x="1413" y="1372" on="0"/>
        <pt x="1285" y="1362" on="1"/>
        <pt x="1285" y="768" on="1"/>
        <pt x="1316" y="765" on="0"/>
        <pt x="1397" y="765" on="1"/>
        <pt x="1502" y="765" on="0"/>
        <pt x="1592" y="868" on="0"/>
        <pt x="1592" y="1004" on="1"/>
        <pt x="1647" y="1004" on="1"/>
        <pt x="1647" y="467" on="1"/>
        <pt x="1592" y="467" on="1"/>
        <pt x="1592" y="603" on="0"/>
        <pt x="1501" y="710" on="0"/>
        <pt x="1397" y="710" on="1"/>
        <pt x="1317" y="710" on="0"/>
        <pt x="1285" y="707" on="1"/>
        <pt x="1285" y="65" on="1"/>
        <pt x="1413" y="55" on="0"/>
        <pt x="1542" y="55" on="1"/>
        <pt x="1628" y="55" on="0"/>
        <pt x="1751" y="106" on="0"/>
        <pt x="1824" y="206" on="0"/>
        <pt x="1863" y="326" on="0"/>
        <pt x="1872" y="408" on="1"/>
        <pt x="1904" y="408" on="1"/>
        <pt x="1904" y="0" on="1"/>
        <pt x="1029" y="0" on="1"/>
        <pt x="908" y="-35" on="0"/>
        <pt x="762" y="-35" on="1"/>
        <pt x="610" y="-35" on="0"/>
        <pt x="375" y="47" on="0"/>
        <pt x="228" y="181" on="0"/>
        <pt x="134" y="372" on="0"/>
        <pt x="97" y="573" on="0"/>
      </contour>
      <contour>
        <pt x="363" y="716" on="1"/>
        <pt x="363" y="401" on="0"/>
        <pt x="595" y="27" on="0"/>
        <pt x="810" y="27" on="1"/>
        <pt x="880" y="27" on="0"/>
        <pt x="972" y="42" on="0"/>
        <pt x="1029" y="64" on="1"/>
        <pt x="1029" y="1358" on="1"/>
        <pt x="952" y="1398" on="0"/>
        <pt x="804" y="1398" on="1"/>
        <pt x="664" y="1398" on="0"/>
        <pt x="462" y="1219" on="0"/>
        <pt x="363" y="914" on="0"/>
      </contour>
    </TTGlyph>
    <TTGlyph name="Oacute" xMin="96" yMin="-35" xMax="1345" yMax="1800">
      <component glyphName="O" x="0" y="0" flags="0x204"/>
      <component glyphName="acute.case" x="528" y="-43" flags="0x4"/>
    </TTGlyph>
    <TTGlyph name="Ocircumflex" xMin="96" yMin="-35" xMax="1345" yMax="1855">
      <component glyphName="O" x="0" y="0" flags="0x204"/>
      <component glyphName="circumflex.case" x="306" y="-43" flags="0x4"/>
    </TTGlyph>
    <TTGlyph name="Odieresis" xMin="96" yMin="-35" xMax="1345" yMax="1842">
      <component glyphName="O" x="0" y="0" flags="0x204"/>
      <component glyphName="dieresis.case" x="331" y="-43" flags="0x4"/>
    </TTGlyph>
    <TTGlyph name="Ograve" xMin="96" yMin="-35" xMax="1345" yMax="1805">
      <component glyphName="O" x="0" y="0" flags="0x204"/>
      <component glyphName="grave.case" x="361" y="-43" flags="0x4"/>
    </TTGlyph>
    <TTGlyph name="Oslash" xMin="96" yMin="-57" xMax="1380" yMax="1462">
      <contour>
        <pt x="96" y="-57" on="1"/>
        <pt x="265" y="166" on="1"/>
        <pt x="96" y="366" on="0"/>
        <pt x="96" y="709" on="1"/>
        <pt x="96" y="808" on="0"/>
        <pt x="133" y="996" on="0"/>
        <pt x="205" y="1163" on="0"/>
        <pt x="311" y="1304" on="0"/>
        <pt x="449" y="1405" on="0"/>
        <pt x="618" y="1462" on="0"/>
        <pt x="716" y="1462" on="1"/>
        <pt x="972" y="1462" on="0"/>
        <pt x="1140" y="1294" on="1"/>
        <pt x="1257" y="1448" on="1"/>
        <pt x="1380" y="1448" on="1"/>
        <pt x="1205" y="1217" on="1"/>
        <pt x="1341" y="1026" on="0"/>
        <pt x="1341" y="741" on="1"/>
        <pt x="1341" y="648" on="0"/>
        <pt x="1310" y="462" on="0"/>
        <pt x="1244" y="289" on="0"/>
        <pt x="1144" y="139" on="0"/>
        <pt x="1007" y="29" on="0"/>
        <pt x="830" y="-35" on="0"/>
        <pt x="722" y="-35" on="1"/>
        <pt x="492" y="-35" on="0"/>
        <pt x="335" y="96" on="1"/>
        <pt x="219" y="-57" on="1"/>
      </contour>
      <contour>
        <pt x="347" y="731" on="1"/>
        <pt x="347" y="496" on="0"/>
        <pt x="398" y="328" on="1"/>
        <pt x="1031" y="1164" on="1"/>
        <pt x="942" y="1407" on="0"/>
        <pt x="722" y="1407" on="1"/>
        <pt x="649" y="1407" on="0"/>
        <pt x="513" y="1341" on="0"/>
        <pt x="409" y="1184" on="0"/>
        <pt x="347" y="924" on="0"/>
      </contour>
      <contour>
        <pt x="439" y="221" on="1"/>
        <pt x="536" y="20" on="0"/>
        <pt x="716" y="20" on="1"/>
        <pt x="806" y="20" on="0"/>
        <pt x="945" y="117" on="0"/>
        <pt x="1040" y="300" on="0"/>
        <pt x="1090" y="565" on="0"/>
        <pt x="1090" y="733" on="1"/>
        <pt x="1090" y="823" on="0"/>
        <pt x="1077" y="978" on="0"/>
        <pt x="1064" y="1044" on="1"/>
      </contour>
    </TTGlyph>
    <TTGlyph name="Otilde" xMin="96" yMin="-35" xMax="1345" yMax="1834">
      <component glyphName="O" x="0" y="0" flags="0x204"/>
      <component glyphName="tilde.case" x="305" y="-43" flags="0x4"/>
    </TTGlyph>
    <TTGlyph name="P" xMin="73" yMin="0" xMax="1148" yMax="1427">
      <contour>
        <pt x="73" y="0" on="1"/>
        <pt x="73" y="45" on="1"/>
        <pt x="227" y="55" on="1"/>
        <pt x="227" y="1372" on="1"/>
        <pt x="73" y="1382" on="1"/>
        <pt x="73" y="1427" on="1"/>
        <pt x="616" y="1427" on="1"/>
        <pt x="726" y="1427" on="0"/>
        <pt x="913" y="1380" on="0"/>
        <pt x="1063" y="1285" on="0"/>
        <pt x="1148" y="1126" on="0"/>
        <pt x="1148" y="1022" on="1"/>
        <pt x="1148" y="926" on="0"/>
        <pt x="1083" y="772" on="0"/>
        <pt x="973" y="668" on="0"/>
        <pt x="818" y="599" on="0"/>
        <pt x="645" y="568" on="0"/>
        <pt x="548" y="568" on="1"/>
        <pt x="527" y="568" on="0"/>
        <pt x="483" y="570" on="1"/>
        <pt x="483" y="55" on="1"/>
        <pt x="637" y="45" on="1"/>
        <pt x="637" y="0" on="1"/>
      </contour>
      <contour>
        <pt x="483" y="627" on="1"/>
        <pt x="518" y="624" on="0"/>
        <pt x="554" y="624" on="1"/>
        <pt x="882" y="624" on="0"/>
        <pt x="882" y="1024" on="1"/>
        <pt x="882" y="1121" on="0"/>
        <pt x="838" y="1258" on="0"/>
        <pt x="755" y="1333" on="0"/>
        <pt x="654" y="1366" on="0"/>
        <pt x="589" y="1366" on="1"/>
        <pt x="540" y="1366" on="0"/>
        <pt x="483" y="1358" on="1"/>
      </contour>
    </TTGlyph>
    <TTGlyph name="Q" xMin="96" yMin="-451" xMax="1393" yMax="1462">
      <contour>
        <pt x="96" y="709" on="1"/>
        <pt x="96" y="915" on="0"/>
        <pt x="244" y="1255" on="0"/>
        <pt x="531" y="1462" on="0"/>
        <pt x="718" y="1462" on="1"/>
        <pt x="1000" y="1462" on="0"/>
        <pt x="1345" y="1064" on="0"/>
        <pt x="1345" y="741" on="1"/>
        <pt x="1345" y="623" on="0"/>
        <pt x="1298" y="401" on="0"/>
        <pt x="1198" y="202" on="0"/>
        <pt x="1055" y="53" on="0"/>
        <pt x="847" y="-35" on="0"/>
        <pt x="724" y="-35" on="1"/>
        <pt x="431" y="-35" on="0"/>
        <pt x="96" y="373" on="0"/>
      </contour>
      <contour>
        <pt x="364" y="731" on="1"/>
        <pt x="364" y="534" on="0"/>
        <pt x="442" y="217" on="0"/>
        <pt x="605" y="20" on="0"/>
        <pt x="718" y="20" on="1"/>
        <pt x="886" y="20" on="0"/>
        <pt x="1077" y="410" on="0"/>
        <pt x="1077" y="733" on="1"/>
        <pt x="1077" y="1069" on="0"/>
        <pt x="890" y="1407" on="0"/>
        <pt x="724" y="1407" on="1"/>
        <pt x="666" y="1407" on="0"/>
        <pt x="561" y="1359" on="0"/>
        <pt x="469" y="1253" on="0"/>
        <pt x="403" y="1098" on="0"/>
        <pt x="364" y="870" on="0"/>
      </contour>
      <contour>
        <pt x="404" y="-173" on="1"/>
        <pt x="526" y="-73" on="0"/>
        <pt x="656" y="-73" on="1"/>
        <pt x="719" y="-73" on="0"/>
        <pt x="837" y="-113" on="0"/>
        <pt x="877" y="-138" on="1"/>
        <pt x="1060" y="-256" on="0"/>
        <pt x="1114" y="-286" on="1"/>
        <pt x="1183" y="-325" on="0"/>
        <pt x="1234" y="-325" on="1"/>
        <pt x="1284" y="-325" on="0"/>
        <pt x="1334" y="-265" on="0"/>
        <pt x="1334" y="-226" on="1"/>
        <pt x="1334" y="-224" on="0"/>
        <pt x="1333" y="-214" on="0"/>
        <pt x="1333" y="-212" on="1"/>
        <pt x="1330" y="-213" on="1"/>
        <pt x="1309" y="-249" on="0"/>
        <pt x="1264" y="-249" on="1"/>
        <pt x="1216" y="-249" on="0"/>
        <pt x="1158" y="-190" on="0"/>
        <pt x="1158" y="-146" on="1"/>
        <pt x="1158" y="-98" on="0"/>
        <pt x="1219" y="-39" on="0"/>
        <pt x="1265" y="-39" on="1"/>
        <pt x="1326" y="-39" on="0"/>
        <pt x="1393" y="-132" on="0"/>
        <pt x="1393" y="-200" on="1"/>
        <pt x="1393" y="-239" on="0"/>
        <pt x="1358" y="-325" on="0"/>
        <pt x="1294" y="-401" on="0"/>
        <pt x="1189" y="-451" on="0"/>
        <pt x="1127" y="-451" on="1"/>
        <pt x="1084" y="-451" on="0"/>
        <pt x="1030" y="-442" on="0"/>
        <pt x="921" y="-396" on="0"/>
        <pt x="841" y="-349" on="1"/>
        <pt x="662" y="-237" on="1"/>
        <pt x="632" y="-219" on="0"/>
        <pt x="559" y="-189" on="0"/>
        <pt x="532" y="-189" on="1"/>
        <pt x="472" y="-189" on="0"/>
        <pt x="424" y="-213" on="1"/>
      </contour>
    </TTGlyph>
    <TTGlyph name="R" xMin="73" yMin="0" xMax="1325" yMax="1427">
      <contour>
        <pt x="73" y="0" on="1"/>
        <pt x="73" y="45" on="1"/>
        <pt x="227" y="55" on="1"/>
        <pt x="227" y="1372" on="1"/>
        <pt x="73" y="1382" on="1"/>
        <pt x="73" y="1427" on="1"/>
        <pt x="606" y="1427" on="1"/>
        <pt x="717" y="1427" on="0"/>
        <pt x="896" y="1389" on="0"/>
        <pt x="1037" y="1307" on="0"/>
        <pt x="1114" y="1168" on="0"/>
        <pt x="1114" y="1073" on="1"/>
        <pt x="1114" y="902" on="0"/>
        <pt x="884" y="711" on="0"/>
        <pt x="688" y="683" on="1"/>
        <pt x="688" y="681" on="1"/>
        <pt x="772" y="680" on="0"/>
        <pt x="895" y="628" on="0"/>
        <pt x="968" y="547" on="0"/>
        <pt x="1001" y="483" on="1"/>
        <pt x="1023" y="439" on="0"/>
        <pt x="1104" y="258" on="0"/>
        <pt x="1144" y="188" on="1"/>
        <pt x="1176" y="131" on="0"/>
        <pt x="1246" y="69" on="0"/>
        <pt x="1294" y="55" on="0"/>
        <pt x="1325" y="55" on="1"/>
        <pt x="1325" y="0" on="1"/>
        <pt x="1159" y="0" on="1"/>
        <pt x="1083" y="0" on="0"/>
        <pt x="995" y="19" on="0"/>
        <pt x="908" y="91" on="0"/>
        <pt x="840" y="218" on="0"/>
        <pt x="758" y="420" on="1"/>
        <pt x="746" y="450" on="0"/>
        <pt x="701" y="545" on="0"/>
        <pt x="668" y="594" on="0"/>
        <pt x="623" y="648" on="0"/>
        <pt x="576" y="671" on="0"/>
        <pt x="550" y="671" on="1"/>
        <pt x="506" y="671" on="0"/>
        <pt x="483" y="670" on="1"/>
        <pt x="483" y="55" on="1"/>
        <pt x="637" y="45" on="1"/>
        <pt x="637" y="0" on="1"/>
      </contour>
      <contour>
        <pt x="483" y="727" on="1"/>
        <pt x="494" y="726" on="0"/>
        <pt x="524" y="726" on="1"/>
        <pt x="702" y="726" on="0"/>
        <pt x="847" y="899" on="0"/>
        <pt x="847" y="1071" on="1"/>
        <pt x="847" y="1157" on="0"/>
        <pt x="806" y="1277" on="0"/>
        <pt x="730" y="1343" on="0"/>
        <pt x="638" y="1371" on="0"/>
        <pt x="579" y="1371" on="1"/>
        <pt x="540" y="1371" on="0"/>
        <pt x="483" y="1363" on="1"/>
      </contour>
    </TTGlyph>
    <TTGlyph name="S" xMin="104" yMin="-35" xMax="1044" yMax="1462">
      <contour>
        <pt x="575" y="1407" on="1"/>
        <pt x="503" y="1407" on="0"/>
        <pt x="394" y="1373" on="0"/>
        <pt x="320" y="1311" on="0"/>
        <pt x="283" y="1224" on="0"/>
        <pt x="283" y="1172" on="1"/>
        <pt x="283" y="1135" on="0"/>
        <pt x="303" y="1063" on="0"/>
        <pt x="369" y="988" on="0"/>
        <pt x="494" y="908" on="0"/>
        <pt x="600" y="862" on="1"/>
        <pt x="722" y="806" on="0"/>
        <pt x="891" y="708" on="0"/>
        <pt x="997" y="598" on="0"/>
        <pt x="1044" y="461" on="0"/>
        <pt x="1044" y="366" on="1"/>
        <pt x="1044" y="294" on="0"/>
        <pt x="986" y="150" on="0"/>
        <pt x="869" y="36" on="0"/>
        <pt x="692" y="-35" on="0"/>
        <pt x="573" y="-35" on="1"/>
        <pt x="441" y="-35" on="0"/>
        <pt x="261" y="14" on="0"/>
        <pt x="152" y="92" on="0"/>
        <pt x="104" y="191" on="0"/>
        <pt x="104" y="241" on="1"/>
        <pt x="104" y="274" on="0"/>
        <pt x="124" y="331" on="0"/>
        <pt x="163" y="374" on="0"/>
        <pt x="220" y="399" on="0"/>
        <pt x="256" y="399" on="1"/>
        <pt x="289" y="399" on="0"/>
        <pt x="343" y="376" on="0"/>
        <pt x="380" y="337" on="0"/>
        <pt x="401" y="284" on="0"/>
        <pt x="401" y="253" on="1"/>
        <pt x="401" y="182" on="0"/>
        <pt x="319" y="110" on="0"/>
        <pt x="254" y="110" on="1"/>
        <pt x="254" y="106" on="1"/>
        <pt x="261" y="98" on="0"/>
        <pt x="302" y="70" on="0"/>
        <pt x="375" y="42" on="0"/>
        <pt x="482" y="21" on="0"/>
        <pt x="555" y="21" on="1"/>
        <pt x="615" y="21" on="0"/>
        <pt x="734" y="53" on="0"/>
        <pt x="827" y="113" on="0"/>
        <pt x="885" y="199" on="0"/>
        <pt x="885" y="253" on="1"/>
        <pt x="885" y="299" on="0"/>
        <pt x="851" y="379" on="0"/>
        <pt x="757" y="462" on="0"/>
        <pt x="590" y="557" on="0"/>
        <pt x="456" y="617" on="1"/>
        <pt x="357" y="659" on="0"/>
        <pt x="230" y="760" on="0"/>
        <pt x="157" y="873" on="0"/>
        <pt x="129" y="996" on="0"/>
        <pt x="129" y="1061" on="1"/>
        <pt x="129" y="1143" on="0"/>
        <pt x="189" y="1289" on="0"/>
        <pt x="303" y="1398" on="0"/>
        <pt x="470" y="1462" on="0"/>
        <pt x="577" y="1462" on="1"/>
        <pt x="680" y="1462" on="0"/>
        <pt x="833" y="1414" on="0"/>
        <pt x="933" y="1335" on="0"/>
        <pt x="983" y="1230" on="0"/>
        <pt x="983" y="1173" on="1"/>
        <pt x="983" y="1143" on="0"/>
        <pt x="963" y="1088" on="0"/>
        <pt x="925" y="1047" on="0"/>
        <pt x="869" y="1022" on="0"/>
        <pt x="833" y="1022" on="1"/>
        <pt x="800" y="1022" on="0"/>
        <pt x="746" y="1044" on="0"/>
        <pt x="707" y="1082" on="0"/>
        <pt x="686" y="1134" on="0"/>
        <pt x="686" y="1165" on="1"/>
        <pt x="686" y="1200" on="0"/>
        <pt x="710" y="1255" on="0"/>
        <pt x="751" y="1292" on="0"/>
        <pt x="807" y="1311" on="0"/>
        <pt x="839" y="1311" on="1"/>
        <pt x="839" y="1315" on="1"/>
        <pt x="833" y="1322" on="0"/>
        <pt x="797" y="1353" on="0"/>
        <pt x="733" y="1384" on="0"/>
        <pt x="639" y="1407" on="0"/>
      </contour>
    </TTGlyph>
    <TTGlyph name="T" xMin="60" yMin="0" xMax="1172" yMax="1427">
      <contour>
        <pt x="60" y="937" on="1"/>
        <pt x="70" y="1427" on="1"/>
        <pt x="1162" y="1427" on="1"/>
        <pt x="1172" y="938" on="1"/>
        <pt x="1117" y="938" on="1"/>
        <pt x="1103" y="1015" on="0"/>
        <pt x="1082" y="1109" on="0"/>
        <pt x="1052" y="1213" on="0"/>
        <pt x="1020" y="1271" on="0"/>
        <pt x="974" y="1329" on="0"/>
        <pt x="915" y="1356" on="0"/>
        <pt x="837" y="1373" on="0"/>
        <pt x="786" y="1373" on="1"/>
        <pt x="782" y="1373" on="0"/>
        <pt x="757" y="1372" on="0"/>
        <pt x="747" y="1372" on="1"/>
        <pt x="747" y="55" on="1"/>
        <pt x="902" y="45" on="1"/>
        <pt x="902" y="0" on="1"/>
        <pt x="338" y="0" on="1"/>
        <pt x="338" y="45" on="1"/>
        <pt x="491" y="55" on="1"/>
        <pt x="485" y="1371" on="1"/>
        <pt x="475" y="1371" on="0"/>
        <pt x="450" y="1372" on="0"/>
        <pt x="446" y="1372" on="1"/>
        <pt x="401" y="1372" on="0"/>
        <pt x="331" y="1362" on="0"/>
        <pt x="274" y="1334" on="0"/>
        <pt x="232" y="1302" on="0"/>
        <pt x="196" y="1242" on="0"/>
        <pt x="171" y="1186" on="0"/>
        <pt x="144" y="1089" on="0"/>
        <pt x="115" y="937" on="1"/>
      </contour>
    </TTGlyph>
    <TTGlyph name="Thorn" xMin="73" yMin="0" xMax="1147" yMax="1427">
      <contour>
        <pt x="73" y="0" on="1"/>
        <pt x="73" y="45" on="1"/>
        <pt x="227" y="55" on="1"/>
        <pt x="227" y="1372" on="1"/>
        <pt x="73" y="1382" on="1"/>
        <pt x="73" y="1427" on="1"/>
        <pt x="637" y="1427" on="1"/>
        <pt x="637" y="1382" on="1"/>
        <pt x="483" y="1372" on="1"/>
        <pt x="483" y="1160" on="1"/>
        <pt x="615" y="1160" on="1"/>
        <pt x="723" y="1160" on="0"/>
        <pt x="917" y="1113" on="0"/>
        <pt x="1062" y="1014" on="0"/>
        <pt x="1147" y="861" on="0"/>
        <pt x="1147" y="755" on="1"/>
        <pt x="1147" y="632" on="0"/>
        <pt x="1048" y="460" on="0"/>
        <pt x="883" y="351" on="0"/>
        <pt x="665" y="302" on="0"/>
        <pt x="547" y="302" on="1"/>
        <pt x="537" y="302" on="0"/>
        <pt x="505" y="303" on="0"/>
        <pt x="483" y="304" on="1"/>
        <pt x="483" y="55" on="1"/>
        <pt x="637" y="45" on="1"/>
        <pt x="637" y="0" on="1"/>
      </contour>
      <contour>
        <pt x="483" y="360" on="1"/>
        <pt x="517" y="357" on="0"/>
        <pt x="553" y="357" on="1"/>
        <pt x="881" y="357" on="0"/>
        <pt x="881" y="757" on="1"/>
        <pt x="881" y="855" on="0"/>
        <pt x="837" y="986" on="0"/>
        <pt x="759" y="1066" on="0"/>
        <pt x="651" y="1099" on="0"/>
        <pt x="588" y="1099" on="1"/>
        <pt x="563" y="1099" on="0"/>
        <pt x="511" y="1095" on="0"/>
        <pt x="483" y="1091" on="1"/>
      </contour>
    </TTGlyph>
    <TTGlyph name="U" xMin="49" yMin="-35" xMax="1382" yMax="1427">
      <contour>
        <pt x="49" y="1382" on="1"/>
        <pt x="49" y="1427" on="1"/>
        <pt x="613" y="1427" on="1"/>
        <pt x="613" y="1382" on="1"/>
        <pt x="458" y="1372" on="1"/>
        <pt x="458" y="438" on="1"/>
        <pt x="458" y="397" on="0"/>
        <pt x="462" y="333" on="0"/>
        <pt x="477" y="244" on="0"/>
        <pt x="505" y="178" on="0"/>
        <pt x="557" y="108" on="0"/>
        <pt x="629" y="63" on="0"/>
        <pt x="738" y="34" on="0"/>
        <pt x="806" y="34" on="1"/>
        <pt x="888" y="34" on="0"/>
        <pt x="1015" y="85" on="0"/>
        <pt x="1094" y="167" on="0"/>
        <pt x="1145" y="285" on="0"/>
        <pt x="1165" y="407" on="0"/>
        <pt x="1165" y="478" on="1"/>
        <pt x="1165" y="1372" on="1"/>
        <pt x="1012" y="1382" on="1"/>
        <pt x="1012" y="1427" on="1"/>
        <pt x="1382" y="1427" on="1"/>
        <pt x="1382" y="1382" on="1"/>
        <pt x="1229" y="1372" on="1"/>
        <pt x="1229" y="456" on="1"/>
        <pt x="1229" y="384" on="0"/>
        <pt x="1206" y="255" on="0"/>
        <pt x="1144" y="121" on="0"/>
        <pt x="1046" y="26" on="0"/>
        <pt x="881" y="-35" on="0"/>
        <pt x="774" y="-35" on="1"/>
        <pt x="663" y="-35" on="0"/>
        <pt x="488" y="-3" on="0"/>
        <pt x="369" y="49" on="0"/>
        <pt x="284" y="131" on="0"/>
        <pt x="236" y="213" on="0"/>
        <pt x="209" y="326" on="0"/>
        <pt x="202" y="418" on="0"/>
        <pt x="202" y="479" on="1"/>
        <pt x="202" y="1372" on="1"/>
      </contour>
    </TTGlyph>
    <TTGlyph name="Uacute" xMin="49" yMin="-35" xMax="1382" yMax="1800">
      <component glyphName="U" x="0" y="0" flags="0x204"/>
      <component glyphName="acute.case" x="600" y="-43" flags="0x4"/>
    </TTGlyph>
    <TTGlyph name="Ucircumflex" xMin="49" yMin="-35" xMax="1382" yMax="1855">
      <component glyphName="U" x="0" y="0" flags="0x204"/>
      <component glyphName="circumflex.case" x="388" y="-43" flags="0x4"/>
    </TTGlyph>
    <TTGlyph name="Udieresis" xMin="49" yMin="-35" xMax="1382" yMax="1841">
      <component glyphName="U" x="0" y="0" flags="0x204"/>
      <component glyphName="dieresis.case" x="413" y="-44" flags="0x4"/>
    </TTGlyph>
    <TTGlyph name="Ugrave" xMin="49" yMin="-35" xMax="1382" yMax="1805">
      <component glyphName="U" x="0" y="0" flags="0x204"/>
      <component glyphName="grave.case" x="433" y="-43" flags="0x4"/>
    </TTGlyph>
    <TTGlyph name="V" xMin="-39" yMin="-20" xMax="1314" yMax="1427">
      <contour>
        <pt x="-39" y="1382" on="1"/>
        <pt x="-39" y="1427" on="1"/>
        <pt x="516" y="1427" on="1"/>
        <pt x="516" y="1382" on="1"/>
        <pt x="380" y="1372" on="1"/>
        <pt x="778" y="358" on="1"/>
        <pt x="782" y="358" on="1"/>
        <pt x="1130" y="1372" on="1"/>
        <pt x="995" y="1382" on="1"/>
        <pt x="995" y="1427" on="1"/>
        <pt x="1314" y="1427" on="1"/>
        <pt x="1314" y="1382" on="1"/>
        <pt x="1193" y="1372" on="1"/>
        <pt x="718" y="-20" on="1"/>
        <pt x="673" y="-20" on="1"/>
        <pt x="112" y="1372" on="1"/>
      </contour>
    </TTGlyph>
    <TTGlyph name="W" xMin="-27" yMin="-20" xMax="1848" yMax="1448">
      <contour>
        <pt x="-27" y="1382" on="1"/>
        <pt x="-27" y="1427" on="1"/>
        <pt x="528" y="1427" on="1"/>
        <pt x="528" y="1382" on="1"/>
        <pt x="392" y="1372" on="1"/>
        <pt x="658" y="373" on="1"/>
        <pt x="662" y="373" on="1"/>
        <pt x="971" y="1448" on="1"/>
        <pt x="1016" y="1448" on="1"/>
        <pt x="1376" y="377" on="1"/>
        <pt x="1380" y="377" on="1"/>
        <pt x="1666" y="1372" on="1"/>
        <pt x="1531" y="1382" on="1"/>
        <pt x="1531" y="1427" on="1"/>
        <pt x="1848" y="1427" on="1"/>
        <pt x="1848" y="1382" on="1"/>
        <pt x="1727" y="1372" on="1"/>
        <pt x="1321" y="-20" on="1"/>
        <pt x="1276" y="-20" on="1"/>
        <pt x="908" y="1023" on="1"/>
        <pt x="906" y="1023" on="1"/>
        <pt x="600" y="-20" on="1"/>
        <pt x="555" y="-20" on="1"/>
        <pt x="124" y="1372" on="1"/>
      </contour>
    </TTGlyph>
    <TTGlyph name="X" xMin="-11" yMin="0" xMax="1370" yMax="1427">
      <contour>
        <pt x="-11" y="1382" on="1"/>
        <pt x="-11" y="1427" on="1"/>
        <pt x="549" y="1427" on="1"/>
        <pt x="549" y="1382" on="1"/>
        <pt x="399" y="1372" on="1"/>
        <pt x="713" y="862" on="1"/>
        <pt x="715" y="862" on="1"/>
        <pt x="1022" y="1372" on="1"/>
        <pt x="893" y="1382" on="1"/>
        <pt x="893" y="1427" on="1"/>
        <pt x="1224" y="1427" on="1"/>
        <pt x="1224" y="1382" on="1"/>
        <pt x="1093" y="1372" on="1"/>
        <pt x="752" y="802" on="1"/>
        <pt x="1216" y="55" on="1"/>
        <pt x="1370" y="45" on="1"/>
        <pt x="1370" y="0" on="1"/>
        <pt x="745" y="0" on="1"/>
        <pt x="745" y="45" on="1"/>
        <pt x="919" y="55" on="1"/>
        <pt x="595" y="587" on="1"/>
        <pt x="593" y="587" on="1"/>
        <pt x="274" y="55" on="1"/>
        <pt x="424" y="45" on="1"/>
        <pt x="424" y="0" on="1"/>
        <pt x="69" y="0" on="1"/>
        <pt x="69" y="45" on="1"/>
        <pt x="200" y="55" on="1"/>
        <pt x="556" y="647" on="1"/>
        <pt x="112" y="1372" on="1"/>
      </contour>
    </TTGlyph>
    <TTGlyph name="Y" xMin="-37" yMin="0" xMax="1211" yMax="1427">
      <contour>
        <pt x="-37" y="1382" on="1"/>
        <pt x="-37" y="1427" on="1"/>
        <pt x="550" y="1427" on="1"/>
        <pt x="550" y="1382" on="1"/>
        <pt x="395" y="1372" on="1"/>
        <pt x="732" y="765" on="1"/>
        <pt x="737" y="765" on="1"/>
        <pt x="1019" y="1372" on="1"/>
        <pt x="878" y="1382" on="1"/>
        <pt x="878" y="1427" on="1"/>
        <pt x="1211" y="1427" on="1"/>
        <pt x="1211" y="1382" on="1"/>
        <pt x="1087" y="1372" on="1"/>
        <pt x="775" y="703" on="1"/>
        <pt x="775" y="55" on="1"/>
        <pt x="929" y="45" on="1"/>
        <pt x="929" y="0" on="1"/>
        <pt x="366" y="0" on="1"/>
        <pt x="366" y="45" on="1"/>
        <pt x="519" y="55" on="1"/>
        <pt x="519" y="644" on="1"/>
        <pt x="98" y="1372" on="1"/>
      </contour>
    </TTGlyph>
    <TTGlyph name="Yacute" xMin="-37" yMin="0" xMax="1211" yMax="1800">
      <component glyphName="Y" x="0" y="0" flags="0x204"/>
      <component glyphName="acute.case" x="509" y="-43" flags="0x4"/>
    </TTGlyph>
    <TTGlyph name="Z" xMin="95" yMin="0" xMax="1099" yMax="1427">
      <contour>
        <pt x="95" y="958" on="1"/>
        <pt x="126" y="1427" on="1"/>
        <pt x="1054" y="1427" on="1"/>
        <pt x="1054" y="1374" on="1"/>
        <pt x="363" y="51" on="1"/>
        <pt x="744" y="45" on="1"/>
        <pt x="746" y="45" on="0"/>
        <pt x="748" y="45" on="1"/>
        <pt x="806" y="46" on="0"/>
        <pt x="854" y="72" on="1"/>
        <pt x="903" y="100" on="0"/>
        <pt x="968" y="187" on="0"/>
        <pt x="1017" y="320" on="0"/>
        <pt x="1044" y="449" on="0"/>
        <pt x="1054" y="530" on="1"/>
        <pt x="1099" y="530" on="1"/>
        <pt x="1068" y="0" on="1"/>
        <pt x="98" y="0" on="1"/>
        <pt x="98" y="55" on="1"/>
        <pt x="825" y="1378" on="1"/>
        <pt x="488" y="1372" on="1"/>
        <pt x="330" y="1369" on="0"/>
        <pt x="172" y="1170" on="0"/>
        <pt x="140" y="958" on="1"/>
      </contour>
    </TTGlyph>
    <TTGlyph name="a" xMin="72" yMin="-30" xMax="959" yMax="1034">
      <contour>
        <pt x="72" y="217" on="1"/>
        <pt x="72" y="266" on="0"/>
        <pt x="103" y="357" on="0"/>
        <pt x="173" y="441" on="0"/>
        <pt x="275" y="503" on="0"/>
        <pt x="426" y="540" on="0"/>
        <pt x="518" y="540" on="1"/>
        <pt x="567" y="540" on="0"/>
        <pt x="611" y="536" on="1"/>
        <pt x="611" y="674" on="1"/>
        <pt x="611" y="740" on="0"/>
        <pt x="606" y="822" on="0"/>
        <pt x="586" y="909" on="0"/>
        <pt x="549" y="956" on="0"/>
        <pt x="482" y="987" on="0"/>
        <pt x="434" y="987" on="1"/>
        <pt x="288" y="987" on="0"/>
        <pt x="221" y="872" on="1"/>
        <pt x="221" y="868" on="1"/>
        <pt x="238" y="871" on="0"/>
        <pt x="252" y="871" on="1"/>
        <pt x="304" y="871" on="0"/>
        <pt x="364" y="807" on="0"/>
        <pt x="364" y="747" on="1"/>
        <pt x="364" y="695" on="0"/>
        <pt x="292" y="624" on="0"/>
        <pt x="238" y="624" on="1"/>
        <pt x="179" y="624" on="0"/>
        <pt x="111" y="704" on="0"/>
        <pt x="111" y="758" on="1"/>
        <pt x="111" y="876" on="0"/>
        <pt x="328" y="1034" on="0"/>
        <pt x="469" y="1034" on="1"/>
        <pt x="569" y="1034" on="0"/>
        <pt x="710" y="992" on="0"/>
        <pt x="794" y="923" on="0"/>
        <pt x="841" y="804" on="0"/>
        <pt x="856" y="680" on="0"/>
        <pt x="856" y="590" on="1"/>
        <pt x="856" y="51" on="1"/>
        <pt x="959" y="41" on="1"/>
        <pt x="959" y="0" on="1"/>
        <pt x="641" y="0" on="1"/>
        <pt x="613" y="158" on="1"/>
        <pt x="611" y="158" on="1"/>
        <pt x="562" y="63" on="0"/>
        <pt x="423" y="-30" on="0"/>
        <pt x="324" y="-30" on="1"/>
        <pt x="202" y="-30" on="0"/>
        <pt x="72" y="116" on="0"/>
      </contour>
      <contour>
        <pt x="314" y="238" on="1"/>
        <pt x="314" y="158" on="0"/>
        <pt x="374" y="59" on="0"/>
        <pt x="432" y="59" on="1"/>
        <pt x="500" y="59" on="0"/>
        <pt x="611" y="229" on="0"/>
        <pt x="611" y="352" on="1"/>
        <pt x="611" y="490" on="1"/>
        <pt x="571" y="495" on="0"/>
        <pt x="546" y="495" on="1"/>
        <pt x="494" y="495" on="0"/>
        <pt x="413" y="467" on="0"/>
        <pt x="365" y="419" on="0"/>
        <pt x="333" y="366" on="0"/>
        <pt x="319" y="302" on="0"/>
        <pt x="314" y="260" on="0"/>
      </contour>
    </TTGlyph>
    <TTGlyph name="aacute" xMin="72" yMin="-30" xMax="959" yMax="1569">
      <component glyphName="a" x="0" y="0" flags="0x204"/>
      <component glyphName="acute" x="295" y="0" flags="0x4"/>
    </TTGlyph>
    <TTGlyph name="acircumflex" xMin="72" yMin="-30" xMax="959" yMax="1585">
      <component glyphName="a" x="0" y="0" flags="0x204"/>
      <component glyphName="circumflex" x="136" y="0" flags="0x4"/>
    </TTGlyph>
    <TTGlyph name="acute" xMin="121" yMin="1156" xMax="412" yMax="1569">
      <contour>
        <pt x="121" y="1182" on="1"/>
        <pt x="232" y="1500" on="1"/>
        <pt x="241" y="1530" on="0"/>
        <pt x="291" y="1569" on="0"/>
        <pt x="322" y="1569" on="1"/>
        <pt x="360" y="1569" on="0"/>
        <pt x="412" y="1515" on="0"/>
        <pt x="412" y="1476" on="1"/>
        <pt x="412" y="1428" on="0"/>
        <pt x="381" y="1396" on="1"/>
        <pt x="158" y="1156" on="1"/>
      </contour>
    </TTGlyph>
    <TTGlyph name="acute.case" xMin="75" yMin="1579" xMax="481" yMax="1843">
      <contour>
        <pt x="75" y="1617" on="1"/>
        <pt x="317" y="1808" on="1"/>
        <pt x="361" y="1843" on="0"/>
        <pt x="395" y="1843" on="1"/>
        <pt x="428" y="1843" on="0"/>
        <pt x="481" y="1798" on="0"/>
        <pt x="481" y="1756" on="1"/>
        <pt x="481" y="1721" on="0"/>
        <pt x="427" y="1667" on="0"/>
        <pt x="391" y="1659" on="1"/>
        <pt x="90" y="1579" on="1"/>
      </contour>
    </TTGlyph>
    <TTGlyph name="adieresis" xMin="72" yMin="-30" xMax="959" yMax="1511">
      <component glyphName="a" x="0" y="0" flags="0x204"/>
      <component glyphName="dieresis" x="113" y="0" flags="0x4"/>
    </TTGlyph>
    <TTGlyph name="ae" xMin="74" yMin="-30" xMax="1419" yMax="1034">
      <contour>
        <pt x="74" y="217" on="1"/>
        <pt x="74" y="279" on="0"/>
        <pt x="133" y="396" on="0"/>
        <pt x="250" y="486" on="0"/>
        <pt x="424" y="540" on="0"/>
        <pt x="540" y="540" on="1"/>
        <pt x="565" y="540" on="0"/>
        <pt x="611" y="538" on="0"/>
        <pt x="633" y="536" on="1"/>
        <pt x="633" y="674" on="1"/>
        <pt x="633" y="750" on="0"/>
        <pt x="615" y="866" on="0"/>
        <pt x="571" y="946" on="0"/>
        <pt x="494" y="987" on="0"/>
        <pt x="436" y="987" on="1"/>
        <pt x="393" y="987" on="0"/>
        <pt x="322" y="967" on="0"/>
        <pt x="266" y="935" on="0"/>
        <pt x="225" y="893" on="0"/>
        <pt x="213" y="872" on="1"/>
        <pt x="213" y="868" on="1"/>
        <pt x="229" y="871" on="0"/>
        <pt x="244" y="871" on="1"/>
        <pt x="295" y="871" on="0"/>
        <pt x="356" y="806" on="0"/>
        <pt x="356" y="746" on="1"/>
        <pt x="356" y="720" on="0"/>
        <pt x="337" y="676" on="0"/>
        <pt x="303" y="643" on="0"/>
        <pt x="257" y="624" on="0"/>
        <pt x="230" y="624" on="1"/>
        <pt x="200" y="624" on="0"/>
        <pt x="153" y="646" on="0"/>
        <pt x="120" y="683" on="0"/>
        <pt x="103" y="731" on="0"/>
        <pt x="103" y="758" on="1"/>
        <pt x="103" y="821" on="0"/>
        <pt x="170" y="923" on="0"/>
        <pt x="275" y="995" on="0"/>
        <pt x="406" y="1034" on="0"/>
        <pt x="471" y="1034" on="1"/>
        <pt x="574" y="1034" on="0"/>
        <pt x="718" y="967" on="0"/>
        <pt x="754" y="881" on="1"/>
        <pt x="756" y="881" on="1"/>
        <pt x="819" y="968" on="0"/>
        <pt x="960" y="1034" on="0"/>
        <pt x="1044" y="1034" on="1"/>
        <pt x="1391" y="1034" on="0"/>
        <pt x="1391" y="557" on="1"/>
        <pt x="1364" y="532" on="1"/>
        <pt x="868" y="532" on="1"/>
        <pt x="868" y="414" on="1"/>
        <pt x="868" y="35" on="0"/>
        <pt x="1103" y="35" on="1"/>
        <pt x="1275" y="35" on="0"/>
        <pt x="1380" y="211" on="1"/>
        <pt x="1419" y="187" on="1"/>
        <pt x="1385" y="131" on="0"/>
        <pt x="1301" y="49" on="0"/>
        <pt x="1207" y="-4" on="0"/>
        <pt x="1107" y="-30" on="0"/>
        <pt x="1056" y="-30" on="1"/>
        <pt x="773" y="-30" on="0"/>
        <pt x="676" y="225" on="1"/>
        <pt x="674" y="225" on="1"/>
        <pt x="639" y="147" on="0"/>
        <pt x="559" y="48" on="0"/>
        <pt x="472" y="-9" on="0"/>
        <pt x="377" y="-30" on="0"/>
        <pt x="326" y="-30" on="1"/>
        <pt x="264" y="-30" on="0"/>
        <pt x="170" y="10" on="0"/>
        <pt x="107" y="78" on="0"/>
        <pt x="74" y="167" on="0"/>
      </contour>
      <contour>
        <pt x="316" y="238" on="1"/>
        <pt x="316" y="199" on="0"/>
        <pt x="334" y="134" on="0"/>
        <pt x="367" y="87" on="0"/>
        <pt x="414" y="61" on="0"/>
        <pt x="444" y="61" on="1"/>
        <pt x="478" y="61" on="0"/>
        <pt x="546" y="107" on="0"/>
        <pt x="600" y="187" on="0"/>
        <pt x="633" y="292" on="0"/>
        <pt x="633" y="352" on="1"/>
        <pt x="633" y="490" on="1"/>
        <pt x="613" y="492" on="0"/>
        <pt x="580" y="495" on="0"/>
        <pt x="567" y="495" on="1"/>
        <pt x="514" y="495" on="0"/>
        <pt x="436" y="468" on="0"/>
        <pt x="380" y="423" on="0"/>
        <pt x="344" y="367" on="0"/>
        <pt x="324" y="310" on="0"/>
        <pt x="316" y="257" on="0"/>
      </contour>
      <contour>
        <pt x="868" y="577" on="1"/>
        <pt x="1175" y="590" on="1"/>
        <pt x="1176" y="604" on="0"/>
        <pt x="1177" y="672" on="1"/>
        <pt x="1177" y="746" on="0"/>
        <pt x="1160" y="863" on="0"/>
        <pt x="1125" y="945" on="0"/>
        <pt x="1072" y="989" on="0"/>
        <pt x="1036" y="989" on="1"/>
        <pt x="994" y="989" on="0"/>
        <pt x="934" y="934" on="0"/>
        <pt x="893" y="829" on="0"/>
        <pt x="871" y="676" on="0"/>
      </contour>
    </TTGlyph>
    <TTGlyph name="agrave" xMin="72" yMin="-30" xMax="959" yMax="1582">
      <component glyphName="a" x="0" y="0" flags="0x204"/>
      <component glyphName="grave" x="184" y="0" flags="0x4"/>
    </TTGlyph>
    <TTGlyph name="ampersand" xMin="140" yMin="-35" xMax="1478" yMax="1462">
      <contour>
        <pt x="140" y="387" on="1"/>
        <pt x="140" y="557" on="0"/>
        <pt x="377" y="796" on="0"/>
        <pt x="586" y="814" on="1"/>
        <pt x="586" y="816" on="1"/>
        <pt x="532" y="817" on="0"/>
        <pt x="433" y="835" on="0"/>
        <pt x="331" y="878" on="0"/>
        <pt x="256" y="942" on="0"/>
        <pt x="209" y="1046" on="0"/>
        <pt x="209" y="1112" on="1"/>
        <pt x="209" y="1157" on="0"/>
        <pt x="235" y="1248" on="0"/>
        <pt x="299" y="1343" on="0"/>
        <pt x="394" y="1416" on="0"/>
        <pt x="547" y="1462" on="0"/>
        <pt x="642" y="1462" on="1"/>
        <pt x="734" y="1462" on="0"/>
        <pt x="875" y="1414" on="0"/>
        <pt x="949" y="1348" on="0"/>
        <pt x="994" y="1267" on="0"/>
        <pt x="1006" y="1217" on="0"/>
        <pt x="1006" y="1190" on="1"/>
        <pt x="1006" y="1131" on="0"/>
        <pt x="930" y="1045" on="0"/>
        <pt x="860" y="1045" on="1"/>
        <pt x="803" y="1045" on="0"/>
        <pt x="728" y="1124" on="0"/>
        <pt x="728" y="1188" on="1"/>
        <pt x="728" y="1243" on="0"/>
        <pt x="800" y="1317" on="0"/>
        <pt x="863" y="1320" on="1"/>
        <pt x="862" y="1324" on="1"/>
        <pt x="843" y="1361" on="0"/>
        <pt x="746" y="1405" on="0"/>
        <pt x="685" y="1405" on="1"/>
        <pt x="572" y="1405" on="0"/>
        <pt x="460" y="1262" on="0"/>
        <pt x="460" y="1136" on="1"/>
        <pt x="460" y="993" on="0"/>
        <pt x="600" y="839" on="0"/>
        <pt x="723" y="839" on="1"/>
        <pt x="737" y="839" on="1"/>
        <pt x="737" y="784" on="1"/>
        <pt x="719" y="784" on="1"/>
        <pt x="654" y="784" on="0"/>
        <pt x="551" y="750" on="0"/>
        <pt x="486" y="690" on="0"/>
        <pt x="440" y="619" on="0"/>
        <pt x="417" y="533" on="0"/>
        <pt x="408" y="460" on="0"/>
        <pt x="408" y="421" on="1"/>
        <pt x="408" y="232" on="0"/>
        <pt x="566" y="31" on="0"/>
        <pt x="719" y="31" on="1"/>
        <pt x="760" y="31" on="0"/>
        <pt x="850" y="50" on="0"/>
        <pt x="960" y="108" on="0"/>
        <pt x="1044" y="198" on="0"/>
        <pt x="1102" y="356" on="0"/>
        <pt x="1102" y="457" on="1"/>
        <pt x="1101" y="512" on="1"/>
        <pt x="1060" y="511" on="1"/>
        <pt x="859" y="511" on="1"/>
        <pt x="809" y="511" on="0"/>
        <pt x="737" y="497" on="0"/>
        <pt x="699" y="479" on="0"/>
        <pt x="678" y="450" on="0"/>
        <pt x="673" y="430" on="0"/>
        <pt x="673" y="417" on="1"/>
        <pt x="673" y="385" on="0"/>
        <pt x="694" y="373" on="1"/>
        <pt x="697" y="373" on="1"/>
        <pt x="710" y="395" on="0"/>
        <pt x="762" y="419" on="0"/>
        <pt x="784" y="419" on="1"/>
        <pt x="829" y="419" on="0"/>
        <pt x="892" y="365" on="0"/>
        <pt x="892" y="315" on="1"/>
        <pt x="892" y="267" on="0"/>
        <pt x="825" y="206" on="0"/>
        <pt x="779" y="206" on="1"/>
        <pt x="716" y="206" on="0"/>
        <pt x="622" y="295" on="0"/>
        <pt x="622" y="395" on="1"/>
        <pt x="622" y="416" on="0"/>
        <pt x="626" y="456" on="0"/>
        <pt x="645" y="521" on="0"/>
        <pt x="677" y="574" on="0"/>
        <pt x="740" y="633" on="0"/>
        <pt x="825" y="673" on="0"/>
        <pt x="958" y="700" on="0"/>
        <pt x="1040" y="700" on="1"/>
        <pt x="1241" y="700" on="1"/>
        <pt x="1291" y="700" on="0"/>
        <pt x="1363" y="714" on="0"/>
        <pt x="1401" y="732" on="0"/>
        <pt x="1422" y="761" on="0"/>
        <pt x="1427" y="781" on="0"/>
        <pt x="1427" y="794" on="1"/>
        <pt x="1427" y="826" on="0"/>
        <pt x="1406" y="838" on="1"/>
        <pt x="1403" y="838" on="1"/>
        <pt x="1390" y="816" on="0"/>
        <pt x="1338" y="792" on="0"/>
        <pt x="1316" y="792" on="1"/>
        <pt x="1271" y="792" on="0"/>
        <pt x="1208" y="846" on="0"/>
        <pt x="1208" y="896" on="1"/>
        <pt x="1208" y="944" on="0"/>
        <pt x="1275" y="1005" on="0"/>
        <pt x="1321" y="1005" on="1"/>
        <pt x="1384" y="1005" on="0"/>
        <pt x="1478" y="916" on="0"/>
        <pt x="1478" y="816" on="1"/>
        <pt x="1478" y="793" on="0"/>
        <pt x="1472" y="750" on="0"/>
        <pt x="1454" y="681" on="0"/>
        <pt x="1409" y="622" on="0"/>
        <pt x="1342" y="565" on="0"/>
        <pt x="1227" y="524" on="0"/>
        <pt x="1154" y="516" on="1"/>
        <pt x="1157" y="483" on="0"/>
        <pt x="1157" y="453" on="1"/>
        <pt x="1157" y="347" on="0"/>
        <pt x="1100" y="173" on="0"/>
        <pt x="985" y="39" on="0"/>
        <pt x="793" y="-35" on="0"/>
        <pt x="667" y="-35" on="1"/>
        <pt x="523" y="-35" on="0"/>
        <pt x="312" y="32" on="0"/>
        <pt x="194" y="152" on="0"/>
        <pt x="140" y="298" on="0"/>
      </contour>
    </TTGlyph>
    <TTGlyph name="aring" xMin="72" yMin="-30" xMax="959" yMax="1586">
      <component glyphName="a" x="0" y="0" flags="0x204"/>
      <component glyphName="ring" x="213" y="0" flags="0x4"/>
    </TTGlyph>
    <TTGlyph name="asciicircum" xMin="80" yMin="950" xMax="1219" yMax="1462">
      <contour>
        <pt x="80" y="950" on="1"/>
        <pt x="634" y="1462" on="1"/>
        <pt x="672" y="1462" on="1"/>
        <pt x="1219" y="950" on="1"/>
        <pt x="1090" y="950" on="1"/>
        <pt x="649" y="1354" on="1"/>
        <pt x="647" y="1354" on="1"/>
        <pt x="207" y="950" on="1"/>
      </contour>
    </TTGlyph>
    <TTGlyph name="asciitilde" xMin="94" yMin="437" xMax="1011" yMax="761">
      <contour>
        <pt x="94" y="449" on="1"/>
        <pt x="112" y="511" on="0"/>
        <pt x="161" y="622" on="0"/>
        <pt x="233" y="708" on="0"/>
        <pt x="334" y="759" on="0"/>
        <pt x="403" y="761" on="1"/>
        <pt x="459" y="761" on="0"/>
        <pt x="548" y="722" on="0"/>
        <pt x="636" y="675" on="0"/>
        <pt x="734" y="636" on="0"/>
        <pt x="799" y="636" on="1"/>
        <pt x="907" y="636" on="0"/>
        <pt x="954" y="759" on="1"/>
        <pt x="1011" y="759" on="1"/>
        <pt x="938" y="437" on="0"/>
        <pt x="731" y="437" on="1"/>
        <pt x="668" y="437" on="0"/>
        <pt x="547" y="478" on="0"/>
        <pt x="436" y="527" on="0"/>
        <pt x="335" y="568" on="0"/>
        <pt x="293" y="568" on="1"/>
        <pt x="261" y="568" on="0"/>
        <pt x="219" y="555" on="0"/>
        <pt x="188" y="526" on="0"/>
        <pt x="164" y="481" on="0"/>
        <pt x="151" y="449" on="1"/>
      </contour>
    </TTGlyph>
    <TTGlyph name="asterisk" xMin="52" yMin="666" xMax="879" yMax="1462">
      <contour>
        <pt x="59" y="1169" on="1"/>
        <pt x="74" y="1212" on="0"/>
        <pt x="132" y="1246" on="0"/>
        <pt x="163" y="1246" on="1"/>
        <pt x="192" y="1246" on="0"/>
        <pt x="236" y="1227" on="0"/>
        <pt x="276" y="1196" on="0"/>
        <pt x="312" y="1156" on="0"/>
        <pt x="352" y="1117" on="0"/>
        <pt x="405" y="1081" on="0"/>
        <pt x="440" y="1069" on="1"/>
        <pt x="440" y="1118" on="0"/>
        <pt x="412" y="1191" on="0"/>
        <pt x="378" y="1253" on="0"/>
        <pt x="350" y="1313" on="0"/>
        <pt x="350" y="1345" on="1"/>
        <pt x="350" y="1368" on="0"/>
        <pt x="365" y="1410" on="0"/>
        <pt x="395" y="1443" on="0"/>
        <pt x="438" y="1462" on="0"/>
        <pt x="467" y="1462" on="1"/>
        <pt x="495" y="1462" on="0"/>
        <pt x="538" y="1443" on="0"/>
        <pt x="565" y="1411" on="0"/>
        <pt x="579" y="1369" on="0"/>
        <pt x="579" y="1345" on="1"/>
        <pt x="579" y="1311" on="0"/>
        <pt x="551" y="1254" on="0"/>
        <pt x="516" y="1192" on="0"/>
        <pt x="489" y="1117" on="0"/>
        <pt x="489" y="1071" on="1"/>
        <pt x="541" y="1088" on="0"/>
        <pt x="607" y="1143" on="0"/>
        <pt x="661" y="1204" on="0"/>
        <pt x="718" y="1247" on="0"/>
        <pt x="760" y="1248" on="1"/>
        <pt x="781" y="1248" on="0"/>
        <pt x="823" y="1234" on="0"/>
        <pt x="858" y="1206" on="0"/>
        <pt x="879" y="1162" on="0"/>
        <pt x="879" y="1131" on="1"/>
        <pt x="879" y="1105" on="0"/>
        <pt x="857" y="1063" on="0"/>
        <pt x="819" y="1033" on="0"/>
        <pt x="771" y="1017" on="0"/>
        <pt x="744" y="1017" on="1"/>
        <pt x="728" y="1017" on="0"/>
        <pt x="618" y="1035" on="1"/>
        <pt x="611" y="1036" on="0"/>
        <pt x="553" y="1037" on="0"/>
        <pt x="508" y="1024" on="1"/>
        <pt x="530" y="988" on="0"/>
        <pt x="597" y="943" on="0"/>
        <pt x="668" y="910" on="0"/>
        <pt x="726" y="876" on="0"/>
        <pt x="741" y="854" on="1"/>
        <pt x="752" y="838" on="0"/>
        <pt x="765" y="801" on="0"/>
        <pt x="765" y="780" on="1"/>
        <pt x="765" y="762" on="0"/>
        <pt x="749" y="722" on="0"/>
        <pt x="719" y="689" on="0"/>
        <pt x="676" y="667" on="0"/>
        <pt x="649" y="667" on="1"/>
        <pt x="619" y="667" on="0"/>
        <pt x="572" y="697" on="0"/>
        <pt x="557" y="719" on="1"/>
        <pt x="539" y="740" on="0"/>
        <pt x="523" y="805" on="0"/>
        <pt x="515" y="881" on="0"/>
        <pt x="492" y="960" on="0"/>
        <pt x="467" y="993" on="1"/>
        <pt x="438" y="954" on="0"/>
        <pt x="417" y="879" on="0"/>
        <pt x="409" y="809" on="0"/>
        <pt x="397" y="747" on="0"/>
        <pt x="377" y="717" on="1"/>
        <pt x="361" y="696" on="0"/>
        <pt x="310" y="666" on="0"/>
        <pt x="281" y="666" on="1"/>
        <pt x="255" y="666" on="0"/>
        <pt x="212" y="688" on="0"/>
        <pt x="181" y="721" on="0"/>
        <pt x="166" y="754" on="0"/>
        <pt x="165" y="778" on="1"/>
        <pt x="166" y="805" on="0"/>
        <pt x="191" y="857" on="0"/>
        <pt x="238" y="897" on="0"/>
        <pt x="288" y="920" on="0"/>
        <pt x="346" y="949" on="0"/>
        <pt x="403" y="991" on="0"/>
        <pt x="426" y="1022" on="1"/>
        <pt x="393" y="1034" on="0"/>
        <pt x="343" y="1035" on="1"/>
        <pt x="298" y="1034" on="0"/>
        <pt x="212" y="1015" on="0"/>
        <pt x="189" y="1015" on="1"/>
        <pt x="164" y="1014" on="0"/>
        <pt x="115" y="1028" on="0"/>
        <pt x="76" y="1058" on="0"/>
        <pt x="52" y="1101" on="0"/>
        <pt x="52" y="1130" on="1"/>
        <pt x="52" y="1149" on="0"/>
      </contour>
    </TTGlyph>
    <TTGlyph name="at" xMin="78" yMin="-195" xMax="1453" yMax="1314">
      <contour>
        <pt x="78" y="546" on="1"/>
        <pt x="78" y="705" on="0"/>
        <pt x="178" y="985" on="0"/>
        <pt x="361" y="1193" on="0"/>
        <pt x="638" y="1314" on="0"/>
        <pt x="805" y="1314" on="1"/>
        <pt x="991" y="1314" on="0"/>
        <pt x="1288" y="1141" on="0"/>
        <pt x="1453" y="838" on="0"/>
        <pt x="1453" y="650" on="1"/>
        <pt x="1453" y="526" on="0"/>
        <pt x="1387" y="327" on="0"/>
        <pt x="1280" y="209" on="0"/>
        <pt x="1154" y="147" on="0"/>
        <pt x="1089" y="147" on="1"/>
        <pt x="1015" y="147" on="0"/>
        <pt x="908" y="205" on="0"/>
        <pt x="890" y="264" on="1"/>
        <pt x="846" y="207" on="0"/>
        <pt x="726" y="158" on="0"/>
        <pt x="671" y="158" on="1"/>
        <pt x="547" y="158" on="0"/>
        <pt x="398" y="332" on="0"/>
        <pt x="398" y="488" on="1"/>
        <pt x="398" y="561" on="0"/>
        <pt x="419" y="701" on="0"/>
        <pt x="471" y="843" on="0"/>
        <pt x="551" y="950" on="0"/>
        <pt x="679" y="1017" on="0"/>
        <pt x="759" y="1017" on="1"/>
        <pt x="869" y="1017" on="0"/>
        <pt x="946" y="950" on="1"/>
        <pt x="952" y="1000" on="1"/>
        <pt x="1100" y="985" on="1"/>
        <pt x="1094" y="933" on="0"/>
        <pt x="1049" y="569" on="0"/>
        <pt x="1027" y="363" on="0"/>
        <pt x="1027" y="313" on="1"/>
        <pt x="1027" y="250" on="0"/>
        <pt x="1070" y="201" on="0"/>
        <pt x="1114" y="201" on="1"/>
        <pt x="1219" y="201" on="0"/>
        <pt x="1385" y="458" on="0"/>
        <pt x="1385" y="633" on="1"/>
        <pt x="1385" y="816" on="0"/>
        <pt x="1241" y="1097" on="0"/>
        <pt x="963" y="1258" on="0"/>
        <pt x="775" y="1258" on="1"/>
        <pt x="638" y="1258" on="0"/>
        <pt x="398" y="1142" on="0"/>
        <pt x="236" y="950" on="0"/>
        <pt x="143" y="698" on="0"/>
        <pt x="143" y="563" on="1"/>
        <pt x="143" y="450" on="0"/>
        <pt x="190" y="246" on="0"/>
        <pt x="293" y="67" on="0"/>
        <pt x="442" y="-64" on="0"/>
        <pt x="658" y="-140" on="0"/>
        <pt x="789" y="-140" on="1"/>
        <pt x="1100" y="-140" on="0"/>
        <pt x="1287" y="66" on="1"/>
        <pt x="1324" y="32" on="1"/>
        <pt x="1113" y="-195" on="0"/>
        <pt x="792" y="-195" on="1"/>
        <pt x="623" y="-195" on="0"/>
        <pt x="350" y="-84" on="0"/>
        <pt x="173" y="115" on="0"/>
        <pt x="78" y="385" on="0"/>
      </contour>
      <contour>
        <pt x="551" y="477" on="1"/>
        <pt x="551" y="367" on="0"/>
        <pt x="639" y="233" on="0"/>
        <pt x="720" y="233" on="1"/>
        <pt x="806" y="233" on="0"/>
        <pt x="882" y="323" on="1"/>
        <pt x="882" y="350" on="0"/>
        <pt x="889" y="439" on="0"/>
        <pt x="935" y="851" on="0"/>
        <pt x="939" y="890" on="1"/>
        <pt x="878" y="960" on="0"/>
        <pt x="779" y="960" on="1"/>
        <pt x="717" y="960" on="0"/>
        <pt x="625" y="876" on="0"/>
        <pt x="575" y="734" on="0"/>
        <pt x="551" y="570" on="0"/>
      </contour>
    </TTGlyph>
    <TTGlyph name="atilde" xMin="72" yMin="-30" xMax="959" yMax="1498">
      <component glyphName="a" x="0" y="0" flags="0x204"/>
      <component glyphName="tilde" x="70" y="0" flags="0x4"/>
    </TTGlyph>
    <TTGlyph name="b" xMin="24" yMin="-30" xMax="1005" yMax="1448">
      <contour>
        <pt x="24" y="1348" on="1"/>
        <pt x="24" y="1389" on="1"/>
        <pt x="233" y="1411" on="1"/>
        <pt x="374" y="1448" on="1"/>
        <pt x="392" y="1419" on="1"/>
        <pt x="392" y="865" on="1"/>
        <pt x="396" y="865" on="1"/>
        <pt x="453" y="961" on="0"/>
        <pt x="582" y="1034" on="0"/>
        <pt x="673" y="1034" on="1"/>
        <pt x="700" y="1034" on="0"/>
        <pt x="754" y="1024" on="0"/>
        <pt x="822" y="995" on="0"/>
        <pt x="881" y="949" on="0"/>
        <pt x="939" y="867" on="0"/>
        <pt x="980" y="761" on="0"/>
        <pt x="1005" y="604" on="0"/>
        <pt x="1005" y="510" on="1"/>
        <pt x="1005" y="398" on="0"/>
        <pt x="957" y="207" on="0"/>
        <pt x="862" y="56" on="0"/>
        <pt x="707" y="-30" on="0"/>
        <pt x="607" y="-30" on="1"/>
        <pt x="551" y="-30" on="0"/>
        <pt x="433" y="21" on="0"/>
        <pt x="392" y="78" on="1"/>
        <pt x="188" y="-10" on="1"/>
        <pt x="147" y="-10" on="1"/>
        <pt x="147" y="1348" on="1"/>
      </contour>
      <contour>
        <pt x="392" y="215" on="1"/>
        <pt x="392" y="144" on="0"/>
        <pt x="490" y="30" on="0"/>
        <pt x="554" y="30" on="1"/>
        <pt x="593" y="30" on="0"/>
        <pt x="655" y="66" on="0"/>
        <pt x="696" y="121" on="0"/>
        <pt x="724" y="209" on="0"/>
        <pt x="739" y="286" on="0"/>
        <pt x="747" y="397" on="0"/>
        <pt x="749" y="469" on="0"/>
        <pt x="749" y="520" on="1"/>
        <pt x="749" y="687" on="0"/>
        <pt x="704" y="884" on="0"/>
        <pt x="632" y="954" on="0"/>
        <pt x="575" y="954" on="1"/>
        <pt x="502" y="954" on="0"/>
        <pt x="392" y="793" on="0"/>
        <pt x="392" y="695" on="1"/>
      </contour>
    </TTGlyph>
    <TTGlyph name="backslash" xMin="-58" yMin="-495" xMax="906" yMax="1462">
      <contour>
        <pt x="-58" y="1462" on="1"/>
        <pt x="65" y="1462" on="1"/>
        <pt x="906" y="-495" on="1"/>
        <pt x="784" y="-495" on="1"/>
      </contour>
    </TTGlyph>
    <TTGlyph name="bar" xMin="152" yMin="-495" xMax="274" yMax="1462">
      <contour>
        <pt x="152" y="-495" on="1"/>
        <pt x="152" y="1462" on="1"/>
        <pt x="274" y="1462" on="1"/>
        <pt x="274" y="-495" on="1"/>
      </contour>
    </TTGlyph>
    <TTGlyph name="braceleft" xMin="-9" yMin="-495" xMax="676" yMax="1462">
      <contour>
        <pt x="-9" y="454" on="1"/>
        <pt x="-9" y="514" on="1"/>
        <pt x="38" y="514" on="1"/>
        <pt x="232" y="514" on="0"/>
        <pt x="232" y="750" on="1"/>
        <pt x="232" y="795" on="0"/>
        <pt x="221" y="991" on="0"/>
        <pt x="221" y="1038" on="1"/>
        <pt x="221" y="1249" on="0"/>
        <pt x="412" y="1462" on="0"/>
        <pt x="619" y="1462" on="1"/>
        <pt x="676" y="1462" on="1"/>
        <pt x="676" y="1408" on="1"/>
        <pt x="664" y="1408" on="1"/>
        <pt x="531" y="1408" on="0"/>
        <pt x="420" y="1264" on="0"/>
        <pt x="420" y="1121" on="1"/>
        <pt x="420" y="1106" on="0"/>
        <pt x="439" y="886" on="0"/>
        <pt x="439" y="648" on="0"/>
        <pt x="275" y="509" on="0"/>
        <pt x="139" y="486" on="1"/>
        <pt x="139" y="482" on="1"/>
        <pt x="275" y="459" on="0"/>
        <pt x="439" y="320" on="0"/>
        <pt x="439" y="82" on="0"/>
        <pt x="420" y="-140" on="0"/>
        <pt x="420" y="-154" on="1"/>
        <pt x="420" y="-297" on="0"/>
        <pt x="531" y="-441" on="0"/>
        <pt x="664" y="-441" on="1"/>
        <pt x="676" y="-441" on="1"/>
        <pt x="676" y="-495" on="1"/>
        <pt x="619" y="-495" on="1"/>
        <pt x="413" y="-495" on="0"/>
        <pt x="221" y="-281" on="0"/>
        <pt x="221" y="-70" on="1"/>
        <pt x="221" y="-23" on="0"/>
        <pt x="232" y="173" on="0"/>
        <pt x="232" y="218" on="1"/>
        <pt x="232" y="454" on="0"/>
        <pt x="38" y="454" on="1"/>
      </contour>
    </TTGlyph>
    <TTGlyph name="braceright" xMin="9" yMin="-495" xMax="693" yMax="1461">
      <component glyphName="braceleft" x="685" y="967" scale="-0.999938964844" flags="0x0"/>
    </TTGlyph>
    <TTGlyph name="bracketleft" xMin="152" yMin="-495" xMax="510" yMax="1462">
      <contour>
        <pt x="152" y="-495" on="1"/>
        <pt x="153" y="1462" on="1"/>
        <pt x="506" y="1462" on="1"/>
        <pt x="506" y="1402" on="1"/>
        <pt x="347" y="1401" on="1"/>
        <pt x="347" y="-434" on="1"/>
        <pt x="510" y="-435" on="1"/>
        <pt x="510" y="-495" on="1"/>
      </contour>
    </TTGlyph>
    <TTGlyph name="bracketright" xMin="37" yMin="-495" xMax="395" yMax="1462">
      <contour>
        <pt x="37" y="-435" on="1"/>
        <pt x="200" y="-434" on="1"/>
        <pt x="200" y="1401" on="1"/>
        <pt x="41" y="1402" on="1"/>
        <pt x="41" y="1462" on="1"/>
        <pt x="394" y="1462" on="1"/>
        <pt x="395" y="-495" on="1"/>
        <pt x="37" y="-495" on="1"/>
      </contour>
    </TTGlyph>
    <TTGlyph name="brokenbar" xMin="168" yMin="-495" xMax="290" yMax="1462">
      <contour>
        <pt x="168" y="222" on="1"/>
        <pt x="290" y="222" on="1"/>
        <pt x="290" y="-495" on="1"/>
        <pt x="168" y="-495" on="1"/>
      </contour>
      <contour>
        <pt x="168" y="745" on="1"/>
        <pt x="168" y="1462" on="1"/>
        <pt x="290" y="1462" on="1"/>
        <pt x="290" y="745" on="1"/>
      </contour>
    </TTGlyph>
    <TTGlyph name="bullet" xMin="89" yMin="476" xMax="524" yMax="929">
      <contour>
        <pt x="89" y="698" on="1"/>
        <pt x="89" y="798" on="0"/>
        <pt x="212" y="929" on="0"/>
        <pt x="307" y="929" on="1"/>
        <pt x="405" y="929" on="0"/>
        <pt x="524" y="799" on="0"/>
        <pt x="524" y="698" on="1"/>
        <pt x="524" y="601" on="0"/>
        <pt x="405" y="476" on="0"/>
        <pt x="307" y="476" on="1"/>
        <pt x="212" y="476" on="0"/>
        <pt x="89" y="602" on="0"/>
      </contour>
    </TTGlyph>
    <TTGlyph name="c" xMin="81" yMin="-30" xMax="892" yMax="1034">
      <contour>
        <pt x="81" y="496" on="1"/>
        <pt x="81" y="570" on="0"/>
        <pt x="115" y="718" on="0"/>
        <pt x="190" y="859" on="0"/>
        <pt x="297" y="968" on="0"/>
        <pt x="455" y="1034" on="0"/>
        <pt x="548" y="1034" on="1"/>
        <pt x="687" y="1034" on="0"/>
        <pt x="870" y="878" on="0"/>
        <pt x="870" y="770" on="1"/>
        <pt x="870" y="716" on="0"/>
        <pt x="802" y="641" on="0"/>
        <pt x="743" y="641" on="1"/>
        <pt x="688" y="641" on="0"/>
        <pt x="618" y="711" on="0"/>
        <pt x="618" y="764" on="1"/>
        <pt x="618" y="814" on="0"/>
        <pt x="683" y="886" on="0"/>
        <pt x="734" y="886" on="1"/>
        <pt x="741" y="886" on="0"/>
        <pt x="759" y="884" on="1"/>
        <pt x="759" y="889" on="1"/>
        <pt x="747" y="909" on="0"/>
        <pt x="714" y="944" on="0"/>
        <pt x="634" y="984" on="0"/>
        <pt x="585" y="984" on="1"/>
        <pt x="497" y="984" on="0"/>
        <pt x="383" y="852" on="0"/>
        <pt x="337" y="643" on="0"/>
        <pt x="337" y="500" on="1"/>
        <pt x="337" y="39" on="0"/>
        <pt x="583" y="39" on="1"/>
        <pt x="615" y="39" on="0"/>
        <pt x="670" y="50" on="0"/>
        <pt x="745" y="82" on="0"/>
        <pt x="819" y="158" on="0"/>
        <pt x="853" y="216" on="1"/>
        <pt x="892" y="193" on="1"/>
        <pt x="769" y="-30" on="0"/>
        <pt x="540" y="-30" on="1"/>
        <pt x="81" y="-30" on="0"/>
      </contour>
    </TTGlyph>
    <TTGlyph name="caron" xMin="70" yMin="1147" xMax="615" yMax="1585">
      <contour>
        <pt x="70" y="1541" on="1"/>
        <pt x="116" y="1585" on="1"/>
        <pt x="337" y="1353" on="1"/>
        <pt x="341" y="1353" on="1"/>
        <pt x="574" y="1584" on="1"/>
        <pt x="615" y="1545" on="1"/>
        <pt x="329" y="1147" on="1"/>
        <pt x="324" y="1147" on="1"/>
      </contour>
    </TTGlyph>
    <TTGlyph name="caron.case" xMin="80" yMin="1562" xMax="746" yMax="1907">
      <contour>
        <pt x="80" y="1862" on="1"/>
        <pt x="109" y="1904" on="1"/>
        <pt x="413" y="1749" on="1"/>
        <pt x="417" y="1749" on="1"/>
        <pt x="716" y="1907" on="1"/>
        <pt x="746" y="1866" on="1"/>
        <pt x="409" y="1562" on="1"/>
        <pt x="405" y="1562" on="1"/>
      </contour>
    </TTGlyph>
    <TTGlyph name="ccedilla" xMin="81" yMin="-514" xMax="892" yMax="1034">
      <contour>
        <pt x="274" y="-461" on="1"/>
        <pt x="376" y="-443" on="0"/>
        <pt x="510" y="-330" on="0"/>
        <pt x="510" y="-269" on="1"/>
        <pt x="510" y="-237" on="0"/>
        <pt x="473" y="-198" on="0"/>
        <pt x="445" y="-198" on="1"/>
        <pt x="395" y="-198" on="0"/>
        <pt x="352" y="-228" on="1"/>
        <pt x="323" y="-194" on="1"/>
        <pt x="375" y="-9" on="1"/>
        <pt x="81" y="75" on="0"/>
        <pt x="81" y="496" on="1"/>
        <pt x="81" y="570" on="0"/>
        <pt x="115" y="718" on="0"/>
        <pt x="190" y="859" on="0"/>
        <pt x="297" y="968" on="0"/>
        <pt x="455" y="1034" on="0"/>
        <pt x="548" y="1034" on="1"/>
        <pt x="687" y="1034" on="0"/>
        <pt x="870" y="878" on="0"/>
        <pt x="870" y="770" on="1"/>
        <pt x="870" y="716" on="0"/>
        <pt x="802" y="641" on="0"/>
        <pt x="743" y="641" on="1"/>
        <pt x="688" y="641" on="0"/>
        <pt x="618" y="711" on="0"/>
        <pt x="618" y="764" on="1"/>
        <pt x="618" y="814" on="0"/>
        <pt x="683" y="886" on="0"/>
        <pt x="734" y="886" on="1"/>
        <pt x="741" y="886" on="0"/>
        <pt x="759" y="884" on="1"/>
        <pt x="759" y="889" on="1"/>
        <pt x="747" y="909" on="0"/>
        <pt x="714" y="944" on="0"/>
        <pt x="634" y="984" on="0"/>
        <pt x="585" y="984" on="1"/>
        <pt x="497" y="984" on="0"/>
        <pt x="383" y="852" on="0"/>
        <pt x="337" y="643" on="0"/>
        <pt x="337" y="500" on="1"/>
        <pt x="337" y="39" on="0"/>
        <pt x="583" y="39" on="1"/>
        <pt x="615" y="39" on="0"/>
        <pt x="670" y="50" on="0"/>
        <pt x="745" y="82" on="0"/>
        <pt x="819" y="158" on="0"/>
        <pt x="853" y="216" on="1"/>
        <pt x="892" y="193" on="1"/>
        <pt x="769" y="-30" on="0"/>
        <pt x="540" y="-30" on="1"/>
        <pt x="485" y="-30" on="0"/>
        <pt x="437" y="-22" on="1"/>
        <pt x="394" y="-155" on="1"/>
        <pt x="457" y="-116" on="0"/>
        <pt x="541" y="-116" on="1"/>
        <pt x="604" y="-116" on="0"/>
        <pt x="678" y="-188" on="0"/>
        <pt x="678" y="-251" on="1"/>
        <pt x="678" y="-310" on="0"/>
        <pt x="597" y="-407" on="0"/>
        <pt x="469" y="-469" on="0"/>
        <pt x="346" y="-505" on="0"/>
        <pt x="286" y="-514" on="1"/>
      </contour>
    </TTGlyph>
    <TTGlyph name="cedilla" xMin="80" yMin="-514" xMax="484" yMax="16">
      <contour>
        <pt x="80" y="-461" on="1"/>
        <pt x="182" y="-443" on="0"/>
        <pt x="316" y="-330" on="0"/>
        <pt x="316" y="-269" on="1"/>
        <pt x="316" y="-237" on="0"/>
        <pt x="279" y="-198" on="0"/>
        <pt x="251" y="-198" on="1"/>
        <pt x="201" y="-198" on="0"/>
        <pt x="158" y="-228" on="1"/>
        <pt x="129" y="-194" on="1"/>
        <pt x="188" y="16" on="1"/>
        <pt x="256" y="16" on="1"/>
        <pt x="200" y="-155" on="1"/>
        <pt x="263" y="-116" on="0"/>
        <pt x="347" y="-116" on="1"/>
        <pt x="410" y="-116" on="0"/>
        <pt x="484" y="-188" on="0"/>
        <pt x="484" y="-251" on="1"/>
        <pt x="484" y="-310" on="0"/>
        <pt x="403" y="-407" on="0"/>
        <pt x="275" y="-469" on="0"/>
        <pt x="152" y="-505" on="0"/>
        <pt x="92" y="-514" on="1"/>
      </contour>
    </TTGlyph>
    <TTGlyph name="cedilla.case" xMin="83" yMin="-560" xMax="492" yMax="16">
      <contour>
        <pt x="83" y="-510" on="1"/>
        <pt x="188" y="-495" on="0"/>
        <pt x="316" y="-356" on="0"/>
        <pt x="316" y="-289" on="1"/>
        <pt x="316" y="-216" on="0"/>
        <pt x="251" y="-216" on="1"/>
        <pt x="201" y="-216" on="0"/>
        <pt x="158" y="-246" on="1"/>
        <pt x="124" y="-218" on="1"/>
        <pt x="183" y="16" on="1"/>
        <pt x="252" y="16" on="1"/>
        <pt x="191" y="-171" on="1"/>
        <pt x="256" y="-136" on="0"/>
        <pt x="347" y="-136" on="1"/>
        <pt x="411" y="-136" on="0"/>
        <pt x="492" y="-209" on="0"/>
        <pt x="492" y="-271" on="1"/>
        <pt x="492" y="-318" on="0"/>
        <pt x="435" y="-407" on="0"/>
        <pt x="347" y="-471" on="0"/>
        <pt x="238" y="-523" on="0"/>
        <pt x="135" y="-554" on="0"/>
        <pt x="91" y="-560" on="1"/>
      </contour>
    </TTGlyph>
    <TTGlyph name="cent" xMin="100" yMin="-195" xMax="911" yMax="1162">
      <contour>
        <pt x="100" y="496" on="1"/>
        <pt x="100" y="565" on="0"/>
        <pt x="130" y="704" on="0"/>
        <pt x="196" y="838" on="0"/>
        <pt x="289" y="946" on="0"/>
        <pt x="426" y="1020" on="0"/>
        <pt x="508" y="1030" on="1"/>
        <pt x="508" y="1162" on="1"/>
        <pt x="590" y="1162" on="1"/>
        <pt x="590" y="1033" on="1"/>
        <pt x="720" y="1026" on="0"/>
        <pt x="889" y="873" on="0"/>
        <pt x="889" y="770" on="1"/>
        <pt x="889" y="716" on="0"/>
        <pt x="821" y="641" on="0"/>
        <pt x="762" y="641" on="1"/>
        <pt x="707" y="641" on="0"/>
        <pt x="637" y="711" on="0"/>
        <pt x="637" y="764" on="1"/>
        <pt x="637" y="814" on="0"/>
        <pt x="702" y="886" on="0"/>
        <pt x="753" y="886" on="1"/>
        <pt x="760" y="886" on="0"/>
        <pt x="778" y="884" on="1"/>
        <pt x="778" y="889" on="1"/>
        <pt x="766" y="909" on="0"/>
        <pt x="733" y="944" on="0"/>
        <pt x="653" y="984" on="0"/>
        <pt x="604" y="984" on="1"/>
        <pt x="594" y="984" on="0"/>
        <pt x="590" y="983" on="1"/>
        <pt x="590" y="39" on="1"/>
        <pt x="602" y="39" on="1"/>
        <pt x="634" y="39" on="0"/>
        <pt x="689" y="50" on="0"/>
        <pt x="764" y="82" on="0"/>
        <pt x="838" y="158" on="0"/>
        <pt x="872" y="216" on="1"/>
        <pt x="911" y="193" on="1"/>
        <pt x="797" y="-15" on="0"/>
        <pt x="590" y="-29" on="1"/>
        <pt x="590" y="-195" on="1"/>
        <pt x="508" y="-195" on="1"/>
        <pt x="508" y="-28" on="1"/>
        <pt x="100" y="1" on="0"/>
      </contour>
      <contour>
        <pt x="356" y="500" on="1"/>
        <pt x="356" y="139" on="0"/>
        <pt x="508" y="60" on="1"/>
        <pt x="508" y="959" on="1"/>
        <pt x="356" y="872" on="0"/>
      </contour>
    </TTGlyph>
    <TTGlyph name="circumflex" xMin="90" yMin="1167" xMax="595" yMax="1585">
      <contour>
        <pt x="90" y="1209" on="1"/>
        <pt x="356" y="1585" on="1"/>
        <pt x="361" y="1585" on="1"/>
        <pt x="595" y="1213" on="1"/>
        <pt x="514" y="1167" on="1"/>
        <pt x="348" y="1379" on="1"/>
        <pt x="344" y="1379" on="1"/>
        <pt x="166" y="1168" on="1"/>
      </contour>
    </TTGlyph>
    <TTGlyph name="circumflex.case" xMin="120" yMin="1573" xMax="716" yMax="1898">
      <contour>
        <pt x="120" y="1619" on="1"/>
        <pt x="417" y="1898" on="1"/>
        <pt x="421" y="1898" on="1"/>
        <pt x="716" y="1623" on="1"/>
        <pt x="654" y="1576" on="1"/>
        <pt x="413" y="1737" on="1"/>
        <pt x="409" y="1737" on="1"/>
        <pt x="175" y="1573" on="1"/>
      </contour>
    </TTGlyph>
    <TTGlyph name="colon" xMin="117" yMin="-35" xMax="393" yMax="1034">
      <contour>
        <pt x="117" y="100" on="1"/>
        <pt x="117" y="163" on="0"/>
        <pt x="194" y="240" on="0"/>
        <pt x="255" y="240" on="1"/>
        <pt x="318" y="240" on="0"/>
        <pt x="393" y="163" on="0"/>
        <pt x="393" y="100" on="1"/>
        <pt x="393" y="39" on="0"/>
        <pt x="318" y="-35" on="0"/>
        <pt x="255" y="-35" on="1"/>
        <pt x="194" y="-35" on="0"/>
        <pt x="117" y="40" on="0"/>
      </contour>
      <contour>
        <pt x="117" y="894" on="1"/>
        <pt x="117" y="957" on="0"/>
        <pt x="194" y="1034" on="0"/>
        <pt x="255" y="1034" on="1"/>
        <pt x="318" y="1034" on="0"/>
        <pt x="393" y="957" on="0"/>
        <pt x="393" y="894" on="1"/>
        <pt x="393" y="833" on="0"/>
        <pt x="318" y="759" on="0"/>
        <pt x="255" y="759" on="1"/>
        <pt x="194" y="759" on="0"/>
        <pt x="117" y="834" on="0"/>
      </contour>
    </TTGlyph>
    <TTGlyph name="comma" xMin="92" yMin="-289" xMax="369" yMax="240">
      <contour>
        <pt x="92" y="103" on="1"/>
        <pt x="92" y="153" on="0"/>
        <pt x="158" y="240" on="0"/>
        <pt x="225" y="240" on="1"/>
        <pt x="296" y="240" on="0"/>
        <pt x="369" y="134" on="0"/>
        <pt x="369" y="60" on="1"/>
        <pt x="369" y="-3" on="0"/>
        <pt x="333" y="-119" on="0"/>
        <pt x="226" y="-246" on="0"/>
        <pt x="139" y="-289" on="1"/>
        <pt x="123" y="-238" on="1"/>
        <pt x="209" y="-197" on="0"/>
        <pt x="283" y="-72" on="0"/>
        <pt x="283" y="-17" on="1"/>
        <pt x="279" y="-17" on="1"/>
        <pt x="251" y="-35" on="0"/>
        <pt x="217" y="-35" on="1"/>
        <pt x="164" y="-35" on="0"/>
        <pt x="92" y="43" on="0"/>
      </contour>
    </TTGlyph>
    <TTGlyph name="copyright" xMin="81" yMin="-105" xMax="1413" yMax="1227">
      <contour>
        <pt x="81" y="560" on="1"/>
        <pt x="81" y="652" on="0"/>
        <pt x="126" y="823" on="0"/>
        <pt x="211" y="971" on="0"/>
        <pt x="330" y="1093" on="0"/>
        <pt x="478" y="1179" on="0"/>
        <pt x="651" y="1227" on="0"/>
        <pt x="746" y="1227" on="1"/>
        <pt x="886" y="1227" on="0"/>
        <pt x="1130" y="1124" on="0"/>
        <pt x="1310" y="945" on="0"/>
        <pt x="1413" y="701" on="0"/>
        <pt x="1413" y="560" on="1"/>
        <pt x="1413" y="472" on="0"/>
        <pt x="1369" y="305" on="0"/>
        <pt x="1287" y="157" on="0"/>
        <pt x="1169" y="34" on="0"/>
        <pt x="1020" y="-55" on="0"/>
        <pt x="845" y="-105" on="0"/>
        <pt x="746" y="-105" on="1"/>
        <pt x="606" y="-105" on="0"/>
        <pt x="364" y="-3" on="0"/>
        <pt x="184" y="175" on="0"/>
        <pt x="81" y="419" on="0"/>
      </contour>
      <contour>
        <pt x="152" y="560" on="1"/>
        <pt x="152" y="438" on="0"/>
        <pt x="236" y="216" on="0"/>
        <pt x="391" y="48" on="0"/>
        <pt x="611" y="-51" on="0"/>
        <pt x="746" y="-51" on="1"/>
        <pt x="876" y="-51" on="0"/>
        <pt x="1095" y="43" on="0"/>
        <pt x="1254" y="208" on="0"/>
        <pt x="1343" y="431" on="0"/>
        <pt x="1343" y="560" on="1"/>
        <pt x="1343" y="683" on="0"/>
        <pt x="1258" y="905" on="0"/>
        <pt x="1101" y="1073" on="0"/>
        <pt x="881" y="1173" on="0"/>
        <pt x="746" y="1173" on="1"/>
        <pt x="618" y="1173" on="0"/>
        <pt x="401" y="1079" on="0"/>
        <pt x="242" y="914" on="0"/>
        <pt x="152" y="690" on="0"/>
      </contour>
      <contour>
        <pt x="387" y="561" on="1"/>
        <pt x="387" y="613" on="0"/>
        <pt x="408" y="723" on="0"/>
        <pt x="450" y="827" on="0"/>
        <pt x="515" y="920" on="0"/>
        <pt x="604" y="989" on="0"/>
        <pt x="718" y="1029" on="0"/>
        <pt x="788" y="1029" on="1"/>
        <pt x="848" y="1029" on="0"/>
        <pt x="951" y="992" on="0"/>
        <pt x="1026" y="930" on="0"/>
        <pt x="1069" y="846" on="0"/>
        <pt x="1069" y="800" on="1"/>
        <pt x="1069" y="776" on="0"/>
        <pt x="1054" y="735" on="0"/>
        <pt x="1025" y="704" on="0"/>
        <pt x="984" y="686" on="0"/>
        <pt x="958" y="686" on="1"/>
        <pt x="910" y="686" on="0"/>
        <pt x="851" y="746" on="0"/>
        <pt x="851" y="794" on="1"/>
        <pt x="851" y="837" on="0"/>
        <pt x="904" y="900" on="0"/>
        <pt x="949" y="900" on="1"/>
        <pt x="955" y="900" on="0"/>
        <pt x="967" y="900" on="0"/>
        <pt x="973" y="898" on="1"/>
        <pt x="973" y="903" on="1"/>
        <pt x="958" y="925" on="0"/>
        <pt x="877" y="966" on="0"/>
        <pt x="822" y="966" on="1"/>
        <pt x="610" y="966" on="0"/>
        <pt x="610" y="565" on="1"/>
        <pt x="610" y="183" on="0"/>
        <pt x="837" y="183" on="1"/>
        <pt x="865" y="183" on="0"/>
        <pt x="926" y="198" on="0"/>
        <pt x="986" y="231" on="0"/>
        <pt x="1044" y="284" on="0"/>
        <pt x="1068" y="321" on="1"/>
        <pt x="1105" y="296" on="1"/>
        <pt x="996" y="103" on="0"/>
        <pt x="799" y="103" on="1"/>
        <pt x="694" y="103" on="0"/>
        <pt x="539" y="166" on="0"/>
        <pt x="437" y="284" on="0"/>
        <pt x="387" y="454" on="0"/>
      </contour>
    </TTGlyph>
    <TTGlyph name="currency" xMin="100" yMin="220" xMax="1066" yMax="1184">
      <contour>
        <pt x="100" y="276" on="1"/>
        <pt x="254" y="429" on="1"/>
        <pt x="159" y="545" on="0"/>
        <pt x="159" y="700" on="1"/>
        <pt x="159" y="857" on="0"/>
        <pt x="255" y="973" on="1"/>
        <pt x="100" y="1128" on="1"/>
        <pt x="156" y="1184" on="1"/>
        <pt x="311" y="1029" on="1"/>
        <pt x="427" y="1124" on="0"/>
        <pt x="583" y="1124" on="1"/>
        <pt x="736" y="1124" on="0"/>
        <pt x="855" y="1029" on="1"/>
        <pt x="1010" y="1184" on="1"/>
        <pt x="1066" y="1128" on="1"/>
        <pt x="910" y="972" on="1"/>
        <pt x="1007" y="857" on="0"/>
        <pt x="1007" y="700" on="1"/>
        <pt x="1007" y="545" on="0"/>
        <pt x="912" y="429" on="1"/>
        <pt x="1066" y="276" on="1"/>
        <pt x="1010" y="220" on="1"/>
        <pt x="857" y="373" on="1"/>
        <pt x="742" y="276" on="0"/>
        <pt x="583" y="276" on="1"/>
        <pt x="422" y="276" on="0"/>
        <pt x="309" y="373" on="1"/>
        <pt x="156" y="220" on="1"/>
      </contour>
      <contour>
        <pt x="348" y="945" on="1"/>
        <pt x="259" y="845" on="0"/>
        <pt x="259" y="700" on="1"/>
        <pt x="259" y="628" on="0"/>
        <pt x="306" y="502" on="0"/>
        <pt x="391" y="409" on="0"/>
        <pt x="510" y="356" on="0"/>
        <pt x="583" y="356" on="1"/>
        <pt x="656" y="356" on="0"/>
        <pt x="776" y="410" on="0"/>
        <pt x="861" y="503" on="0"/>
        <pt x="907" y="629" on="0"/>
        <pt x="907" y="700" on="1"/>
        <pt x="907" y="771" on="0"/>
        <pt x="861" y="897" on="0"/>
        <pt x="776" y="990" on="0"/>
        <pt x="656" y="1044" on="0"/>
        <pt x="583" y="1044" on="1"/>
        <pt x="438" y="1044" on="0"/>
      </contour>
    </TTGlyph>
    <TTGlyph name="d" xMin="82" yMin="-30" xMax="1045" yMax="1448">
      <contour>
        <pt x="82" y="477" on="1"/>
        <pt x="82" y="564" on="0"/>
        <pt x="114" y="724" on="0"/>
        <pt x="184" y="867" on="0"/>
        <pt x="286" y="972" on="0"/>
        <pt x="435" y="1034" on="0"/>
        <pt x="525" y="1034" on="1"/>
        <pt x="563" y="1034" on="0"/>
        <pt x="666" y="1009" on="0"/>
        <pt x="697" y="983" on="1"/>
        <pt x="697" y="1348" on="1"/>
        <pt x="574" y="1348" on="1"/>
        <pt x="574" y="1389" on="1"/>
        <pt x="783" y="1411" on="1"/>
        <pt x="924" y="1448" on="1"/>
        <pt x="943" y="1419" on="1"/>
        <pt x="943" y="51" on="1"/>
        <pt x="1045" y="41" on="1"/>
        <pt x="1045" y="0" on="1"/>
        <pt x="711" y="0" on="1"/>
        <pt x="698" y="142" on="1"/>
        <pt x="696" y="142" on="1"/>
        <pt x="638" y="43" on="0"/>
        <pt x="512" y="-30" on="0"/>
        <pt x="424" y="-30" on="1"/>
        <pt x="401" y="-30" on="0"/>
        <pt x="349" y="-20" on="0"/>
        <pt x="281" y="9" on="0"/>
        <pt x="218" y="54" on="0"/>
        <pt x="156" y="134" on="0"/>
        <pt x="110" y="236" on="0"/>
        <pt x="82" y="387" on="0"/>
      </contour>
      <contour>
        <pt x="338" y="487" on="1"/>
        <pt x="338" y="54" on="0"/>
        <pt x="517" y="54" on="1"/>
        <pt x="588" y="54" on="0"/>
        <pt x="697" y="224" on="0"/>
        <pt x="697" y="321" on="1"/>
        <pt x="697" y="934" on="1"/>
        <pt x="640" y="977" on="0"/>
        <pt x="570" y="977" on="1"/>
        <pt x="524" y="977" on="0"/>
        <pt x="451" y="939" on="0"/>
        <pt x="403" y="881" on="0"/>
        <pt x="369" y="792" on="0"/>
        <pt x="351" y="710" on="0"/>
        <pt x="340" y="604" on="0"/>
        <pt x="338" y="532" on="0"/>
      </contour>
    </TTGlyph>
    <TTGlyph name="dagger" xMin="-30" yMin="-495" xMax="913" yMax="1462">
      <contour>
        <pt x="-30" y="864" on="1"/>
        <pt x="-30" y="938" on="0"/>
        <pt x="74" y="938" on="1"/>
        <pt x="98" y="938" on="0"/>
        <pt x="120" y="935" on="1"/>
        <pt x="146" y="932" on="0"/>
        <pt x="359" y="891" on="0"/>
        <pt x="417" y="890" on="1"/>
        <pt x="409" y="1006" on="0"/>
        <pt x="374" y="1184" on="0"/>
        <pt x="348" y="1289" on="0"/>
        <pt x="348" y="1330" on="1"/>
        <pt x="348" y="1383" on="0"/>
        <pt x="396" y="1462" on="0"/>
        <pt x="445" y="1462" on="1"/>
        <pt x="492" y="1462" on="0"/>
        <pt x="535" y="1385" on="0"/>
        <pt x="535" y="1332" on="1"/>
        <pt x="535" y="1290" on="0"/>
        <pt x="509" y="1188" on="0"/>
        <pt x="474" y="1010" on="0"/>
        <pt x="465" y="890" on="1"/>
        <pt x="524" y="891" on="0"/>
        <pt x="737" y="932" on="0"/>
        <pt x="763" y="935" on="1"/>
        <pt x="786" y="938" on="0"/>
        <pt x="809" y="938" on="1"/>
        <pt x="913" y="938" on="0"/>
        <pt x="913" y="864" on="1"/>
        <pt x="913" y="789" on="0"/>
        <pt x="808" y="789" on="1"/>
        <pt x="784" y="789" on="0"/>
        <pt x="763" y="792" on="1"/>
        <pt x="740" y="795" on="0"/>
        <pt x="525" y="836" on="0"/>
        <pt x="466" y="836" on="1"/>
        <pt x="493" y="649" on="0"/>
        <pt x="550" y="509" on="1"/>
        <pt x="518" y="414" on="0"/>
        <pt x="493" y="332" on="0"/>
        <pt x="471" y="194" on="0"/>
        <pt x="471" y="116" on="1"/>
        <pt x="471" y="-7" on="0"/>
        <pt x="503" y="-201" on="0"/>
        <pt x="535" y="-326" on="0"/>
        <pt x="535" y="-365" on="1"/>
        <pt x="535" y="-418" on="0"/>
        <pt x="492" y="-495" on="0"/>
        <pt x="445" y="-495" on="1"/>
        <pt x="396" y="-495" on="0"/>
        <pt x="348" y="-416" on="0"/>
        <pt x="348" y="-363" on="1"/>
        <pt x="348" y="-330" on="0"/>
        <pt x="368" y="-235" on="0"/>
        <pt x="391" y="-142" on="0"/>
        <pt x="411" y="22" on="0"/>
        <pt x="411" y="116" on="1"/>
        <pt x="411" y="226" on="0"/>
        <pt x="377" y="378" on="0"/>
        <pt x="333" y="509" on="1"/>
        <pt x="390" y="649" on="0"/>
        <pt x="416" y="837" on="1"/>
        <pt x="358" y="836" on="0"/>
        <pt x="147" y="795" on="0"/>
        <pt x="120" y="792" on="1"/>
        <pt x="98" y="789" on="0"/>
        <pt x="75" y="789" on="1"/>
        <pt x="-30" y="789" on="0"/>
      </contour>
    </TTGlyph>
    <TTGlyph name="daggerdbl" xMin="34" yMin="-495" xMax="977" yMax="1462">
      <contour>
        <pt x="34" y="103" on="1"/>
        <pt x="34" y="178" on="0"/>
        <pt x="139" y="178" on="1"/>
        <pt x="163" y="178" on="0"/>
        <pt x="184" y="175" on="1"/>
        <pt x="207" y="172" on="0"/>
        <pt x="422" y="131" on="0"/>
        <pt x="481" y="131" on="1"/>
        <pt x="447" y="366" on="0"/>
        <pt x="397" y="489" on="1"/>
        <pt x="450" y="619" on="0"/>
        <pt x="480" y="837" on="1"/>
        <pt x="422" y="836" on="0"/>
        <pt x="211" y="795" on="0"/>
        <pt x="184" y="792" on="1"/>
        <pt x="162" y="789" on="0"/>
        <pt x="139" y="789" on="1"/>
        <pt x="34" y="789" on="0"/>
        <pt x="34" y="864" on="1"/>
        <pt x="34" y="938" on="0"/>
        <pt x="138" y="938" on="1"/>
        <pt x="162" y="938" on="0"/>
        <pt x="184" y="935" on="1"/>
        <pt x="210" y="932" on="0"/>
        <pt x="423" y="891" on="0"/>
        <pt x="481" y="890" on="1"/>
        <pt x="473" y="1006" on="0"/>
        <pt x="438" y="1184" on="0"/>
        <pt x="412" y="1289" on="0"/>
        <pt x="412" y="1330" on="1"/>
        <pt x="412" y="1383" on="0"/>
        <pt x="460" y="1462" on="0"/>
        <pt x="509" y="1462" on="1"/>
        <pt x="556" y="1462" on="0"/>
        <pt x="599" y="1385" on="0"/>
        <pt x="599" y="1332" on="1"/>
        <pt x="599" y="1290" on="0"/>
        <pt x="573" y="1188" on="0"/>
        <pt x="538" y="1010" on="0"/>
        <pt x="529" y="890" on="1"/>
        <pt x="588" y="891" on="0"/>
        <pt x="801" y="932" on="0"/>
        <pt x="827" y="935" on="1"/>
        <pt x="850" y="938" on="0"/>
        <pt x="873" y="938" on="1"/>
        <pt x="977" y="938" on="0"/>
        <pt x="977" y="864" on="1"/>
        <pt x="977" y="789" on="0"/>
        <pt x="872" y="789" on="1"/>
        <pt x="848" y="789" on="0"/>
        <pt x="827" y="792" on="1"/>
        <pt x="804" y="795" on="0"/>
        <pt x="589" y="836" on="0"/>
        <pt x="530" y="836" on="1"/>
        <pt x="561" y="618" on="0"/>
        <pt x="614" y="489" on="1"/>
        <pt x="563" y="364" on="0"/>
        <pt x="531" y="130" on="1"/>
        <pt x="589" y="131" on="0"/>
        <pt x="800" y="172" on="0"/>
        <pt x="827" y="175" on="1"/>
        <pt x="850" y="178" on="0"/>
        <pt x="872" y="178" on="1"/>
        <pt x="977" y="178" on="0"/>
        <pt x="977" y="103" on="1"/>
        <pt x="977" y="29" on="0"/>
        <pt x="873" y="29" on="1"/>
        <pt x="850" y="29" on="0"/>
        <pt x="827" y="32" on="1"/>
        <pt x="801" y="35" on="0"/>
        <pt x="588" y="76" on="0"/>
        <pt x="530" y="77" on="1"/>
        <pt x="538" y="-39" on="0"/>
        <pt x="573" y="-217" on="0"/>
        <pt x="599" y="-322" on="0"/>
        <pt x="599" y="-363" on="1"/>
        <pt x="599" y="-416" on="0"/>
        <pt x="551" y="-495" on="0"/>
        <pt x="502" y="-495" on="1"/>
        <pt x="455" y="-495" on="0"/>
        <pt x="412" y="-418" on="0"/>
        <pt x="412" y="-365" on="1"/>
        <pt x="412" y="-323" on="0"/>
        <pt x="438" y="-221" on="0"/>
        <pt x="473" y="-43" on="0"/>
        <pt x="482" y="77" on="1"/>
        <pt x="423" y="76" on="0"/>
        <pt x="210" y="35" on="0"/>
        <pt x="184" y="32" on="1"/>
        <pt x="162" y="29" on="0"/>
        <pt x="138" y="29" on="1"/>
        <pt x="34" y="29" on="0"/>
      </contour>
    </TTGlyph>
    <TTGlyph name="degree" xMin="73" yMin="820" xMax="715" yMax="1462">
      <contour>
        <pt x="73" y="1140" on="1"/>
        <pt x="73" y="1207" on="0"/>
        <pt x="123" y="1325" on="0"/>
        <pt x="209" y="1412" on="0"/>
        <pt x="326" y="1462" on="0"/>
        <pt x="394" y="1462" on="1"/>
        <pt x="461" y="1462" on="0"/>
        <pt x="579" y="1412" on="0"/>
        <pt x="665" y="1325" on="0"/>
        <pt x="715" y="1207" on="0"/>
        <pt x="715" y="1140" on="1"/>
        <pt x="715" y="1074" on="0"/>
        <pt x="666" y="957" on="0"/>
        <pt x="580" y="870" on="0"/>
        <pt x="462" y="820" on="0"/>
        <pt x="394" y="820" on="1"/>
        <pt x="325" y="820" on="0"/>
        <pt x="208" y="870" on="0"/>
        <pt x="122" y="957" on="0"/>
        <pt x="73" y="1074" on="0"/>
      </contour>
      <contour>
        <pt x="181" y="1140" on="1"/>
        <pt x="181" y="1092" on="0"/>
        <pt x="211" y="1006" on="0"/>
        <pt x="267" y="943" on="0"/>
        <pt x="346" y="906" on="0"/>
        <pt x="394" y="906" on="1"/>
        <pt x="442" y="906" on="0"/>
        <pt x="521" y="943" on="0"/>
        <pt x="577" y="1006" on="0"/>
        <pt x="608" y="1092" on="0"/>
        <pt x="608" y="1140" on="1"/>
        <pt x="608" y="1189" on="0"/>
        <pt x="577" y="1275" on="0"/>
        <pt x="520" y="1339" on="0"/>
        <pt x="442" y="1376" on="0"/>
        <pt x="394" y="1376" on="1"/>
        <pt x="346" y="1376" on="0"/>
        <pt x="267" y="1339" on="0"/>
        <pt x="212" y="1275" on="0"/>
        <pt x="181" y="1189" on="0"/>
      </contour>
    </TTGlyph>
    <TTGlyph name="dieresis" xMin="80" yMin="1246" xMax="656" yMax="1511">
      <contour>
        <pt x="80" y="1379" on="1"/>
        <pt x="80" y="1436" on="0"/>
        <pt x="144" y="1511" on="0"/>
        <pt x="196" y="1511" on="1"/>
        <pt x="250" y="1511" on="0"/>
        <pt x="313" y="1435" on="0"/>
        <pt x="313" y="1379" on="1"/>
        <pt x="313" y="1321" on="0"/>
        <pt x="250" y="1246" on="0"/>
        <pt x="196" y="1246" on="1"/>
        <pt x="142" y="1246" on="0"/>
        <pt x="80" y="1319" on="0"/>
      </contour>
      <contour>
        <pt x="423" y="1379" on="1"/>
        <pt x="423" y="1436" on="0"/>
        <pt x="487" y="1511" on="0"/>
        <pt x="539" y="1511" on="1"/>
        <pt x="592" y="1511" on="0"/>
        <pt x="656" y="1434" on="0"/>
        <pt x="656" y="1379" on="1"/>
        <pt x="656" y="1321" on="0"/>
        <pt x="593" y="1246" on="0"/>
        <pt x="539" y="1246" on="1"/>
        <pt x="485" y="1246" on="0"/>
        <pt x="423" y="1319" on="0"/>
      </contour>
    </TTGlyph>
    <TTGlyph name="dieresis.case" xMin="80" yMin="1616" xMax="685" yMax="1885">
      <contour>
        <pt x="80" y="1751" on="1"/>
        <pt x="80" y="1779" on="0"/>
        <pt x="98" y="1828" on="0"/>
        <pt x="130" y="1864" on="0"/>
        <pt x="175" y="1885" on="0"/>
        <pt x="202" y="1885" on="1"/>
        <pt x="229" y="1885" on="0"/>
        <pt x="275" y="1864" on="0"/>
        <pt x="307" y="1828" on="0"/>
        <pt x="325" y="1779" on="0"/>
        <pt x="325" y="1751" on="1"/>
        <pt x="325" y="1722" on="0"/>
        <pt x="307" y="1673" on="0"/>
        <pt x="275" y="1637" on="0"/>
        <pt x="229" y="1616" on="0"/>
        <pt x="202" y="1616" on="1"/>
        <pt x="147" y="1616" on="0"/>
        <pt x="80" y="1693" on="0"/>
      </contour>
      <contour>
        <pt x="440" y="1751" on="1"/>
        <pt x="440" y="1779" on="0"/>
        <pt x="458" y="1828" on="0"/>
        <pt x="490" y="1864" on="0"/>
        <pt x="535" y="1885" on="0"/>
        <pt x="562" y="1885" on="1"/>
        <pt x="589" y="1885" on="0"/>
        <pt x="635" y="1864" on="0"/>
        <pt x="667" y="1828" on="0"/>
        <pt x="685" y="1779" on="0"/>
        <pt x="685" y="1751" on="1"/>
        <pt x="685" y="1722" on="0"/>
        <pt x="667" y="1673" on="0"/>
        <pt x="635" y="1637" on="0"/>
        <pt x="589" y="1616" on="0"/>
        <pt x="562" y="1616" on="1"/>
        <pt x="507" y="1616" on="0"/>
        <pt x="440" y="1693" on="0"/>
      </contour>
    </TTGlyph>
    <TTGlyph name="divide" xMin="117" yMin="93" xMax="1029" yMax="1162">
      <contour>
        <pt x="435" y="228" on="1"/>
        <pt x="435" y="291" on="0"/>
        <pt x="512" y="368" on="0"/>
        <pt x="573" y="368" on="1"/>
        <pt x="636" y="368" on="0"/>
        <pt x="711" y="291" on="0"/>
        <pt x="711" y="228" on="1"/>
        <pt x="711" y="167" on="0"/>
        <pt x="636" y="93" on="0"/>
        <pt x="573" y="93" on="1"/>
        <pt x="512" y="93" on="0"/>
        <pt x="435" y="168" on="0"/>
      </contour>
      <contour>
        <pt x="435" y="1022" on="1"/>
        <pt x="435" y="1085" on="0"/>
        <pt x="512" y="1162" on="0"/>
        <pt x="573" y="1162" on="1"/>
        <pt x="636" y="1162" on="0"/>
        <pt x="711" y="1085" on="0"/>
        <pt x="711" y="1022" on="1"/>
        <pt x="711" y="961" on="0"/>
        <pt x="636" y="887" on="0"/>
        <pt x="573" y="887" on="1"/>
        <pt x="512" y="887" on="0"/>
        <pt x="435" y="962" on="0"/>
      </contour>
      <contour>
        <pt x="117" y="586" on="1"/>
        <pt x="117" y="696" on="1"/>
        <pt x="1029" y="696" on="1"/>
        <pt x="1029" y="586" on="1"/>
      </contour>
    </TTGlyph>
    <TTGlyph name="dollar" xMin="24" yMin="-244" xMax="964" yMax="1653">
      <contour>
        <pt x="482" y="-35" on="1"/>
        <pt x="353" y="-34" on="0"/>
        <pt x="178" y="15" on="0"/>
        <pt x="70" y="93" on="0"/>
        <pt x="24" y="191" on="0"/>
        <pt x="24" y="241" on="1"/>
        <pt x="24" y="274" on="0"/>
        <pt x="44" y="331" on="0"/>
        <pt x="83" y="374" on="0"/>
        <pt x="140" y="399" on="0"/>
        <pt x="176" y="399" on="1"/>
        <pt x="209" y="399" on="0"/>
        <pt x="263" y="376" on="0"/>
        <pt x="300" y="337" on="0"/>
        <pt x="321" y="284" on="0"/>
        <pt x="321" y="253" on="1"/>
        <pt x="321" y="182" on="0"/>
        <pt x="239" y="110" on="0"/>
        <pt x="174" y="110" on="1"/>
        <pt x="174" y="106" on="1"/>
        <pt x="181" y="98" on="0"/>
        <pt x="222" y="70" on="0"/>
        <pt x="295" y="42" on="0"/>
        <pt x="402" y="21" on="0"/>
        <pt x="475" y="21" on="1"/>
        <pt x="482" y="21" on="1"/>
        <pt x="482" y="567" on="1"/>
        <pt x="458" y="579" on="0"/>
        <pt x="405" y="603" on="0"/>
        <pt x="376" y="617" on="1"/>
        <pt x="277" y="659" on="0"/>
        <pt x="150" y="760" on="0"/>
        <pt x="77" y="873" on="0"/>
        <pt x="49" y="996" on="0"/>
        <pt x="49" y="1061" on="1"/>
        <pt x="49" y="1142" on="0"/>
        <pt x="106" y="1285" on="0"/>
        <pt x="217" y="1394" on="0"/>
        <pt x="378" y="1459" on="0"/>
        <pt x="482" y="1461" on="1"/>
        <pt x="482" y="1653" on="1"/>
        <pt x="538" y="1653" on="1"/>
        <pt x="538" y="1461" on="1"/>
        <pt x="631" y="1456" on="0"/>
        <pt x="768" y="1405" on="0"/>
        <pt x="858" y="1327" on="0"/>
        <pt x="903" y="1227" on="0"/>
        <pt x="903" y="1173" on="1"/>
        <pt x="903" y="1143" on="0"/>
        <pt x="883" y="1088" on="0"/>
        <pt x="845" y="1047" on="0"/>
        <pt x="789" y="1022" on="0"/>
        <pt x="753" y="1022" on="1"/>
        <pt x="720" y="1022" on="0"/>
        <pt x="666" y="1044" on="0"/>
        <pt x="627" y="1082" on="0"/>
        <pt x="606" y="1134" on="0"/>
        <pt x="606" y="1165" on="1"/>
        <pt x="606" y="1200" on="0"/>
        <pt x="630" y="1255" on="0"/>
        <pt x="671" y="1292" on="0"/>
        <pt x="727" y="1311" on="0"/>
        <pt x="759" y="1311" on="1"/>
        <pt x="759" y="1315" on="1"/>
        <pt x="753" y="1322" on="0"/>
        <pt x="722" y="1349" on="0"/>
        <pt x="669" y="1377" on="0"/>
        <pt x="591" y="1401" on="0"/>
        <pt x="538" y="1405" on="1"/>
        <pt x="538" y="853" on="1"/>
        <pt x="655" y="799" on="0"/>
        <pt x="817" y="703" on="0"/>
        <pt x="918" y="594" on="0"/>
        <pt x="964" y="459" on="0"/>
        <pt x="964" y="366" on="1"/>
        <pt x="964" y="297" on="0"/>
        <pt x="912" y="160" on="0"/>
        <pt x="806" y="48" on="0"/>
        <pt x="646" y="-26" on="0"/>
        <pt x="538" y="-33" on="1"/>
        <pt x="538" y="-244" on="1"/>
        <pt x="482" y="-244" on="1"/>
      </contour>
      <contour>
        <pt x="203" y="1172" on="1"/>
        <pt x="203" y="1137" on="0"/>
        <pt x="221" y="1068" on="0"/>
        <pt x="279" y="997" on="0"/>
        <pt x="389" y="921" on="0"/>
        <pt x="482" y="879" on="1"/>
        <pt x="482" y="1407" on="1"/>
        <pt x="413" y="1405" on="0"/>
        <pt x="309" y="1369" on="0"/>
        <pt x="238" y="1308" on="0"/>
        <pt x="203" y="1223" on="0"/>
      </contour>
      <contour>
        <pt x="805" y="253" on="1"/>
        <pt x="805" y="291" on="0"/>
        <pt x="783" y="358" on="0"/>
        <pt x="724" y="426" on="0"/>
        <pt x="620" y="497" on="0"/>
        <pt x="538" y="539" on="1"/>
        <pt x="538" y="25" on="1"/>
        <pt x="590" y="32" on="0"/>
        <pt x="687" y="70" on="0"/>
        <pt x="761" y="128" on="0"/>
        <pt x="805" y="206" on="0"/>
      </contour>
    </TTGlyph>
    <TTGlyph name="dotlessi" xMin="57" yMin="0" xMax="528" yMax="1024">
      <contour>
        <pt x="57" y="965" on="1"/>
        <pt x="266" y="987" on="1"/>
        <pt x="407" y="1024" on="1"/>
        <pt x="425" y="995" on="1"/>
        <pt x="425" y="51" on="1"/>
        <pt x="528" y="41" on="1"/>
        <pt x="528" y="0" on="1"/>
        <pt x="77" y="0" on="1"/>
        <pt x="77" y="41" on="1"/>
        <pt x="180" y="51" on="1"/>
        <pt x="180" y="926" on="1"/>
        <pt x="59" y="924" on="1"/>
      </contour>
    </TTGlyph>
    <TTGlyph name="e" xMin="81" yMin="-30" xMax="905" yMax="1034">
      <contour>
        <pt x="81" y="502" on="1"/>
        <pt x="81" y="580" on="0"/>
        <pt x="111" y="729" on="0"/>
        <pt x="179" y="867" on="0"/>
        <pt x="277" y="971" on="0"/>
        <pt x="422" y="1034" on="0"/>
        <pt x="510" y="1034" on="1"/>
        <pt x="593" y="1034" on="0"/>
        <pt x="725" y="987" on="0"/>
        <pt x="813" y="903" on="0"/>
        <pt x="871" y="782" on="0"/>
        <pt x="896" y="641" on="0"/>
        <pt x="896" y="557" on="1"/>
        <pt x="869" y="532" on="1"/>
        <pt x="337" y="532" on="1"/>
        <pt x="337" y="471" on="1"/>
        <pt x="337" y="35" on="0"/>
        <pt x="585" y="35" on="1"/>
        <pt x="761" y="35" on="0"/>
        <pt x="866" y="211" on="1"/>
        <pt x="905" y="187" on="1"/>
        <pt x="776" y="-30" on="0"/>
        <pt x="538" y="-30" on="1"/>
        <pt x="308" y="-30" on="0"/>
        <pt x="81" y="254" on="0"/>
      </contour>
      <contour>
        <pt x="337" y="577" on="1"/>
        <pt x="660" y="590" on="1"/>
        <pt x="663" y="641" on="0"/>
        <pt x="663" y="688" on="1"/>
        <pt x="663" y="833" on="0"/>
        <pt x="594" y="989" on="0"/>
        <pt x="514" y="989" on="1"/>
        <pt x="466" y="989" on="0"/>
        <pt x="397" y="926" on="0"/>
        <pt x="359" y="808" on="0"/>
        <pt x="340" y="669" on="0"/>
      </contour>
    </TTGlyph>
    <TTGlyph name="eacute" xMin="81" yMin="-30" xMax="905" yMax="1569">
      <component glyphName="e" x="0" y="0" flags="0x204"/>
      <component glyphName="acute" x="331" y="0" flags="0x4"/>
    </TTGlyph>
    <TTGlyph name="ecircumflex" xMin="81" yMin="-30" xMax="905" yMax="1585">
      <component glyphName="e" x="0" y="0" flags="0x204"/>
      <component glyphName="circumflex" x="152" y="0" flags="0x4"/>
    </TTGlyph>
    <TTGlyph name="edieresis" xMin="81" yMin="-30" xMax="905" yMax="1511">
      <component glyphName="e" x="0" y="0" flags="0x204"/>
      <component glyphName="dieresis" x="129" y="0" flags="0x4"/>
    </TTGlyph>
    <TTGlyph name="egrave" xMin="81" yMin="-30" xMax="905" yMax="1582">
      <component glyphName="e" x="0" y="0" flags="0x204"/>
      <component glyphName="grave" x="230" y="0" flags="0x4"/>
    </TTGlyph>
    <TTGlyph name="eight" xMin="117" yMin="-35" xMax="1047" yMax="1462">
      <contour>
        <pt x="117" y="309" on="1"/>
        <pt x="117" y="371" on="0"/>
        <pt x="165" y="485" on="0"/>
        <pt x="252" y="580" on="0"/>
        <pt x="343" y="652" on="0"/>
        <pt x="402" y="688" on="1"/>
        <pt x="267" y="787" on="0"/>
        <pt x="131" y="1006" on="0"/>
        <pt x="131" y="1098" on="1"/>
        <pt x="131" y="1255" on="0"/>
        <pt x="381" y="1462" on="0"/>
        <pt x="571" y="1462" on="1"/>
        <pt x="726" y="1462" on="0"/>
        <pt x="956" y="1287" on="0"/>
        <pt x="956" y="1163" on="1"/>
        <pt x="956" y="1101" on="0"/>
        <pt x="917" y="995" on="0"/>
        <pt x="840" y="909" on="0"/>
        <pt x="759" y="845" on="0"/>
        <pt x="700" y="808" on="1"/>
        <pt x="744" y="777" on="0"/>
        <pt x="770" y="760" on="0"/>
        <pt x="851" y="700" on="0"/>
        <pt x="945" y="614" on="0"/>
        <pt x="1015" y="511" on="0"/>
        <pt x="1032" y="455" on="0"/>
        <pt x="1047" y="385" on="0"/>
        <pt x="1047" y="348" on="1"/>
        <pt x="1047" y="274" on="0"/>
        <pt x="990" y="140" on="0"/>
        <pt x="881" y="30" on="0"/>
        <pt x="700" y="-35" on="0"/>
        <pt x="586" y="-35" on="1"/>
        <pt x="364" y="-35" on="0"/>
        <pt x="117" y="144" on="0"/>
      </contour>
      <contour>
        <pt x="285" y="319" on="1"/>
        <pt x="285" y="270" on="0"/>
        <pt x="315" y="173" on="0"/>
        <pt x="379" y="79" on="0"/>
        <pt x="503" y="20" on="0"/>
        <pt x="586" y="20" on="1"/>
        <pt x="699" y="20" on="0"/>
        <pt x="859" y="143" on="0"/>
        <pt x="859" y="250" on="1"/>
        <pt x="859" y="288" on="0"/>
        <pt x="833" y="352" on="0"/>
        <pt x="787" y="412" on="0"/>
        <pt x="680" y="497" on="0"/>
        <pt x="622" y="538" on="1"/>
        <pt x="458" y="650" on="1"/>
        <pt x="376" y="583" on="0"/>
        <pt x="285" y="426" on="0"/>
      </contour>
      <contour>
        <pt x="332" y="1225" on="1"/>
        <pt x="332" y="1192" on="0"/>
        <pt x="354" y="1126" on="0"/>
        <pt x="381" y="1075" on="0"/>
        <pt x="441" y="1009" on="0"/>
        <pt x="478" y="972" on="0"/>
        <pt x="562" y="907" on="0"/>
        <pt x="578" y="896" on="1"/>
        <pt x="656" y="838" on="1"/>
        <pt x="812" y="960" on="0"/>
        <pt x="812" y="1145" on="1"/>
        <pt x="812" y="1274" on="0"/>
        <pt x="673" y="1407" on="0"/>
        <pt x="557" y="1407" on="1"/>
        <pt x="465" y="1407" on="0"/>
        <pt x="332" y="1305" on="0"/>
      </contour>
    </TTGlyph>
    <TTGlyph name="emdash" xMin="156" yMin="592" xMax="1289" yMax="702">
      <contour>
        <pt x="156" y="592" on="1"/>
        <pt x="156" y="702" on="1"/>
        <pt x="1289" y="702" on="1"/>
        <pt x="1289" y="592" on="1"/>
      </contour>
    </TTGlyph>
    <TTGlyph name="endash" xMin="117" yMin="592" xMax="950" yMax="702">
      <contour>
        <pt x="117" y="592" on="1"/>
        <pt x="117" y="702" on="1"/>
        <pt x="950" y="702" on="1"/>
        <pt x="950" y="592" on="1"/>
      </contour>
    </TTGlyph>
    <TTGlyph name="equal" xMin="117" yMin="398" xMax="1029" yMax="908">
      <contour>
        <pt x="117" y="398" on="1"/>
        <pt x="117" y="508" on="1"/>
        <pt x="1029" y="508" on="1"/>
        <pt x="1029" y="398" on="1"/>
      </contour>
      <contour>
        <pt x="117" y="798" on="1"/>
        <pt x="117" y="908" on="1"/>
        <pt x="1029" y="908" on="1"/>
        <pt x="1029" y="798" on="1"/>
      </contour>
    </TTGlyph>
    <TTGlyph name="eth" xMin="80" yMin="-30" xMax="991" yMax="1555">
      <contour>
        <pt x="80" y="496" on="1"/>
        <pt x="80" y="642" on="0"/>
        <pt x="192" y="884" on="0"/>
        <pt x="394" y="1024" on="0"/>
        <pt x="519" y="1024" on="1"/>
        <pt x="618" y="1024" on="0"/>
        <pt x="690" y="989" on="1"/>
        <pt x="623" y="1232" on="0"/>
        <pt x="464" y="1330" on="1"/>
        <pt x="349" y="1186" on="1"/>
        <pt x="313" y="1217" on="1"/>
        <pt x="414" y="1357" on="1"/>
        <pt x="321" y="1397" on="0"/>
        <pt x="208" y="1397" on="1"/>
        <pt x="209" y="1447" on="1"/>
        <pt x="246" y="1448" on="1"/>
        <pt x="351" y="1448" on="0"/>
        <pt x="456" y="1414" on="1"/>
        <pt x="558" y="1555" on="1"/>
        <pt x="609" y="1513" on="1"/>
        <pt x="513" y="1392" on="1"/>
        <pt x="660" y="1326" on="0"/>
        <pt x="880" y="1058" on="0"/>
        <pt x="991" y="729" on="0"/>
        <pt x="991" y="557" on="1"/>
        <pt x="991" y="271" on="0"/>
        <pt x="745" y="-30" on="0"/>
        <pt x="535" y="-30" on="1"/>
        <pt x="419" y="-30" on="0"/>
        <pt x="240" y="56" on="0"/>
        <pt x="133" y="205" on="0"/>
        <pt x="80" y="390" on="0"/>
      </contour>
      <contour>
        <pt x="336" y="508" on="1"/>
        <pt x="336" y="15" on="0"/>
        <pt x="531" y="15" on="1"/>
        <pt x="638" y="15" on="0"/>
        <pt x="739" y="275" on="0"/>
        <pt x="739" y="496" on="1"/>
        <pt x="739" y="763" on="0"/>
        <pt x="706" y="922" on="1"/>
        <pt x="648" y="971" on="0"/>
        <pt x="572" y="971" on="1"/>
        <pt x="502" y="971" on="0"/>
        <pt x="408" y="909" on="0"/>
        <pt x="357" y="783" on="0"/>
        <pt x="336" y="622" on="0"/>
      </contour>
    </TTGlyph>
    <TTGlyph name="exclam" xMin="125" yMin="-20" xMax="416" yMax="1462">
      <contour>
        <pt x="125" y="1294" on="1"/>
        <pt x="125" y="1326" on="0"/>
        <pt x="146" y="1387" on="0"/>
        <pt x="185" y="1434" on="0"/>
        <pt x="241" y="1462" on="0"/>
        <pt x="275" y="1462" on="1"/>
        <pt x="309" y="1462" on="0"/>
        <pt x="362" y="1434" on="0"/>
        <pt x="398" y="1387" on="0"/>
        <pt x="416" y="1327" on="0"/>
        <pt x="416" y="1294" on="1"/>
        <pt x="416" y="1266" on="0"/>
        <pt x="404" y="1161" on="0"/>
        <pt x="376" y="1018" on="0"/>
        <pt x="345" y="846" on="0"/>
        <pt x="317" y="658" on="0"/>
        <pt x="297" y="462" on="0"/>
        <pt x="294" y="366" on="1"/>
        <pt x="248" y="366" on="1"/>
        <pt x="245" y="462" on="0"/>
        <pt x="226" y="658" on="0"/>
        <pt x="197" y="846" on="0"/>
        <pt x="166" y="1018" on="0"/>
        <pt x="138" y="1161" on="0"/>
        <pt x="125" y="1266" on="0"/>
      </contour>
      <contour>
        <pt x="133" y="115" on="1"/>
        <pt x="133" y="178" on="0"/>
        <pt x="207" y="255" on="0"/>
        <pt x="268" y="255" on="1"/>
        <pt x="331" y="255" on="0"/>
        <pt x="409" y="178" on="0"/>
        <pt x="409" y="115" on="1"/>
        <pt x="409" y="54" on="0"/>
        <pt x="331" y="-20" on="0"/>
        <pt x="268" y="-20" on="1"/>
        <pt x="207" y="-20" on="0"/>
        <pt x="133" y="54" on="0"/>
      </contour>
    </TTGlyph>
    <TTGlyph name="exclamdown" xMin="124" yMin="-160" xMax="415" yMax="1321">
      <component glyphName="exclam" x="540" y="1302" scale="-0.999938964844" flags="0x0"/>
    </TTGlyph>
    <TTGlyph name="f" xMin="36" yMin="0" xMax="748" yMax="1448">
      <contour>
        <pt x="36" y="961" on="1"/>
        <pt x="36" y="1004" on="1"/>
        <pt x="183" y="1004" on="1"/>
        <pt x="184" y="1092" on="0"/>
        <pt x="214" y="1234" on="0"/>
        <pt x="258" y="1325" on="0"/>
        <pt x="323" y="1392" on="0"/>
        <pt x="381" y="1425" on="0"/>
        <pt x="453" y="1444" on="0"/>
        <pt x="497" y="1448" on="0"/>
        <pt x="523" y="1448" on="1"/>
        <pt x="630" y="1448" on="0"/>
        <pt x="748" y="1353" on="0"/>
        <pt x="748" y="1280" on="1"/>
        <pt x="748" y="1231" on="0"/>
        <pt x="685" y="1161" on="0"/>
        <pt x="632" y="1161" on="1"/>
        <pt x="580" y="1161" on="0"/>
        <pt x="519" y="1231" on="0"/>
        <pt x="519" y="1276" on="1"/>
        <pt x="519" y="1304" on="0"/>
        <pt x="542" y="1361" on="0"/>
        <pt x="562" y="1374" on="1"/>
        <pt x="562" y="1378" on="1"/>
        <pt x="559" y="1388" on="0"/>
        <pt x="530" y="1403" on="0"/>
        <pt x="511" y="1403" on="1"/>
        <pt x="483" y="1403" on="0"/>
        <pt x="448" y="1373" on="0"/>
        <pt x="433" y="1317" on="0"/>
        <pt x="429" y="1271" on="0"/>
        <pt x="429" y="1237" on="1"/>
        <pt x="429" y="1004" on="1"/>
        <pt x="670" y="1004" on="1"/>
        <pt x="670" y="961" on="1"/>
        <pt x="429" y="951" on="1"/>
        <pt x="429" y="51" on="1"/>
        <pt x="572" y="41" on="1"/>
        <pt x="572" y="0" on="1"/>
        <pt x="81" y="0" on="1"/>
        <pt x="81" y="41" on="1"/>
        <pt x="183" y="51" on="1"/>
        <pt x="183" y="951" on="1"/>
      </contour>
    </TTGlyph>
    <TTGlyph name="five" xMin="86" yMin="-35" xMax="960" yMax="1569">
      <contour>
        <pt x="86" y="231" on="1"/>
        <pt x="86" y="293" on="0"/>
        <pt x="168" y="386" on="0"/>
        <pt x="235" y="386" on="1"/>
        <pt x="301" y="386" on="0"/>
        <pt x="381" y="309" on="0"/>
        <pt x="381" y="247" on="1"/>
        <pt x="381" y="180" on="0"/>
        <pt x="298" y="105" on="0"/>
        <pt x="231" y="105" on="1"/>
        <pt x="231" y="101" on="1"/>
        <pt x="298" y="22" on="0"/>
        <pt x="450" y="22" on="1"/>
        <pt x="570" y="22" on="0"/>
        <pt x="692" y="227" on="0"/>
        <pt x="692" y="395" on="1"/>
        <pt x="691" y="466" on="0"/>
        <pt x="686" y="541" on="0"/>
        <pt x="677" y="589" on="0"/>
        <pt x="658" y="659" on="0"/>
        <pt x="631" y="704" on="0"/>
        <pt x="589" y="755" on="0"/>
        <pt x="535" y="785" on="0"/>
        <pt x="460" y="805" on="0"/>
        <pt x="415" y="805" on="1"/>
        <pt x="352" y="805" on="0"/>
        <pt x="234" y="750" on="0"/>
        <pt x="198" y="711" on="1"/>
        <pt x="153" y="737" on="1"/>
        <pt x="149" y="1427" on="1"/>
        <pt x="542" y="1427" on="1"/>
        <pt x="591" y="1427" on="0"/>
        <pt x="641" y="1428" on="0"/>
        <pt x="705" y="1432" on="0"/>
        <pt x="733" y="1439" on="0"/>
        <pt x="770" y="1453" on="0"/>
        <pt x="784" y="1472" on="0"/>
        <pt x="801" y="1504" on="0"/>
        <pt x="808" y="1542" on="0"/>
        <pt x="811" y="1569" on="1"/>
        <pt x="866" y="1569" on="1"/>
        <pt x="856" y="1239" on="1"/>
        <pt x="203" y="1245" on="1"/>
        <pt x="203" y="786" on="1"/>
        <pt x="321" y="865" on="0"/>
        <pt x="471" y="865" on="1"/>
        <pt x="580" y="865" on="0"/>
        <pt x="751" y="812" on="0"/>
        <pt x="860" y="724" on="0"/>
        <pt x="931" y="601" on="0"/>
        <pt x="960" y="471" on="0"/>
        <pt x="960" y="397" on="1"/>
        <pt x="960" y="322" on="0"/>
        <pt x="902" y="174" on="0"/>
        <pt x="790" y="45" on="0"/>
        <pt x="601" y="-35" on="0"/>
        <pt x="483" y="-35" on="1"/>
        <pt x="298" y="-35" on="0"/>
        <pt x="86" y="115" on="0"/>
      </contour>
    </TTGlyph>
    <TTGlyph name="florin" xMin="-137" yMin="-495" xMax="747" yMax="1448">
      <contour>
        <pt x="-137" y="-327" on="1"/>
        <pt x="-137" y="-278" on="0"/>
        <pt x="-74" y="-208" on="0"/>
        <pt x="-21" y="-208" on="1"/>
        <pt x="31" y="-208" on="0"/>
        <pt x="92" y="-278" on="0"/>
        <pt x="92" y="-323" on="1"/>
        <pt x="92" y="-348" on="0"/>
        <pt x="69" y="-409" on="0"/>
        <pt x="49" y="-421" on="1"/>
        <pt x="49" y="-425" on="1"/>
        <pt x="52" y="-435" on="0"/>
        <pt x="81" y="-450" on="0"/>
        <pt x="100" y="-450" on="1"/>
        <pt x="189" y="-450" on="0"/>
        <pt x="189" y="-284" on="1"/>
        <pt x="189" y="955" on="1"/>
        <pt x="5" y="961" on="1"/>
        <pt x="5" y="1004" on="1"/>
        <pt x="189" y="1004" on="1"/>
        <pt x="190" y="1092" on="0"/>
        <pt x="219" y="1234" on="0"/>
        <pt x="262" y="1325" on="0"/>
        <pt x="326" y="1392" on="0"/>
        <pt x="382" y="1425" on="0"/>
        <pt x="453" y="1444" on="0"/>
        <pt x="496" y="1448" on="0"/>
        <pt x="522" y="1448" on="1"/>
        <pt x="629" y="1448" on="0"/>
        <pt x="747" y="1353" on="0"/>
        <pt x="747" y="1280" on="1"/>
        <pt x="747" y="1231" on="0"/>
        <pt x="684" y="1161" on="0"/>
        <pt x="631" y="1161" on="1"/>
        <pt x="579" y="1161" on="0"/>
        <pt x="518" y="1231" on="0"/>
        <pt x="518" y="1276" on="1"/>
        <pt x="518" y="1301" on="0"/>
        <pt x="541" y="1362" on="0"/>
        <pt x="561" y="1374" on="1"/>
        <pt x="561" y="1378" on="1"/>
        <pt x="558" y="1388" on="0"/>
        <pt x="529" y="1403" on="0"/>
        <pt x="510" y="1403" on="1"/>
        <pt x="421" y="1403" on="0"/>
        <pt x="421" y="1237" on="1"/>
        <pt x="421" y="1004" on="1"/>
        <pt x="669" y="1004" on="1"/>
        <pt x="669" y="961" on="1"/>
        <pt x="421" y="951" on="1"/>
        <pt x="421" y="-38" on="1"/>
        <pt x="421" y="-118" on="0"/>
        <pt x="401" y="-250" on="0"/>
        <pt x="362" y="-341" on="0"/>
        <pt x="318" y="-411" on="0"/>
        <pt x="259" y="-453" on="0"/>
        <pt x="209" y="-480" on="0"/>
        <pt x="148" y="-492" on="0"/>
        <pt x="110" y="-495" on="0"/>
        <pt x="88" y="-495" on="1"/>
        <pt x="-19" y="-495" on="0"/>
        <pt x="-137" y="-400" on="0"/>
      </contour>
    </TTGlyph>
    <TTGlyph name="foundryicon" xMin="74" yMin="-372" xMax="2957" yMax="884">
      <contour>
        <pt x="2797" y="-12" on="1"/>
        <pt x="2752" y="-12" on="0"/>
        <pt x="2682" y="26" on="0"/>
        <pt x="2661" y="64" on="1"/>
        <pt x="2653" y="36" on="0"/>
        <pt x="2609" y="-12" on="0"/>
        <pt x="2577" y="-12" on="1"/>
        <pt x="2559" y="-12" on="0"/>
        <pt x="2528" y="3" on="0"/>
        <pt x="2502" y="25" on="0"/>
        <pt x="2482" y="53" on="0"/>
        <pt x="2477" y="66" on="1"/>
        <pt x="2473" y="53" on="0"/>
        <pt x="2454" y="30" on="0"/>
        <pt x="2430" y="13" on="0"/>
        <pt x="2403" y="2" on="0"/>
        <pt x="2391" y="1" on="1"/>
        <pt x="2341" y="-1" on="0"/>
        <pt x="2286" y="44" on="0"/>
        <pt x="2275" y="79" on="1"/>
        <pt x="2259" y="53" on="0"/>
        <pt x="2205" y="5" on="0"/>
        <pt x="2163" y="1" on="1"/>
        <pt x="2113" y="1" on="0"/>
        <pt x="2045" y="41" on="0"/>
        <pt x="2004" y="107" on="0"/>
        <pt x="1988" y="193" on="0"/>
        <pt x="1990" y="239" on="1"/>
        <pt x="1991" y="274" on="0"/>
        <pt x="1999" y="347" on="0"/>
        <pt x="2013" y="415" on="0"/>
        <pt x="2032" y="473" on="0"/>
        <pt x="2044" y="493" on="1"/>
        <pt x="2084" y="496" on="0"/>
        <pt x="2153" y="482" on="0"/>
        <pt x="2203" y="443" on="0"/>
        <pt x="2231" y="379" on="0"/>
        <pt x="2231" y="332" on="1"/>
        <pt x="2231" y="299" on="0"/>
        <pt x="2217" y="234" on="0"/>
        <pt x="2190" y="177" on="0"/>
        <pt x="2149" y="136" on="0"/>
        <pt x="2123" y="127" on="1"/>
        <pt x="2130" y="101" on="0"/>
        <pt x="2149" y="53" on="0"/>
        <pt x="2167" y="40" on="1"/>
        <pt x="2184" y="48" on="0"/>
        <pt x="2213" y="77" on="0"/>
        <pt x="2235" y="110" on="0"/>
        <pt x="2253" y="146" on="0"/>
        <pt x="2259" y="161" on="1"/>
        <pt x="2258" y="179" on="0"/>
        <pt x="2258" y="214" on="0"/>
        <pt x="2258" y="230" on="1"/>
        <pt x="2262" y="299" on="0"/>
        <pt x="2297" y="421" on="0"/>
        <pt x="2342" y="469" on="1"/>
        <pt x="2365" y="469" on="0"/>
        <pt x="2413" y="459" on="0"/>
        <pt x="2434" y="452" on="1"/>
        <pt x="2435" y="457" on="0"/>
        <pt x="2441" y="484" on="0"/>
        <pt x="2448" y="514" on="0"/>
        <pt x="2456" y="540" on="0"/>
        <pt x="2459" y="543" on="1"/>
        <pt x="2470" y="545" on="0"/>
        <pt x="2503" y="538" on="0"/>
        <pt x="2536" y="526" on="0"/>
        <pt x="2565" y="510" on="0"/>
        <pt x="2573" y="502" on="1"/>
        <pt x="2565" y="452" on="0"/>
        <pt x="2555" y="329" on="0"/>
        <pt x="2554" y="203" on="0"/>
        <pt x="2565" y="84" on="0"/>
        <pt x="2579" y="36" on="1"/>
        <pt x="2588" y="34" on="0"/>
        <pt x="2607" y="51" on="0"/>
        <pt x="2624" y="75" on="0"/>
        <pt x="2637" y="101" on="0"/>
        <pt x="2641" y="109" on="1"/>
        <pt x="2637" y="124" on="1"/>
        <pt x="2619" y="213" on="0"/>
        <pt x="2613" y="414" on="0"/>
        <pt x="2634" y="611" on="0"/>
        <pt x="2682" y="791" on="0"/>
        <pt x="2719" y="859" on="1"/>
        <pt x="2776" y="850" on="0"/>
        <pt x="2849" y="814" on="0"/>
        <pt x="2893" y="756" on="0"/>
        <pt x="2910" y="672" on="0"/>
        <pt x="2910" y="614" on="1"/>
        <pt x="2910" y="560" on="0"/>
        <pt x="2891" y="444" on="0"/>
        <pt x="2854" y="343" on="0"/>
        <pt x="2799" y="266" on="0"/>
        <pt x="2764" y="250" on="1"/>
        <pt x="2764" y="116" on="0"/>
        <pt x="2819" y="36" on="1"/>
        <pt x="2861" y="68" on="0"/>
        <pt x="2924" y="190" on="0"/>
        <pt x="2942" y="286" on="1"/>
        <pt x="2943" y="290" on="0"/>
        <pt x="2945" y="298" on="0"/>
        <pt x="2948" y="300" on="0"/>
        <pt x="2950" y="295" on="0"/>
        <pt x="2952" y="286" on="1"/>
        <pt x="2957" y="251" on="0"/>
        <pt x="2953" y="150" on="0"/>
        <pt x="2922" y="55" on="0"/>
        <pt x="2855" y="-12" on="0"/>
      </contour>
      <contour>
        <pt x="1582" y="482" on="1"/>
        <pt x="1594" y="381" on="0"/>
        <pt x="1597" y="175" on="0"/>
        <pt x="1578" y="-14" on="0"/>
        <pt x="1535" y="-179" on="0"/>
        <pt x="1466" y="-302" on="0"/>
        <pt x="1370" y="-372" on="0"/>
        <pt x="1307" y="-372" on="1"/>
        <pt x="1273" y="-372" on="0"/>
        <pt x="1230" y="-354" on="0"/>
        <pt x="1205" y="-318" on="0"/>
        <pt x="1195" y="-266" on="0"/>
        <pt x="1195" y="-232" on="1"/>
        <pt x="1195" y="-201" on="0"/>
        <pt x="1204" y="-144" on="0"/>
        <pt x="1212" y="-118" on="1"/>
        <pt x="1244" y="-118" on="0"/>
        <pt x="1313" y="-139" on="0"/>
        <pt x="1338" y="-165" on="1"/>
        <pt x="1333" y="-201" on="0"/>
        <pt x="1325" y="-290" on="0"/>
        <pt x="1336" y="-327" on="1"/>
        <pt x="1375" y="-301" on="0"/>
        <pt x="1418" y="-233" on="0"/>
        <pt x="1443" y="-146" on="0"/>
        <pt x="1457" y="-40" on="0"/>
        <pt x="1465" y="23" on="1"/>
        <pt x="1460" y="15" on="0"/>
        <pt x="1438" y="-1" on="0"/>
        <pt x="1426" y="-1" on="1"/>
        <pt x="1381" y="-1" on="0"/>
        <pt x="1316" y="50" on="0"/>
        <pt x="1297" y="92" on="1"/>
        <pt x="1289" y="72" on="0"/>
        <pt x="1267" y="33" on="0"/>
        <pt x="1232" y="0" on="0"/>
        <pt x="1185" y="-20" on="0"/>
        <pt x="1154" y="-20" on="1"/>
        <pt x="1080" y="-20" on="0"/>
        <pt x="976" y="43" on="0"/>
        <pt x="910" y="147" on="0"/>
        <pt x="879" y="278" on="0"/>
        <pt x="878" y="346" on="1"/>
        <pt x="877" y="423" on="0"/>
        <pt x="896" y="577" on="0"/>
        <pt x="940" y="718" on="0"/>
        <pt x="1012" y="839" on="0"/>
        <pt x="1065" y="884" on="1"/>
        <pt x="1094" y="878" on="0"/>
        <pt x="1162" y="859" on="0"/>
        <pt x="1221" y="816" on="0"/>
        <pt x="1260" y="741" on="0"/>
        <pt x="1260" y="681" on="1"/>
        <pt x="1260" y="636" on="0"/>
        <pt x="1213" y="559" on="0"/>
        <pt x="1178" y="528" on="1"/>
        <pt x="1172" y="522" on="0"/>
        <pt x="1166" y="520" on="0"/>
        <pt x="1164" y="523" on="0"/>
        <pt x="1164" y="530" on="0"/>
        <pt x="1165" y="532" on="1"/>
        <pt x="1169" y="558" on="0"/>
        <pt x="1164" y="620" on="0"/>
        <pt x="1153" y="678" on="0"/>
        <pt x="1137" y="725" on="0"/>
        <pt x="1129" y="736" on="1"/>
        <pt x="1113" y="721" on="0"/>
        <pt x="1084" y="653" on="0"/>
        <pt x="1062" y="561" on="0"/>
        <pt x="1048" y="451" on="0"/>
        <pt x="1044" y="337" on="0"/>
        <pt x="1052" y="224" on="0"/>
        <pt x="1076" y="125" on="0"/>
        <pt x="1116" y="48" on="0"/>
        <pt x="1146" y="27" on="1"/>
        <pt x="1171" y="34" on="0"/>
        <pt x="1211" y="67" on="0"/>
        <pt x="1243" y="106" on="0"/>
        <pt x="1265" y="147" on="0"/>
        <pt x="1271" y="163" on="1"/>
        <pt x="1260" y="208" on="0"/>
        <pt x="1249" y="307" on="0"/>
        <pt x="1249" y="358" on="1"/>
        <pt x="1249" y="405" on="0"/>
        <pt x="1263" y="472" on="0"/>
        <pt x="1273" y="493" on="1"/>
        <pt x="1283" y="491" on="0"/>
        <pt x="1314" y="485" on="0"/>
        <pt x="1348" y="475" on="0"/>
        <pt x="1382" y="458" on="0"/>
        <pt x="1394" y="446" on="1"/>
        <pt x="1389" y="343" on="0"/>
        <pt x="1396" y="150" on="0"/>
        <pt x="1424" y="62" on="1"/>
        <pt x="1438" y="65" on="0"/>
        <pt x="1448" y="88" on="0"/>
        <pt x="1450" y="96" on="1"/>
        <pt x="1463" y="155" on="0"/>
        <pt x="1465" y="282" on="0"/>
        <pt x="1455" y="402" on="0"/>
        <pt x="1439" y="507" on="0"/>
        <pt x="1433" y="543" on="1"/>
        <pt x="1449" y="544" on="0"/>
        <pt x="1490" y="536" on="0"/>
        <pt x="1532" y="519" on="0"/>
        <pt x="1569" y="496" on="0"/>
      </contour>
      <contour>
        <pt x="486" y="142" on="1"/>
        <pt x="477" y="142" on="0"/>
        <pt x="459" y="143" on="0"/>
        <pt x="451" y="144" on="1"/>
        <pt x="449" y="141" on="0"/>
        <pt x="441" y="128" on="0"/>
        <pt x="434" y="129" on="1"/>
        <pt x="431" y="127" on="0"/>
        <pt x="427" y="126" on="0"/>
        <pt x="425" y="124" on="1"/>
        <pt x="437" y="116" on="0"/>
        <pt x="464" y="98" on="0"/>
        <pt x="477" y="88" on="1"/>
        <pt x="485" y="87" on="0"/>
        <pt x="511" y="81" on="0"/>
        <pt x="522" y="68" on="1"/>
        <pt x="522" y="66" on="0"/>
        <pt x="520" y="65" on="0"/>
        <pt x="519" y="64" on="1"/>
        <pt x="511" y="71" on="0"/>
        <pt x="499" y="78" on="0"/>
        <pt x="487" y="80" on="1"/>
        <pt x="492" y="76" on="0"/>
        <pt x="503" y="62" on="0"/>
        <pt x="506" y="54" on="1"/>
        <pt x="505" y="51" on="0"/>
        <pt x="500" y="51" on="1"/>
        <pt x="494" y="61" on="0"/>
        <pt x="478" y="78" on="0"/>
        <pt x="467" y="80" on="1"/>
        <pt x="449" y="85" on="0"/>
        <pt x="424" y="77" on="1"/>
        <pt x="421" y="81" on="0"/>
        <pt x="422" y="84" on="1"/>
        <pt x="430" y="87" on="0"/>
        <pt x="448" y="88" on="0"/>
        <pt x="458" y="90" on="1"/>
        <pt x="441" y="104" on="0"/>
        <pt x="411" y="120" on="0"/>
        <pt x="411" y="125" on="1"/>
        <pt x="411" y="128" on="0"/>
        <pt x="419" y="134" on="1"/>
        <pt x="414" y="139" on="0"/>
        <pt x="414" y="152" on="0"/>
        <pt x="414" y="154" on="1"/>
        <pt x="383" y="164" on="0"/>
        <pt x="331" y="200" on="0"/>
        <pt x="288" y="241" on="0"/>
        <pt x="253" y="280" on="0"/>
        <pt x="239" y="295" on="1"/>
        <pt x="229" y="305" on="0"/>
        <pt x="187" y="316" on="0"/>
        <pt x="139" y="325" on="0"/>
        <pt x="93" y="339" on="0"/>
        <pt x="79" y="352" on="1"/>
        <pt x="74" y="357" on="0"/>
        <pt x="77" y="367" on="0"/>
        <pt x="82" y="366" on="1"/>
        <pt x="83" y="366" on="0"/>
        <pt x="110" y="363" on="0"/>
        <pt x="151" y="358" on="0"/>
        <pt x="199" y="354" on="0"/>
        <pt x="244" y="349" on="0"/>
        <pt x="279" y="346" on="0"/>
        <pt x="285" y="346" on="1"/>
        <pt x="337" y="356" on="0"/>
        <pt x="439" y="374" on="0"/>
        <pt x="521" y="392" on="0"/>
        <pt x="578" y="410" on="0"/>
        <pt x="587" y="418" on="1"/>
        <pt x="597" y="450" on="0"/>
        <pt x="645" y="488" on="0"/>
        <pt x="671" y="488" on="1"/>
        <pt x="683" y="488" on="0"/>
        <pt x="703" y="481" on="0"/>
        <pt x="711" y="476" on="1"/>
        <pt x="738" y="487" on="1"/>
        <pt x="740" y="487" on="0"/>
        <pt x="740" y="486" on="1"/>
        <pt x="740" y="484" on="1"/>
        <pt x="731" y="457" on="1"/>
        <pt x="739" y="457" on="0"/>
        <pt x="753" y="456" on="0"/>
        <pt x="758" y="457" on="1"/>
        <pt x="759" y="455" on="0"/>
        <pt x="759" y="455" on="1"/>
        <pt x="759" y="454" on="0"/>
        <pt x="758" y="454" on="1"/>
        <pt x="737" y="428" on="1"/>
        <pt x="718" y="399" on="0"/>
        <pt x="688" y="314" on="0"/>
        <pt x="647" y="230" on="0"/>
        <pt x="586" y="161" on="0"/>
        <pt x="538" y="148" on="1"/>
        <pt x="539" y="146" on="0"/>
        <pt x="536" y="132" on="0"/>
        <pt x="528" y="129" on="1"/>
        <pt x="520" y="123" on="1"/>
        <pt x="534" y="118" on="0"/>
        <pt x="565" y="107" on="0"/>
        <pt x="579" y="99" on="1"/>
        <pt x="589" y="100" on="0"/>
        <pt x="615" y="97" on="0"/>
        <pt x="631" y="87" on="1"/>
        <pt x="630" y="85" on="0"/>
        <pt x="628" y="84" on="1"/>
        <pt x="620" y="88" on="0"/>
        <pt x="605" y="93" on="0"/>
        <pt x="592" y="92" on="1"/>
        <pt x="598" y="89" on="0"/>
        <pt x="611" y="81" on="0"/>
        <pt x="614" y="73" on="1"/>
        <pt x="613" y="70" on="0"/>
        <pt x="610" y="70" on="1"/>
        <pt x="601" y="78" on="0"/>
        <pt x="581" y="90" on="0"/>
        <pt x="570" y="89" on="1"/>
        <pt x="559" y="88" on="0"/>
        <pt x="549" y="85" on="0"/>
        <pt x="538" y="80" on="1"/>
        <pt x="536" y="82" on="0"/>
        <pt x="535" y="82" on="0"/>
        <pt x="533" y="84" on="1"/>
        <pt x="540" y="91" on="0"/>
        <pt x="551" y="94" on="0"/>
        <pt x="560" y="97" on="1"/>
        <pt x="540" y="108" on="0"/>
        <pt x="507" y="117" on="0"/>
        <pt x="507" y="121" on="1"/>
        <pt x="507" y="125" on="0"/>
        <pt x="514" y="129" on="1"/>
        <pt x="509" y="129" on="0"/>
        <pt x="502" y="140" on="0"/>
        <pt x="502" y="142" on="1"/>
        <pt x="498" y="142" on="1"/>
      </contour>
      <contour>
        <pt x="1601" y="505" on="1"/>
        <pt x="1653" y="502" on="0"/>
        <pt x="1683" y="496" on="1"/>
        <pt x="1717" y="489" on="0"/>
        <pt x="1739" y="465" on="1"/>
        <pt x="1753" y="439" on="0"/>
        <pt x="1775" y="366" on="0"/>
        <pt x="1778" y="314" on="1"/>
        <pt x="1801" y="355" on="0"/>
        <pt x="1829" y="415" on="0"/>
        <pt x="1837" y="440" on="1"/>
        <pt x="1837" y="458" on="0"/>
        <pt x="1850" y="507" on="0"/>
        <pt x="1858" y="522" on="1"/>
        <pt x="1897" y="520" on="0"/>
        <pt x="1964" y="495" on="0"/>
        <pt x="1979" y="472" on="1"/>
        <pt x="1975" y="448" on="0"/>
        <pt x="1969" y="395" on="0"/>
        <pt x="1966" y="340" on="0"/>
        <pt x="1968" y="287" on="0"/>
        <pt x="1972" y="264" on="1"/>
        <pt x="1920" y="250" on="0"/>
        <pt x="1860" y="290" on="0"/>
        <pt x="1852" y="342" on="1"/>
        <pt x="1846" y="329" on="0"/>
        <pt x="1829" y="303" on="0"/>
        <pt x="1811" y="275" on="0"/>
        <pt x="1795" y="244" on="0"/>
        <pt x="1791" y="226" on="1"/>
        <pt x="1791" y="209" on="0"/>
        <pt x="1791" y="169" on="0"/>
        <pt x="1788" y="127" on="0"/>
        <pt x="1783" y="89" on="0"/>
        <pt x="1778" y="75" on="1"/>
        <pt x="1767" y="36" on="0"/>
        <pt x="1715" y="-14" on="0"/>
        <pt x="1672" y="-8" on="1"/>
        <pt x="1669" y="50" on="0"/>
        <pt x="1662" y="187" on="0"/>
        <pt x="1647" y="325" on="0"/>
        <pt x="1622" y="454" on="0"/>
      </contour>
      <contour>
        <pt x="2387" y="47" on="1"/>
        <pt x="2395" y="53" on="0"/>
        <pt x="2415" y="73" on="0"/>
        <pt x="2433" y="96" on="0"/>
        <pt x="2446" y="122" on="0"/>
        <pt x="2448" y="135" on="1"/>
        <pt x="2438" y="171" on="0"/>
        <pt x="2428" y="247" on="0"/>
        <pt x="2425" y="317" on="0"/>
        <pt x="2426" y="376" on="0"/>
        <pt x="2428" y="394" on="1"/>
        <pt x="2413" y="376" on="0"/>
        <pt x="2388" y="293" on="0"/>
        <pt x="2373" y="192" on="0"/>
        <pt x="2375" y="87" on="0"/>
      </contour>
      <contour>
        <pt x="2763" y="310" on="1"/>
        <pt x="2785" y="341" on="0"/>
        <pt x="2813" y="441" on="0"/>
        <pt x="2827" y="552" on="0"/>
        <pt x="2827" y="660" on="0"/>
        <pt x="2821" y="699" on="1"/>
        <pt x="2810" y="659" on="0"/>
        <pt x="2791" y="565" on="0"/>
        <pt x="2776" y="463" on="0"/>
        <pt x="2765" y="359" on="0"/>
      </contour>
      <contour>
        <pt x="2154" y="399" on="1"/>
        <pt x="2137" y="346" on="0"/>
        <pt x="2122" y="234" on="0"/>
        <pt x="2122" y="172" on="1"/>
        <pt x="2135" y="174" on="0"/>
        <pt x="2156" y="202" on="0"/>
        <pt x="2170" y="242" on="0"/>
        <pt x="2177" y="291" on="0"/>
        <pt x="2177" y="314" on="1"/>
        <pt x="2177" y="342" on="0"/>
        <pt x="2162" y="387" on="0"/>
      </contour>
      <contour>
        <pt x="728" y="70" on="1"/>
        <pt x="728" y="76" on="0"/>
        <pt x="738" y="76" on="1"/>
        <pt x="748" y="76" on="0"/>
        <pt x="748" y="70" on="1"/>
        <pt x="748" y="61" on="0"/>
        <pt x="738" y="61" on="1"/>
        <pt x="728" y="61" on="0"/>
      </contour>
      <contour>
        <pt x="831" y="65" on="1"/>
        <pt x="831" y="65" on="0"/>
        <pt x="832" y="67" on="1"/>
        <pt x="833" y="67" on="0"/>
        <pt x="833" y="68" on="1"/>
        <pt x="835" y="70" on="0"/>
        <pt x="835" y="70" on="1"/>
        <pt x="836" y="71" on="0"/>
        <pt x="839" y="73" on="1"/>
        <pt x="840" y="73" on="1"/>
        <pt x="845" y="73" on="0"/>
        <pt x="848" y="64" on="0"/>
        <pt x="848" y="62" on="1"/>
        <pt x="848" y="60" on="1"/>
        <pt x="848" y="59" on="0"/>
        <pt x="847" y="58" on="1"/>
        <pt x="845" y="54" on="0"/>
        <pt x="842" y="54" on="1"/>
        <pt x="840" y="54" on="1"/>
        <pt x="838" y="54" on="1"/>
        <pt x="831" y="54" on="0"/>
        <pt x="831" y="61" on="1"/>
        <pt x="831" y="62" on="1"/>
      </contour>
      <contour>
        <pt x="770" y="58" on="1"/>
        <pt x="772" y="60" on="0"/>
        <pt x="773" y="60" on="1"/>
        <pt x="773" y="61" on="0"/>
        <pt x="774" y="61" on="1"/>
        <pt x="776" y="61" on="1"/>
        <pt x="777" y="61" on="0"/>
        <pt x="777" y="62" on="0"/>
        <pt x="778" y="62" on="1"/>
        <pt x="781" y="62" on="1"/>
        <pt x="784" y="62" on="1"/>
        <pt x="785" y="62" on="0"/>
        <pt x="785" y="61" on="0"/>
        <pt x="786" y="61" on="1"/>
        <pt x="787" y="61" on="0"/>
        <pt x="789" y="59" on="1"/>
        <pt x="789" y="58" on="0"/>
        <pt x="790" y="57" on="0"/>
        <pt x="790" y="56" on="1"/>
        <pt x="790" y="54" on="0"/>
        <pt x="789" y="52" on="0"/>
        <pt x="789" y="50" on="1"/>
        <pt x="787" y="48" on="0"/>
        <pt x="787" y="48" on="1"/>
        <pt x="786" y="47" on="0"/>
        <pt x="785" y="47" on="1"/>
        <pt x="781" y="47" on="1"/>
        <pt x="778" y="47" on="1"/>
        <pt x="776" y="47" on="1"/>
        <pt x="772" y="49" on="1"/>
        <pt x="772" y="50" on="0"/>
        <pt x="771" y="50" on="0"/>
        <pt x="771" y="51" on="1"/>
        <pt x="770" y="52" on="0"/>
        <pt x="770" y="53" on="1"/>
        <pt x="770" y="56" on="1"/>
      </contour>
    </TTGlyph>
    <TTGlyph name="four" xMin="10" yMin="0" xMax="1083" yMax="1462">
      <contour>
        <pt x="10" y="330" on="1"/>
        <pt x="10" y="377" on="1"/>
        <pt x="772" y="1462" on="1"/>
        <pt x="827" y="1462" on="1"/>
        <pt x="827" y="384" on="1"/>
        <pt x="1083" y="387" on="1"/>
        <pt x="1083" y="330" on="1"/>
        <pt x="827" y="330" on="1"/>
        <pt x="827" y="55" on="1"/>
        <pt x="981" y="45" on="1"/>
        <pt x="981" y="0" on="1"/>
        <pt x="428" y="0" on="1"/>
        <pt x="428" y="45" on="1"/>
        <pt x="581" y="55" on="1"/>
        <pt x="581" y="330" on="1"/>
      </contour>
      <contour>
        <pt x="84" y="377" on="1"/>
        <pt x="581" y="382" on="1"/>
        <pt x="581" y="1091" on="1"/>
        <pt x="578" y="1091" on="1"/>
        <pt x="84" y="380" on="1"/>
      </contour>
    </TTGlyph>
    <TTGlyph name="foursuperior" xMin="43" yMin="710" xMax="617" yMax="1464">
      <contour>
        <pt x="43" y="861" on="1"/>
        <pt x="43" y="910" on="1"/>
        <pt x="426" y="1464" on="1"/>
        <pt x="513" y="1464" on="1"/>
        <pt x="513" y="914" on="1"/>
        <pt x="617" y="915" on="1"/>
        <pt x="617" y="861" on="1"/>
        <pt x="513" y="861" on="1"/>
        <pt x="513" y="761" on="1"/>
        <pt x="616" y="751" on="1"/>
        <pt x="616" y="710" on="1"/>
        <pt x="225" y="710" on="1"/>
        <pt x="225" y="751" on="1"/>
        <pt x="328" y="761" on="1"/>
        <pt x="328" y="861" on="1"/>
      </contour>
      <contour>
        <pt x="94" y="909" on="1"/>
        <pt x="328" y="910" on="1"/>
        <pt x="328" y="1236" on="1"/>
        <pt x="326" y="1236" on="1"/>
        <pt x="94" y="911" on="1"/>
      </contour>
    </TTGlyph>
    <TTGlyph name="fraction" xMin="-44" yMin="0" xMax="798" yMax="1462">
      <contour>
        <pt x="-44" y="0" on="1"/>
        <pt x="735" y="1462" on="1"/>
        <pt x="798" y="1462" on="1"/>
        <pt x="19" y="0" on="1"/>
      </contour>
    </TTGlyph>
    <TTGlyph name="g" xMin="66" yMin="-495" xMax="1123" yMax="1100">
      <contour>
        <pt x="66" y="-256" on="1"/>
        <pt x="66" y="-201" on="0"/>
        <pt x="117" y="-115" on="0"/>
        <pt x="193" y="-70" on="0"/>
        <pt x="262" y="-47" on="0"/>
        <pt x="289" y="-47" on="1"/>
        <pt x="289" y="-45" on="1"/>
        <pt x="103" y="11" on="0"/>
        <pt x="103" y="156" on="1"/>
        <pt x="103" y="243" on="0"/>
        <pt x="228" y="369" on="0"/>
        <pt x="300" y="390" on="1"/>
        <pt x="300" y="392" on="1"/>
        <pt x="209" y="434" on="0"/>
        <pt x="115" y="589" on="0"/>
        <pt x="115" y="685" on="1"/>
        <pt x="115" y="834" on="0"/>
        <pt x="354" y="1034" on="0"/>
        <pt x="529" y="1034" on="1"/>
        <pt x="695" y="1034" on="0"/>
        <pt x="805" y="947" on="1"/>
        <pt x="886" y="1100" on="0"/>
        <pt x="1000" y="1100" on="1"/>
        <pt x="1058" y="1100" on="0"/>
        <pt x="1123" y="1034" on="0"/>
        <pt x="1123" y="983" on="1"/>
        <pt x="1123" y="938" on="0"/>
        <pt x="1070" y="877" on="0"/>
        <pt x="1029" y="877" on="1"/>
        <pt x="983" y="877" on="0"/>
        <pt x="926" y="928" on="0"/>
        <pt x="926" y="973" on="1"/>
        <pt x="926" y="1004" on="0"/>
        <pt x="937" y="1022" on="1"/>
        <pt x="937" y="1026" on="1"/>
        <pt x="911" y="1021" on="0"/>
        <pt x="860" y="958" on="0"/>
        <pt x="842" y="913" on="1"/>
        <pt x="933" y="816" on="0"/>
        <pt x="933" y="687" on="1"/>
        <pt x="933" y="537" on="0"/>
        <pt x="703" y="347" on="0"/>
        <pt x="527" y="347" on="1"/>
        <pt x="429" y="347" on="0"/>
        <pt x="351" y="372" on="1"/>
        <pt x="291" y="351" on="0"/>
        <pt x="223" y="288" on="0"/>
        <pt x="223" y="254" on="1"/>
        <pt x="223" y="162" on="0"/>
        <pt x="555" y="162" on="1"/>
        <pt x="692" y="162" on="0"/>
        <pt x="866" y="133" on="0"/>
        <pt x="978" y="62" on="0"/>
        <pt x="1023" y="-52" on="0"/>
        <pt x="1023" y="-141" on="1"/>
        <pt x="1023" y="-189" on="0"/>
        <pt x="992" y="-285" on="0"/>
        <pt x="919" y="-379" on="0"/>
        <pt x="811" y="-451" on="0"/>
        <pt x="644" y="-495" on="0"/>
        <pt x="541" y="-495" on="1"/>
        <pt x="479" y="-495" on="0"/>
        <pt x="362" y="-485" on="0"/>
        <pt x="228" y="-453" on="0"/>
        <pt x="131" y="-403" on="0"/>
        <pt x="66" y="-314" on="0"/>
      </contour>
      <contour>
        <pt x="244" y="-225" on="1"/>
        <pt x="244" y="-287" on="0"/>
        <pt x="303" y="-376" on="0"/>
        <pt x="404" y="-422" on="0"/>
        <pt x="514" y="-443" on="0"/>
        <pt x="578" y="-443" on="1"/>
        <pt x="732" y="-443" on="0"/>
        <pt x="912" y="-323" on="0"/>
        <pt x="912" y="-227" on="1"/>
        <pt x="912" y="-165" on="0"/>
        <pt x="842" y="-95" on="0"/>
        <pt x="711" y="-72" on="0"/>
        <pt x="644" y="-70" on="1"/>
        <pt x="484" y="-67" on="1"/>
        <pt x="391" y="-65" on="0"/>
        <pt x="330" y="-55" on="1"/>
        <pt x="329" y="-56" on="1"/>
        <pt x="244" y="-117" on="0"/>
      </contour>
      <contour>
        <pt x="361" y="691" on="1"/>
        <pt x="361" y="546" on="0"/>
        <pt x="444" y="392" on="0"/>
        <pt x="525" y="392" on="1"/>
        <pt x="687" y="392" on="0"/>
        <pt x="687" y="685" on="1"/>
        <pt x="687" y="843" on="0"/>
        <pt x="613" y="989" on="0"/>
        <pt x="529" y="989" on="1"/>
        <pt x="448" y="989" on="0"/>
        <pt x="361" y="833" on="0"/>
      </contour>
    </TTGlyph>
    <TTGlyph name="germandbls" xMin="61" yMin="-30" xMax="1170" yMax="1448">
      <contour>
        <pt x="61" y="0" on="1"/>
        <pt x="61" y="41" on="1"/>
        <pt x="163" y="51" on="1"/>
        <pt x="163" y="991" on="1"/>
        <pt x="163" y="1102" on="0"/>
        <pt x="217" y="1257" on="0"/>
        <pt x="303" y="1358" on="0"/>
        <pt x="409" y="1415" on="0"/>
        <pt x="512" y="1442" on="0"/>
        <pt x="601" y="1448" on="0"/>
        <pt x="627" y="1448" on="1"/>
        <pt x="670" y="1448" on="0"/>
        <pt x="769" y="1438" on="0"/>
        <pt x="867" y="1411" on="0"/>
        <pt x="958" y="1363" on="0"/>
        <pt x="1027" y="1288" on="0"/>
        <pt x="1069" y="1181" on="0"/>
        <pt x="1069" y="1109" on="1"/>
        <pt x="1069" y="873" on="0"/>
        <pt x="670" y="800" on="1"/>
        <pt x="670" y="798" on="1"/>
        <pt x="676" y="798" on="0"/>
        <pt x="702" y="799" on="0"/>
        <pt x="709" y="799" on="1"/>
        <pt x="790" y="799" on="0"/>
        <pt x="954" y="762" on="0"/>
        <pt x="1087" y="665" on="0"/>
        <pt x="1170" y="497" on="0"/>
        <pt x="1170" y="366" on="1"/>
        <pt x="1170" y="327" on="0"/>
        <pt x="1155" y="238" on="0"/>
        <pt x="1120" y="150" on="0"/>
        <pt x="1060" y="69" on="0"/>
        <pt x="971" y="7" on="0"/>
        <pt x="850" y="-30" on="0"/>
        <pt x="770" y="-30" on="1"/>
        <pt x="714" y="-30" on="0"/>
        <pt x="610" y="-6" on="0"/>
        <pt x="530" y="48" on="0"/>
        <pt x="482" y="137" on="0"/>
        <pt x="482" y="202" on="1"/>
        <pt x="482" y="232" on="0"/>
        <pt x="500" y="286" on="0"/>
        <pt x="535" y="326" on="0"/>
        <pt x="583" y="349" on="0"/>
        <pt x="613" y="349" on="1"/>
        <pt x="667" y="349" on="0"/>
        <pt x="730" y="283" on="0"/>
        <pt x="732" y="232" on="1"/>
        <pt x="732" y="178" on="0"/>
        <pt x="668" y="113" on="0"/>
        <pt x="614" y="113" on="1"/>
        <pt x="595" y="113" on="0"/>
        <pt x="582" y="117" on="1"/>
        <pt x="582" y="115" on="1"/>
        <pt x="587" y="94" on="0"/>
        <pt x="616" y="58" on="0"/>
        <pt x="659" y="32" on="0"/>
        <pt x="713" y="17" on="0"/>
        <pt x="743" y="17" on="1"/>
        <pt x="787" y="17" on="0"/>
        <pt x="853" y="59" on="0"/>
        <pt x="897" y="135" on="0"/>
        <pt x="919" y="241" on="0"/>
        <pt x="919" y="305" on="1"/>
        <pt x="919" y="417" on="0"/>
        <pt x="893" y="573" on="0"/>
        <pt x="848" y="676" on="0"/>
        <pt x="788" y="733" on="0"/>
        <pt x="718" y="761" on="0"/>
        <pt x="642" y="767" on="0"/>
        <pt x="605" y="767" on="1"/>
        <pt x="559" y="767" on="1"/>
        <pt x="559" y="816" on="1"/>
        <pt x="604" y="816" on="1"/>
        <pt x="632" y="816" on="0"/>
        <pt x="711" y="847" on="0"/>
        <pt x="784" y="916" on="0"/>
        <pt x="835" y="1026" on="0"/>
        <pt x="835" y="1106" on="1"/>
        <pt x="835" y="1198" on="0"/>
        <pt x="799" y="1314" on="0"/>
        <pt x="740" y="1379" on="0"/>
        <pt x="666" y="1403" on="0"/>
        <pt x="627" y="1403" on="1"/>
        <pt x="562" y="1403" on="0"/>
        <pt x="478" y="1356" on="0"/>
        <pt x="429" y="1282" on="0"/>
        <pt x="409" y="1191" on="0"/>
        <pt x="409" y="1147" on="1"/>
        <pt x="408" y="0" on="1"/>
      </contour>
    </TTGlyph>
    <TTGlyph name="grave" xMin="85" yMin="1169" xMax="375" yMax="1582">
      <contour>
        <pt x="85" y="1489" on="1"/>
        <pt x="85" y="1528" on="0"/>
        <pt x="136" y="1582" on="0"/>
        <pt x="174" y="1582" on="1"/>
        <pt x="205" y="1582" on="0"/>
        <pt x="255" y="1543" on="0"/>
        <pt x="264" y="1513" on="1"/>
        <pt x="375" y="1195" on="1"/>
        <pt x="338" y="1169" on="1"/>
        <pt x="115" y="1409" on="1"/>
        <pt x="85" y="1440" on="0"/>
      </contour>
    </TTGlyph>
    <TTGlyph name="grave.case" xMin="71" yMin="1586" xMax="478" yMax="1848">
      <contour>
        <pt x="71" y="1763" on="1"/>
        <pt x="71" y="1804" on="0"/>
        <pt x="127" y="1848" on="0"/>
        <pt x="162" y="1848" on="1"/>
        <pt x="194" y="1848" on="0"/>
        <pt x="236" y="1815" on="1"/>
        <pt x="478" y="1624" on="1"/>
        <pt x="463" y="1586" on="1"/>
        <pt x="162" y="1666" on="1"/>
        <pt x="124" y="1674" on="0"/>
        <pt x="71" y="1724" on="0"/>
      </contour>
    </TTGlyph>
    <TTGlyph name="greater" xMin="90" yMin="174" xMax="1002" yMax="1114">
      <contour>
        <pt x="90" y="174" on="1"/>
        <pt x="90" y="296" on="1"/>
        <pt x="837" y="643" on="1"/>
        <pt x="837" y="645" on="1"/>
        <pt x="90" y="991" on="1"/>
        <pt x="90" y="1114" on="1"/>
        <pt x="1002" y="677" on="1"/>
        <pt x="1002" y="619" on="1"/>
      </contour>
    </TTGlyph>
    <TTGlyph name="guillemotleft" xMin="80" yMin="126" xMax="813" yMax="869">
      <contour>
        <pt x="80" y="479" on="1"/>
        <pt x="80" y="516" on="1"/>
        <pt x="437" y="839" on="1"/>
        <pt x="473" y="802" on="1"/>
        <pt x="251" y="498" on="1"/>
        <pt x="251" y="497" on="1"/>
        <pt x="473" y="193" on="1"/>
        <pt x="437" y="156" on="1"/>
      </contour>
      <contour>
        <pt x="420" y="479" on="1"/>
        <pt x="420" y="516" on="1"/>
        <pt x="777" y="869" on="1"/>
        <pt x="813" y="832" on="1"/>
        <pt x="591" y="498" on="1"/>
        <pt x="591" y="497" on="1"/>
        <pt x="813" y="163" on="1"/>
        <pt x="777" y="126" on="1"/>
      </contour>
    </TTGlyph>
    <TTGlyph name="guillemotright" xMin="87" yMin="126" xMax="820" yMax="869">
      <contour>
        <pt x="820" y="516" on="1"/>
        <pt x="820" y="479" on="1"/>
        <pt x="463" y="156" on="1"/>
        <pt x="427" y="193" on="1"/>
        <pt x="649" y="497" on="1"/>
        <pt x="649" y="498" on="1"/>
        <pt x="427" y="802" on="1"/>
        <pt x="463" y="839" on="1"/>
      </contour>
      <contour>
        <pt x="480" y="516" on="1"/>
        <pt x="480" y="479" on="1"/>
        <pt x="123" y="126" on="1"/>
        <pt x="87" y="163" on="1"/>
        <pt x="309" y="497" on="1"/>
        <pt x="309" y="498" on="1"/>
        <pt x="87" y="832" on="1"/>
        <pt x="123" y="869" on="1"/>
      </contour>
    </TTGlyph>
    <TTGlyph name="guilsinglleft" xMin="47" yMin="237" xMax="519" yMax="1057">
      <contour>
        <pt x="47" y="625" on="1"/>
        <pt x="47" y="669" on="1"/>
        <pt x="476" y="1057" on="1"/>
        <pt x="519" y="1012" on="1"/>
        <pt x="252" y="648" on="1"/>
        <pt x="252" y="646" on="1"/>
        <pt x="519" y="282" on="1"/>
        <pt x="476" y="237" on="1"/>
      </contour>
    </TTGlyph>
    <TTGlyph name="guilsinglright" xMin="76" yMin="237" xMax="548" yMax="1057">
      <contour>
        <pt x="548" y="669" on="1"/>
        <pt x="548" y="625" on="1"/>
        <pt x="119" y="237" on="1"/>
        <pt x="76" y="282" on="1"/>
        <pt x="343" y="646" on="1"/>
        <pt x="343" y="648" on="1"/>
        <pt x="76" y="1012" on="1"/>
        <pt x="119" y="1057" on="1"/>
      </contour>
    </TTGlyph>
    <TTGlyph name="h" xMin="41" yMin="0" xMax="1099" yMax="1448">
      <contour>
        <pt x="41" y="1348" on="1"/>
        <pt x="41" y="1389" on="1"/>
        <pt x="250" y="1411" on="1"/>
        <pt x="391" y="1448" on="1"/>
        <pt x="405" y="1419" on="1"/>
        <pt x="405" y="860" on="1"/>
        <pt x="409" y="860" on="1"/>
        <pt x="528" y="1034" on="0"/>
        <pt x="717" y="1034" on="1"/>
        <pt x="753" y="1034" on="0"/>
        <pt x="819" y="1022" on="0"/>
        <pt x="899" y="980" on="0"/>
        <pt x="957" y="912" on="0"/>
        <pt x="997" y="786" on="0"/>
        <pt x="997" y="702" on="1"/>
        <pt x="997" y="51" on="1"/>
        <pt x="1099" y="41" on="1"/>
        <pt x="1099" y="0" on="1"/>
        <pt x="649" y="0" on="1"/>
        <pt x="649" y="41" on="1"/>
        <pt x="751" y="51" on="1"/>
        <pt x="751" y="731" on="1"/>
        <pt x="751" y="944" on="0"/>
        <pt x="614" y="944" on="1"/>
        <pt x="524" y="944" on="0"/>
        <pt x="409" y="780" on="0"/>
        <pt x="409" y="647" on="1"/>
        <pt x="409" y="51" on="1"/>
        <pt x="512" y="41" on="1"/>
        <pt x="512" y="0" on="1"/>
        <pt x="61" y="0" on="1"/>
        <pt x="61" y="41" on="1"/>
        <pt x="164" y="51" on="1"/>
        <pt x="164" y="1348" on="1"/>
      </contour>
    </TTGlyph>
    <TTGlyph name="hyphen" xMin="117" yMin="592" xMax="629" yMax="702">
      <contour>
        <pt x="117" y="592" on="1"/>
        <pt x="117" y="702" on="1"/>
        <pt x="629" y="702" on="1"/>
        <pt x="629" y="592" on="1"/>
      </contour>
    </TTGlyph>
    <TTGlyph name="i" xMin="57" yMin="0" xMax="528" yMax="1511">
      <contour>
        <pt x="57" y="924" on="1"/>
        <pt x="57" y="965" on="1"/>
        <pt x="266" y="987" on="1"/>
        <pt x="407" y="1024" on="1"/>
        <pt x="425" y="995" on="1"/>
        <pt x="425" y="51" on="1"/>
        <pt x="528" y="41" on="1"/>
        <pt x="528" y="0" on="1"/>
        <pt x="77" y="0" on="1"/>
        <pt x="77" y="41" on="1"/>
        <pt x="180" y="51" on="1"/>
        <pt x="180" y="924" on="1"/>
      </contour>
      <contour>
        <pt x="166" y="1379" on="1"/>
        <pt x="166" y="1407" on="0"/>
        <pt x="187" y="1455" on="0"/>
        <pt x="223" y="1491" on="0"/>
        <pt x="271" y="1511" on="0"/>
        <pt x="298" y="1511" on="1"/>
        <pt x="325" y="1511" on="0"/>
        <pt x="373" y="1490" on="0"/>
        <pt x="410" y="1454" on="0"/>
        <pt x="431" y="1406" on="0"/>
        <pt x="431" y="1379" on="1"/>
        <pt x="431" y="1352" on="0"/>
        <pt x="410" y="1304" on="0"/>
        <pt x="374" y="1267" on="0"/>
        <pt x="326" y="1246" on="0"/>
        <pt x="298" y="1246" on="1"/>
        <pt x="270" y="1246" on="0"/>
        <pt x="222" y="1267" on="0"/>
        <pt x="186" y="1303" on="0"/>
        <pt x="166" y="1351" on="0"/>
      </contour>
    </TTGlyph>
    <TTGlyph name="iacute" xMin="57" yMin="0" xMax="528" yMax="1569">
      <component glyphName="dotlessi" x="0" y="0" flags="0x4"/>
      <component glyphName="acute" x="83" y="0" flags="0x4"/>
    </TTGlyph>
    <TTGlyph name="icircumflex" xMin="5" yMin="0" xMax="528" yMax="1585">
      <component glyphName="dotlessi" x="0" y="0" flags="0x4"/>
      <component glyphName="circumflex" x="-85" y="0" flags="0x4"/>
    </TTGlyph>
    <TTGlyph name="idieresis" xMin="-28" yMin="0" xMax="548" yMax="1511">
      <component glyphName="dotlessi" x="0" y="0" flags="0x4"/>
      <component glyphName="dieresis" x="-108" y="0" flags="0x4"/>
    </TTGlyph>
    <TTGlyph name="igrave" xMin="57" yMin="0" xMax="528" yMax="1582">
      <component glyphName="dotlessi" x="0" y="0" flags="0x4"/>
      <component glyphName="grave" x="-27" y="0" flags="0x4"/>
    </TTGlyph>
    <TTGlyph name="j" xMin="-160" yMin="-495" xMax="421" yMax="1511">
      <contour>
        <pt x="-160" y="-333" on="1"/>
        <pt x="-160" y="-308" on="0"/>
        <pt x="-142" y="-263" on="0"/>
        <pt x="-110" y="-228" on="0"/>
        <pt x="-66" y="-208" on="0"/>
        <pt x="-40" y="-208" on="1"/>
        <pt x="-13" y="-208" on="0"/>
        <pt x="30" y="-227" on="0"/>
        <pt x="60" y="-259" on="0"/>
        <pt x="75" y="-303" on="0"/>
        <pt x="75" y="-327" on="1"/>
        <pt x="75" y="-339" on="0"/>
        <pt x="68" y="-367" on="0"/>
        <pt x="55" y="-393" on="0"/>
        <pt x="36" y="-416" on="0"/>
        <pt x="24" y="-423" on="1"/>
        <pt x="24" y="-427" on="1"/>
        <pt x="38" y="-450" on="0"/>
        <pt x="73" y="-450" on="1"/>
        <pt x="90" y="-450" on="0"/>
        <pt x="124" y="-436" on="0"/>
        <pt x="152" y="-393" on="0"/>
        <pt x="169" y="-312" on="0"/>
        <pt x="169" y="-245" on="1"/>
        <pt x="169" y="924" on="1"/>
        <pt x="46" y="924" on="1"/>
        <pt x="46" y="965" on="1"/>
        <pt x="255" y="987" on="1"/>
        <pt x="397" y="1024" on="1"/>
        <pt x="415" y="995" on="1"/>
        <pt x="415" y="-45" on="1"/>
        <pt x="415" y="-156" on="0"/>
        <pt x="372" y="-308" on="0"/>
        <pt x="303" y="-408" on="0"/>
        <pt x="219" y="-463" on="0"/>
        <pt x="137" y="-490" on="0"/>
        <pt x="68" y="-495" on="0"/>
        <pt x="48" y="-495" on="1"/>
        <pt x="-9" y="-495" on="0"/>
        <pt x="-88" y="-469" on="0"/>
        <pt x="-137" y="-425" on="0"/>
        <pt x="-160" y="-366" on="0"/>
      </contour>
      <contour>
        <pt x="156" y="1379" on="1"/>
        <pt x="156" y="1407" on="0"/>
        <pt x="177" y="1455" on="0"/>
        <pt x="213" y="1491" on="0"/>
        <pt x="261" y="1511" on="0"/>
        <pt x="288" y="1511" on="1"/>
        <pt x="315" y="1511" on="0"/>
        <pt x="363" y="1490" on="0"/>
        <pt x="400" y="1454" on="0"/>
        <pt x="421" y="1406" on="0"/>
        <pt x="421" y="1379" on="1"/>
        <pt x="421" y="1352" on="0"/>
        <pt x="400" y="1304" on="0"/>
        <pt x="364" y="1267" on="0"/>
        <pt x="316" y="1246" on="0"/>
        <pt x="288" y="1246" on="1"/>
        <pt x="260" y="1246" on="0"/>
        <pt x="212" y="1267" on="0"/>
        <pt x="176" y="1303" on="0"/>
        <pt x="156" y="1351" on="0"/>
      </contour>
    </TTGlyph>
    <TTGlyph name="k" xMin="41" yMin="0" xMax="1091" yMax="1448">
      <contour>
        <pt x="41" y="1389" on="1"/>
        <pt x="250" y="1411" on="1"/>
        <pt x="391" y="1448" on="1"/>
        <pt x="409" y="1419" on="1"/>
        <pt x="409" y="51" on="1"/>
        <pt x="512" y="41" on="1"/>
        <pt x="512" y="0" on="1"/>
        <pt x="61" y="0" on="1"/>
        <pt x="61" y="41" on="1"/>
        <pt x="164" y="51" on="1"/>
        <pt x="164" y="1350" on="1"/>
        <pt x="43" y="1348" on="1"/>
      </contour>
      <contour>
        <pt x="409" y="522" on="1"/>
        <pt x="409" y="547" on="1"/>
        <pt x="798" y="952" on="1"/>
        <pt x="686" y="963" on="1"/>
        <pt x="686" y="1004" on="1"/>
        <pt x="985" y="1004" on="1"/>
        <pt x="985" y="963" on="1"/>
        <pt x="872" y="952" on="1"/>
        <pt x="585" y="647" on="1"/>
        <pt x="987" y="51" on="1"/>
        <pt x="1091" y="41" on="1"/>
        <pt x="1091" y="0" on="1"/>
        <pt x="633" y="0" on="1"/>
        <pt x="633" y="41" on="1"/>
        <pt x="714" y="51" on="1"/>
      </contour>
    </TTGlyph>
    <TTGlyph name="l" xMin="41" yMin="0" xMax="512" yMax="1448">
      <contour>
        <pt x="41" y="1348" on="1"/>
        <pt x="41" y="1389" on="1"/>
        <pt x="250" y="1411" on="1"/>
        <pt x="391" y="1448" on="1"/>
        <pt x="409" y="1419" on="1"/>
        <pt x="409" y="51" on="1"/>
        <pt x="512" y="41" on="1"/>
        <pt x="512" y="0" on="1"/>
        <pt x="61" y="0" on="1"/>
        <pt x="61" y="41" on="1"/>
        <pt x="164" y="51" on="1"/>
        <pt x="164" y="1348" on="1"/>
      </contour>
    </TTGlyph>
    <TTGlyph name="less" xMin="16" yMin="174" xMax="928" yMax="1114">
      <contour>
        <pt x="16" y="611" on="1"/>
        <pt x="16" y="669" on="1"/>
        <pt x="928" y="1114" on="1"/>
        <pt x="928" y="992" on="1"/>
        <pt x="181" y="645" on="1"/>
        <pt x="181" y="643" on="1"/>
        <pt x="928" y="297" on="1"/>
        <pt x="928" y="174" on="1"/>
      </contour>
    </TTGlyph>
    <TTGlyph name="logicalnot" xMin="117" yMin="350" xMax="1029" yMax="702">
      <contour>
        <pt x="117" y="592" on="1"/>
        <pt x="117" y="702" on="1"/>
        <pt x="1029" y="702" on="1"/>
        <pt x="1029" y="350" on="1"/>
        <pt x="919" y="350" on="1"/>
        <pt x="919" y="592" on="1"/>
      </contour>
    </TTGlyph>
    <TTGlyph name="m" xMin="57" yMin="0" xMax="1652" yMax="1034">
      <contour>
        <pt x="57" y="924" on="1"/>
        <pt x="57" y="965" on="1"/>
        <pt x="266" y="987" on="1"/>
        <pt x="407" y="1024" on="1"/>
        <pt x="421" y="995" on="1"/>
        <pt x="421" y="860" on="1"/>
        <pt x="425" y="860" on="1"/>
        <pt x="544" y="1034" on="0"/>
        <pt x="712" y="1034" on="1"/>
        <pt x="747" y="1034" on="0"/>
        <pt x="813" y="1019" on="0"/>
        <pt x="886" y="982" on="0"/>
        <pt x="946" y="903" on="0"/>
        <pt x="963" y="847" on="1"/>
        <pt x="965" y="847" on="1"/>
        <pt x="1099" y="1034" on="0"/>
        <pt x="1277" y="1034" on="1"/>
        <pt x="1312" y="1034" on="0"/>
        <pt x="1378" y="1021" on="0"/>
        <pt x="1455" y="977" on="0"/>
        <pt x="1511" y="907" on="0"/>
        <pt x="1549" y="780" on="0"/>
        <pt x="1549" y="696" on="1"/>
        <pt x="1549" y="51" on="1"/>
        <pt x="1652" y="41" on="1"/>
        <pt x="1652" y="0" on="1"/>
        <pt x="1201" y="0" on="1"/>
        <pt x="1201" y="41" on="1"/>
        <pt x="1303" y="51" on="1"/>
        <pt x="1303" y="731" on="1"/>
        <pt x="1303" y="790" on="0"/>
        <pt x="1282" y="875" on="0"/>
        <pt x="1255" y="917" on="0"/>
        <pt x="1215" y="940" on="0"/>
        <pt x="1191" y="944" on="0"/>
        <pt x="1176" y="944" on="1"/>
        <pt x="1109" y="944" on="0"/>
        <pt x="982" y="796" on="0"/>
        <pt x="982" y="667" on="1"/>
        <pt x="982" y="51" on="1"/>
        <pt x="1085" y="41" on="1"/>
        <pt x="1085" y="0" on="1"/>
        <pt x="634" y="0" on="1"/>
        <pt x="634" y="41" on="1"/>
        <pt x="736" y="51" on="1"/>
        <pt x="736" y="731" on="1"/>
        <pt x="736" y="790" on="0"/>
        <pt x="716" y="875" on="0"/>
        <pt x="689" y="917" on="0"/>
        <pt x="650" y="940" on="0"/>
        <pt x="626" y="944" on="0"/>
        <pt x="611" y="944" on="1"/>
        <pt x="547" y="944" on="0"/>
        <pt x="425" y="772" on="0"/>
        <pt x="425" y="647" on="1"/>
        <pt x="425" y="51" on="1"/>
        <pt x="528" y="41" on="1"/>
        <pt x="528" y="0" on="1"/>
        <pt x="77" y="0" on="1"/>
        <pt x="77" y="41" on="1"/>
        <pt x="180" y="51" on="1"/>
        <pt x="180" y="924" on="1"/>
      </contour>
    </TTGlyph>
    <TTGlyph name="macron" xMin="0" yMin="1341" xMax="959" yMax="1427">
      <contour>
        <pt x="0" y="1341" on="1"/>
        <pt x="0" y="1427" on="1"/>
        <pt x="959" y="1427" on="1"/>
        <pt x="959" y="1341" on="1"/>
      </contour>
    </TTGlyph>
    <TTGlyph name="minus" xMin="117" yMin="592" xMax="1029" yMax="702">
      <contour>
        <pt x="117" y="592" on="1"/>
        <pt x="117" y="702" on="1"/>
        <pt x="1029" y="702" on="1"/>
        <pt x="1029" y="592" on="1"/>
      </contour>
    </TTGlyph>
    <TTGlyph name="mu" xMin="147" yMin="-451" xMax="980" yMax="1004">
      <contour>
        <pt x="147" y="-119" on="1"/>
        <pt x="147" y="1004" on="1"/>
        <pt x="393" y="1004" on="1"/>
        <pt x="393" y="302" on="1"/>
        <pt x="393" y="89" on="0"/>
        <pt x="530" y="89" on="1"/>
        <pt x="598" y="89" on="0"/>
        <pt x="716" y="214" on="0"/>
        <pt x="735" y="296" on="1"/>
        <pt x="735" y="1004" on="1"/>
        <pt x="980" y="1004" on="1"/>
        <pt x="980" y="0" on="1"/>
        <pt x="753" y="0" on="1"/>
        <pt x="735" y="29" on="1"/>
        <pt x="739" y="173" on="1"/>
        <pt x="735" y="173" on="1"/>
        <pt x="616" y="-1" on="0"/>
        <pt x="427" y="-1" on="1"/>
        <pt x="369" y="-1" on="0"/>
        <pt x="323" y="15" on="1"/>
        <pt x="323" y="-198" on="1"/>
        <pt x="323" y="-319" on="0"/>
        <pt x="390" y="-411" on="0"/>
        <pt x="460" y="-411" on="1"/>
        <pt x="460" y="-451" on="1"/>
        <pt x="357" y="-451" on="1"/>
        <pt x="246" y="-451" on="0"/>
        <pt x="147" y="-295" on="0"/>
      </contour>
    </TTGlyph>
    <TTGlyph name="multiply" xMin="117" yMin="212" xMax="1029" yMax="1081">
      <contour>
        <pt x="117" y="302" on="1"/>
        <pt x="493" y="647" on="1"/>
        <pt x="117" y="1002" on="1"/>
        <pt x="190" y="1081" on="1"/>
        <pt x="574" y="721" on="1"/>
        <pt x="964" y="1080" on="1"/>
        <pt x="1029" y="1002" on="1"/>
        <pt x="650" y="650" on="1"/>
        <pt x="1029" y="295" on="1"/>
        <pt x="954" y="212" on="1"/>
        <pt x="569" y="575" on="1"/>
        <pt x="191" y="224" on="1"/>
      </contour>
    </TTGlyph>
    <TTGlyph name="n" xMin="56" yMin="0" xMax="1114" yMax="1034">
      <contour>
        <pt x="56" y="965" on="1"/>
        <pt x="265" y="987" on="1"/>
        <pt x="406" y="1024" on="1"/>
        <pt x="424" y="995" on="1"/>
        <pt x="420" y="860" on="1"/>
        <pt x="424" y="860" on="1"/>
        <pt x="543" y="1034" on="0"/>
        <pt x="732" y="1034" on="1"/>
        <pt x="768" y="1034" on="0"/>
        <pt x="834" y="1022" on="0"/>
        <pt x="914" y="980" on="0"/>
        <pt x="972" y="912" on="0"/>
        <pt x="1012" y="786" on="0"/>
        <pt x="1012" y="702" on="1"/>
        <pt x="1012" y="51" on="1"/>
        <pt x="1114" y="41" on="1"/>
        <pt x="1114" y="0" on="1"/>
        <pt x="664" y="0" on="1"/>
        <pt x="664" y="41" on="1"/>
        <pt x="766" y="51" on="1"/>
        <pt x="766" y="731" on="1"/>
        <pt x="766" y="944" on="0"/>
        <pt x="629" y="944" on="1"/>
        <pt x="539" y="944" on="0"/>
        <pt x="424" y="780" on="0"/>
        <pt x="424" y="647" on="1"/>
        <pt x="424" y="51" on="1"/>
        <pt x="527" y="41" on="1"/>
        <pt x="527" y="0" on="1"/>
        <pt x="76" y="0" on="1"/>
        <pt x="76" y="41" on="1"/>
        <pt x="179" y="51" on="1"/>
        <pt x="179" y="926" on="1"/>
        <pt x="58" y="924" on="1"/>
      </contour>
    </TTGlyph>
    <TTGlyph name="nine" xMin="86" yMin="-35" xMax="1018" yMax="1462">
      <contour>
        <pt x="86" y="999" on="1"/>
        <pt x="86" y="1060" on="0"/>
        <pt x="115" y="1182" on="0"/>
        <pt x="186" y="1307" on="0"/>
        <pt x="290" y="1402" on="0"/>
        <pt x="454" y="1462" on="0"/>
        <pt x="555" y="1462" on="1"/>
        <pt x="644" y="1462" on="0"/>
        <pt x="787" y="1416" on="0"/>
        <pt x="882" y="1344" on="0"/>
        <pt x="952" y="1234" on="0"/>
        <pt x="990" y="1125" on="0"/>
        <pt x="1012" y="984" on="0"/>
        <pt x="1018" y="874" on="0"/>
        <pt x="1018" y="806" on="1"/>
        <pt x="1018" y="385" on="0"/>
        <pt x="769" y="-35" on="0"/>
        <pt x="509" y="-35" on="1"/>
        <pt x="422" y="-35" on="0"/>
        <pt x="287" y="6" on="0"/>
        <pt x="214" y="66" on="0"/>
        <pt x="167" y="144" on="0"/>
        <pt x="153" y="205" on="0"/>
        <pt x="153" y="234" on="1"/>
        <pt x="153" y="294" on="0"/>
        <pt x="226" y="385" on="0"/>
        <pt x="298" y="385" on="1"/>
        <pt x="354" y="385" on="0"/>
        <pt x="428" y="310" on="0"/>
        <pt x="428" y="249" on="1"/>
        <pt x="428" y="191" on="0"/>
        <pt x="354" y="114" on="0"/>
        <pt x="295" y="109" on="1"/>
        <pt x="295" y="105" on="1"/>
        <pt x="309" y="72" on="0"/>
        <pt x="416" y="20" on="0"/>
        <pt x="491" y="20" on="1"/>
        <pt x="540" y="20" on="0"/>
        <pt x="618" y="43" on="0"/>
        <pt x="673" y="100" on="0"/>
        <pt x="713" y="157" on="0"/>
        <pt x="738" y="264" on="0"/>
        <pt x="752" y="344" on="0"/>
        <pt x="759" y="493" on="0"/>
        <pt x="760" y="586" on="0"/>
        <pt x="760" y="675" on="1"/>
        <pt x="721" y="614" on="0"/>
        <pt x="584" y="542" on="0"/>
        <pt x="496" y="542" on="1"/>
        <pt x="388" y="542" on="0"/>
        <pt x="225" y="616" on="0"/>
        <pt x="131" y="745" on="0"/>
        <pt x="86" y="905" on="0"/>
      </contour>
      <contour>
        <pt x="351" y="1019" on="1"/>
        <pt x="351" y="958" on="0"/>
        <pt x="355" y="874" on="0"/>
        <pt x="367" y="771" on="0"/>
        <pt x="393" y="703" on="0"/>
        <pt x="435" y="642" on="0"/>
        <pt x="502" y="612" on="0"/>
        <pt x="547" y="612" on="1"/>
        <pt x="618" y="612" on="0"/>
        <pt x="744" y="711" on="0"/>
        <pt x="760" y="786" on="1"/>
        <pt x="760" y="799" on="0"/>
        <pt x="761" y="847" on="0"/>
        <pt x="761" y="858" on="1"/>
        <pt x="761" y="1019" on="0"/>
        <pt x="730" y="1243" on="0"/>
        <pt x="674" y="1359" on="0"/>
        <pt x="608" y="1407" on="0"/>
        <pt x="566" y="1407" on="1"/>
        <pt x="457" y="1407" on="0"/>
        <pt x="351" y="1191" on="0"/>
      </contour>
    </TTGlyph>
    <TTGlyph name="ntilde" xMin="56" yMin="0" xMax="1114" yMax="1498">
      <component glyphName="n" x="0" y="0" flags="0x204"/>
      <component glyphName="tilde" x="171" y="0" flags="0x4"/>
    </TTGlyph>
    <TTGlyph name="numbersign" xMin="26" yMin="-35" xMax="1335" yMax="1462">
      <contour>
        <pt x="26" y="403" on="1"/>
        <pt x="45" y="537" on="1"/>
        <pt x="350" y="537" on="1"/>
        <pt x="413" y="915" on="1"/>
        <pt x="112" y="915" on="1"/>
        <pt x="131" y="1049" on="1"/>
        <pt x="436" y="1049" on="1"/>
        <pt x="506" y="1462" on="1"/>
        <pt x="629" y="1462" on="1"/>
        <pt x="559" y="1049" on="1"/>
        <pt x="923" y="1049" on="1"/>
        <pt x="993" y="1462" on="1"/>
        <pt x="1116" y="1462" on="1"/>
        <pt x="1046" y="1049" on="1"/>
        <pt x="1335" y="1049" on="1"/>
        <pt x="1317" y="915" on="1"/>
        <pt x="1023" y="915" on="1"/>
        <pt x="960" y="537" on="1"/>
        <pt x="1253" y="537" on="1"/>
        <pt x="1235" y="403" on="1"/>
        <pt x="937" y="403" on="1"/>
        <pt x="864" y="-35" on="1"/>
        <pt x="741" y="-35" on="1"/>
        <pt x="814" y="403" on="1"/>
        <pt x="450" y="403" on="1"/>
        <pt x="377" y="-35" on="1"/>
        <pt x="254" y="-35" on="1"/>
        <pt x="327" y="403" on="1"/>
      </contour>
      <contour>
        <pt x="473" y="537" on="1"/>
        <pt x="837" y="537" on="1"/>
        <pt x="900" y="915" on="1"/>
        <pt x="536" y="915" on="1"/>
      </contour>
    </TTGlyph>
    <TTGlyph name="o" xMin="80" yMin="-30" xMax="992" yMax="1034">
      <contour>
        <pt x="80" y="496" on="1"/>
        <pt x="80" y="647" on="0"/>
        <pt x="197" y="893" on="0"/>
        <pt x="408" y="1034" on="0"/>
        <pt x="541" y="1034" on="1"/>
        <pt x="651" y="1034" on="0"/>
        <pt x="828" y="943" on="0"/>
        <pt x="935" y="791" on="0"/>
        <pt x="992" y="604" on="0"/>
        <pt x="992" y="502" on="1"/>
        <pt x="992" y="355" on="0"/>
        <pt x="880" y="113" on="0"/>
        <pt x="671" y="-30" on="0"/>
        <pt x="539" y="-30" on="1"/>
        <pt x="422" y="-30" on="0"/>
        <pt x="243" y="53" on="0"/>
        <pt x="134" y="200" on="0"/>
        <pt x="80" y="386" on="0"/>
      </contour>
      <contour>
        <pt x="336" y="508" on="1"/>
        <pt x="336" y="397" on="0"/>
        <pt x="358" y="222" on="0"/>
        <pt x="404" y="87" on="0"/>
        <pt x="482" y="15" on="0"/>
        <pt x="535" y="15" on="1"/>
        <pt x="736" y="15" on="0"/>
        <pt x="736" y="496" on="1"/>
        <pt x="736" y="617" on="0"/>
        <pt x="717" y="791" on="0"/>
        <pt x="672" y="924" on="0"/>
        <pt x="592" y="989" on="0"/>
        <pt x="535" y="989" on="1"/>
        <pt x="482" y="989" on="0"/>
        <pt x="404" y="917" on="0"/>
        <pt x="358" y="785" on="0"/>
        <pt x="336" y="615" on="0"/>
      </contour>
    </TTGlyph>
    <TTGlyph name="oacute" xMin="80" yMin="-30" xMax="992" yMax="1569">
      <component glyphName="o" x="0" y="0" flags="0x204"/>
      <component glyphName="acute" x="333" y="0" flags="0x4"/>
    </TTGlyph>
    <TTGlyph name="ocircumflex" xMin="80" yMin="-30" xMax="992" yMax="1585">
      <component glyphName="o" x="0" y="0" flags="0x204"/>
      <component glyphName="circumflex" x="194" y="0" flags="0x4"/>
    </TTGlyph>
    <TTGlyph name="odieresis" xMin="80" yMin="-30" xMax="992" yMax="1511">
      <component glyphName="o" x="0" y="0" flags="0x204"/>
      <component glyphName="dieresis" x="181" y="0" flags="0x4"/>
    </TTGlyph>
    <TTGlyph name="oe" xMin="80" yMin="-30" xMax="1544" yMax="1034">
      <contour>
        <pt x="80" y="496" on="1"/>
        <pt x="80" y="647" on="0"/>
        <pt x="197" y="893" on="0"/>
        <pt x="408" y="1034" on="0"/>
        <pt x="541" y="1034" on="1"/>
        <pt x="741" y="1034" on="0"/>
        <pt x="844" y="868" on="1"/>
        <pt x="846" y="868" on="1"/>
        <pt x="950" y="1034" on="0"/>
        <pt x="1149" y="1034" on="1"/>
        <pt x="1351" y="1034" on="0"/>
        <pt x="1535" y="783" on="0"/>
        <pt x="1535" y="565" on="1"/>
        <pt x="1508" y="540" on="1"/>
        <pt x="976" y="540" on="1"/>
        <pt x="976" y="479" on="1"/>
        <pt x="976" y="43" on="0"/>
        <pt x="1224" y="43" on="1"/>
        <pt x="1400" y="43" on="0"/>
        <pt x="1505" y="219" on="1"/>
        <pt x="1544" y="195" on="1"/>
        <pt x="1415" y="-22" on="0"/>
        <pt x="1177" y="-22" on="1"/>
        <pt x="1057" y="-22" on="0"/>
        <pt x="903" y="47" on="0"/>
        <pt x="848" y="139" on="1"/>
        <pt x="846" y="139" on="1"/>
        <pt x="791" y="46" on="0"/>
        <pt x="640" y="-30" on="0"/>
        <pt x="539" y="-30" on="1"/>
        <pt x="422" y="-30" on="0"/>
        <pt x="243" y="53" on="0"/>
        <pt x="134" y="200" on="0"/>
        <pt x="80" y="386" on="0"/>
      </contour>
      <contour>
        <pt x="336" y="508" on="1"/>
        <pt x="336" y="397" on="0"/>
        <pt x="358" y="222" on="0"/>
        <pt x="404" y="87" on="0"/>
        <pt x="482" y="15" on="0"/>
        <pt x="535" y="15" on="1"/>
        <pt x="736" y="15" on="0"/>
        <pt x="736" y="496" on="1"/>
        <pt x="736" y="617" on="0"/>
        <pt x="717" y="791" on="0"/>
        <pt x="672" y="924" on="0"/>
        <pt x="592" y="989" on="0"/>
        <pt x="535" y="989" on="1"/>
        <pt x="482" y="989" on="0"/>
        <pt x="404" y="917" on="0"/>
        <pt x="358" y="785" on="0"/>
        <pt x="336" y="615" on="0"/>
      </contour>
      <contour>
        <pt x="976" y="585" on="1"/>
        <pt x="1299" y="598" on="1"/>
        <pt x="1302" y="649" on="0"/>
        <pt x="1302" y="696" on="1"/>
        <pt x="1302" y="839" on="0"/>
        <pt x="1234" y="989" on="0"/>
        <pt x="1153" y="989" on="1"/>
        <pt x="1105" y="989" on="0"/>
        <pt x="1036" y="929" on="0"/>
        <pt x="998" y="813" on="0"/>
        <pt x="979" y="676" on="0"/>
      </contour>
    </TTGlyph>
    <TTGlyph name="ograve" xMin="80" yMin="-30" xMax="992" yMax="1582">
      <component glyphName="o" x="0" y="0" flags="0x204"/>
      <component glyphName="grave" x="252" y="0" flags="0x4"/>
    </TTGlyph>
    <TTGlyph name="one" xMin="28" yMin="0" xMax="676" yMax="1462">
      <contour>
        <pt x="28" y="1341" on="1"/>
        <pt x="467" y="1462" on="1"/>
        <pt x="522" y="1462" on="1"/>
        <pt x="522" y="55" on="1"/>
        <pt x="676" y="45" on="1"/>
        <pt x="676" y="0" on="1"/>
        <pt x="123" y="0" on="1"/>
        <pt x="123" y="45" on="1"/>
        <pt x="276" y="55" on="1"/>
        <pt x="276" y="1344" on="1"/>
        <pt x="43" y="1288" on="1"/>
      </contour>
    </TTGlyph>
    <TTGlyph name="onehalf" xMin="38" yMin="0" xMax="1224" yMax="1477">
      <component glyphName="onesuperior" x="-45" y="0" flags="0x4"/>
      <component glyphName="fraction" x="249" y="0" flags="0x4"/>
      <component glyphName="twosuperior" x="619" y="-709" flags="0x4"/>
    </TTGlyph>
    <TTGlyph name="onequarter" xMin="38" yMin="0" xMax="1156" yMax="1477">
      <component glyphName="onesuperior" x="-45" y="0" flags="0x4"/>
      <component glyphName="fraction" x="249" y="0" flags="0x4"/>
      <component glyphName="foursuperior" x="539" y="-699" flags="0x4"/>
    </TTGlyph>
    <TTGlyph name="onesuperior" xMin="83" yMin="710" xMax="494" yMax="1477">
      <contour>
        <pt x="83" y="1377" on="1"/>
        <pt x="83" y="1418" on="1"/>
        <pt x="282" y="1440" on="1"/>
        <pt x="373" y="1477" on="1"/>
        <pt x="391" y="1448" on="1"/>
        <pt x="391" y="761" on="1"/>
        <pt x="494" y="751" on="1"/>
        <pt x="494" y="710" on="1"/>
        <pt x="103" y="710" on="1"/>
        <pt x="103" y="751" on="1"/>
        <pt x="206" y="761" on="1"/>
        <pt x="206" y="1377" on="1"/>
      </contour>
    </TTGlyph>
</ttFont>
